/* XPM */
static char * closeO_xpm[] = {
"28 42 73 1",
" 	c #2B2B2B",
".	c #424F57",
"+	c #607E8E",
"@	c #759FB5",
"#	c #7EADC7",
"$	c #759EB5",
"%	c #607D8D",
"&	c #435057",
"*	c #384044",
"=	c #6C91A6",
"-	c #82B3CE",
";	c #6D92A6",
">	c #383F43",
",	c #414D53",
"'	c #7CAAC3",
")	c #404C52",
"!	c #7CA9C2",
"~	c #373E42",
"{	c #6C90A4",
"]	c #DCE9F1",
"^	c #9BC2D8",
"/	c #424F56",
"(	c #617F8F",
"_	c #9AC1D7",
":	c #EDF4F7",
"<	c #9CC3D8",
"[	c #5F7C8D",
"}	c #7EADC6",
"|	c #ECF3F7",
"1	c #7DABC5",
"2	c #749DB4",
"3	c #5E7C8C",
"4	c #424E55",
"5	c #6B90A4",
"6	c #363C40",
"7	c #7BA8C1",
"8	c #6C91A5",
"9	c #354249",
"0	c #435F6F",
"a	c #4C7489",
"b	c #507D95",
"c	c #435F6E",
"d	c #364249",
"e	c #31383C",
"f	c #486C7F",
"g	c #52819A",
"h	c #496C7F",
"i	c #31383B",
"j	c #354046",
"k	c #507B93",
"l	c #4F7B92",
"m	c #31373B",
"n	c #486B7E",
"o	c #53819A",
"p	c #CEDBE2",
"q	c #749AAE",
"r	c #7399AD",
"s	c #364248",
"t	c #43606F",
"u	c #E6EDF0",
"v	c #769BAF",
"w	c #425E6D",
"x	c #E6ECF0",
"y	c #4F7C94",
"z	c #759BAF",
"A	c #4C7388",
"B	c #CFDBE2",
"C	c #354148",
"D	c #486B7D",
"E	c #303639",
"F	c #4F7A91",
"G	c #486C7E",
"H	c #2F2F2F",
"                            ",
"            .+@##$%&        ",
"          *=--------;>      ",
"         ,'----------')     ",
"        *'------------!~    ",
"        {--------------=    ",
"       .----]^----^]----/   ",
"       (----_:<--_:<----[   ",
"       @-----_:<_:<-----$   ",
"       }------^::^------}   ",
"       }------^||^------1   ",
"       @-----_:^_:<-----2   ",
"       +----_:^--_:<----3   ",
"       &----]^----^]----4   ",
"        5--------------;    ",
"        67------------!~    ",
"         )!----------!)     ",
"          >8--------{~      ",
"            /[2}}2[4        ",
"                            ",
"                            ",
"                            ",
"            90abbacd        ",
"          efgggggggghi      ",
"         jkggggggggggkj     ",
"        ekgggggggggggglm    ",
"        ngggoggggggogggf    ",
"       9gggopqggggrpogggs   ",
"       tggggruvggruvggggw   ",
"       agggggruvruvggggga   ",
"       bggggggrxxqggggggb   ",
"       bggggggrxxqggggggy   ",
"       agggggruzruvgggggA   ",
"       0ggggruzggruvggggw   ",
"       dgggoBqggggrpogggC   ",
"        Dgggoggggggogggh    ",
"        EFgggggggggggglm    ",
"         jlgggggggggglj     ",
"          iGggggggggnm      ",
"            swAbbAwC        ",
"       HHHHHHHHHHHHHHHHHH   ",
"       HHHHHHHHHHHHHHHHHH   "};
