/* XPM */
static char * closeI_xpm[] = {
"28 42 55 1",
" 	c #2B2B2B",
".	c #353535",
"+	c #434343",
"@	c #4C4C4C",
"#	c #505050",
"$	c #363636",
"%	c #313131",
"&	c #484848",
"*	c #525252",
"=	c #494949",
"-	c #4F4F4F",
";	c #535353",
">	c #A0A0A0",
",	c #676767",
"'	c #A1A1A1",
")	c #AFAFAF",
"!	c #686868",
"~	c #424242",
"{	c #303030",
"]	c #354249",
"^	c #435F6F",
"/	c #4C7489",
"(	c #507D95",
"_	c #435F6E",
":	c #364249",
"<	c #31383C",
"[	c #486C7F",
"}	c #52819A",
"|	c #496C7F",
"1	c #31383B",
"2	c #354046",
"3	c #507B93",
"4	c #4F7B92",
"5	c #31373B",
"6	c #486B7E",
"7	c #53819A",
"8	c #CEDBE2",
"9	c #749AAE",
"0	c #7399AD",
"a	c #364248",
"b	c #43606F",
"c	c #E6EDF0",
"d	c #769BAF",
"e	c #425E6D",
"f	c #E6ECF0",
"g	c #4F7C94",
"h	c #759BAF",
"i	c #4C7388",
"j	c #CFDBE2",
"k	c #354148",
"l	c #486B7D",
"m	c #303639",
"n	c #4F7A91",
"o	c #486C7E",
"p	c #2F2F2F",
"                            ",
"            .+@##@+$        ",
"          %&********=%      ",
"         .#**********#.     ",
"        %#************-%    ",
"        &***;******;***&    ",
"       .***;>,****,';***$   ",
"       +****,)!**,)!****~   ",
"       @*****,)!,)!*****@   ",
"       #******,)),******#   ",
"       #******,)),******-   ",
"       @*****,)!,)!*****@   ",
"       +****,)!**,)!****~   ",
"       $***;>,****,>;***.   ",
"        &***;******;***=    ",
"        {-************-%    ",
"         .-**********-.     ",
"          %&********&%      ",
"            $~@##@~.        ",
"                            ",
"                            ",
"                            ",
"            ]^/((/_:        ",
"          <[}}}}}}}}|1      ",
"         23}}}}}}}}}}32     ",
"        <3}}}}}}}}}}}}45    ",
"        6}}}7}}}}}}7}}}[    ",
"       ]}}}789}}}}087}}}a   ",
"       b}}}}0cd}}0cd}}}}e   ",
"       /}}}}}0cd0cd}}}}}/   ",
"       (}}}}}}0ff9}}}}}}(   ",
"       (}}}}}}0ff9}}}}}}g   ",
"       /}}}}}0ch0cd}}}}}i   ",
"       ^}}}}0ch}}0cd}}}}e   ",
"       :}}}7j9}}}}087}}}k   ",
"        l}}}7}}}}}}7}}}|    ",
"        mn}}}}}}}}}}}}45    ",
"         24}}}}}}}}}}42     ",
"          1o}}}}}}}}65      ",
"            aei((iek        ",
"       pppppppppppppppppp   ",
"       pppppppppppppppppp   "};
