/* XPM */
static char * closeA_xpm[] = {
"28 42 71 1",
" 	c #2B2B2B",
".	c #3C4A52",
"+	c #517284",
"@	c #618FA7",
"#	c #679BB7",
"$	c #608EA6",
"%	c #517283",
"&	c #3C4B52",
"*	c #353D41",
"=	c #5A8399",
"-	c #6AA0BD",
";	c #5B8399",
">	c #343C40",
",	c #3B484F",
"'	c #6698B3",
")	c #3A474E",
"!	c #5A8298",
"~	c #6BA0BD",
"{	c #D5E4EC",
"]	c #87B3CA",
"^	c #527385",
"/	c #86B2C9",
"(	c #EAF1F5",
"_	c #89B4CB",
":	c #517182",
"<	c #679AB6",
"[	c #E9F1F5",
"}	c #6699B5",
"|	c #88B3CA",
"1	c #608DA6",
"2	c #507082",
"3	c #3B4951",
"4	c #5A8297",
"5	c #333A3D",
"6	c #6596B1",
"7	c #354249",
"8	c #435F6F",
"9	c #4C7489",
"0	c #507D95",
"a	c #435F6E",
"b	c #364249",
"c	c #31383C",
"d	c #486C7F",
"e	c #52819A",
"f	c #496C7F",
"g	c #31383B",
"h	c #354046",
"i	c #507B93",
"j	c #4F7B92",
"k	c #31373B",
"l	c #486B7E",
"m	c #53819A",
"n	c #CEDBE2",
"o	c #749AAE",
"p	c #7399AD",
"q	c #364248",
"r	c #43606F",
"s	c #E6EDF0",
"t	c #769BAF",
"u	c #425E6D",
"v	c #E6ECF0",
"w	c #4F7C94",
"x	c #759BAF",
"y	c #4C7388",
"z	c #CFDBE2",
"A	c #354148",
"B	c #486B7D",
"C	c #303639",
"D	c #4F7A91",
"E	c #486C7E",
"F	c #2F2F2F",
"                            ",
"            .+@##$%&        ",
"          *=--------;>      ",
"         ,'----------')     ",
"        *'------------'>    ",
"        !---~------~---=    ",
"       .---~{]----]{~---.   ",
"       ^----/(_--/(_----:   ",
"       @-----/(_/(_-----$   ",
"       <------]((]------<   ",
"       <------][[]------}   ",
"       @-----/(|/(_-----1   ",
"       +----/(|--/(_----2   ",
"       &---~{]----]{~---3   ",
"        4---~------~---;    ",
"        56------------'>    ",
"         )'----------')     ",
"          >=--------!>      ",
"            .:1<<1:3        ",
"                            ",
"                            ",
"                            ",
"            789009ab        ",
"          cdeeeeeeeefg      ",
"         hieeeeeeeeeeih     ",
"        cieeeeeeeeeeeejk    ",
"        leeemeeeeeemeeed    ",
"       7eeemnoeeeepnmeeeq   ",
"       reeeepsteepsteeeeu   ",
"       9eeeeepstpsteeeee9   ",
"       0eeeeeepvvoeeeeee0   ",
"       0eeeeeepvvoeeeeeew   ",
"       9eeeeepsxpsteeeeey   ",
"       8eeeepsxeepsteeeeu   ",
"       beeemzoeeeepnmeeeA   ",
"        Beeemeeeeeemeeef    ",
"        CDeeeeeeeeeeeejk    ",
"         hjeeeeeeeeeejh     ",
"          gEeeeeeeeelk      ",
"            quy00yuA        ",
"       FFFFFFFFFFFFFFFFFF   ",
"       FFFFFFFFFFFFFFFFFF   "};
