/* XPM */
static char * close_unfocus_xpm[] = {
"16 15 36 1",
" 	c #2A2E32",
".	c #2C3034",
"+	c #41454A",
"@	c #676D73",
"#	c #888F97",
"$	c #9BA3AA",
"%	c #888F96",
"&	c #666C72",
"*	c #313539",
"=	c #646A6F",
"-	c #9199A0",
";	c #A1A9B1",
">	c #9198A0",
",	c #99A0A8",
"'	c #64696F",
")	c #969EA6",
"!	c #676D72",
"~	c #5F656A",
"{	c #8A9299",
"]	c #A0A8B0",
"^	c #8B9299",
"/	c #5E6469",
"(	c #8B929A",
"_	c #646A70",
":	c #8C939A",
"<	c #656B71",
"[	c #888E96",
"}	c #9AA2AA",
"|	c #51565B",
"1	c #878F96",
"2	c #666C73",
"3	c #5F656B",
"4	c #5E646A",
"5	c #63696E",
"6	c #98A0A8",
"7	c #646970",
"                ",
"    .+@#$$%&+.  ",
"   *=-;;;;;;>=* ",
"  .=,;;;;;;;;,'.",
"  +-;;);;;;);;-+",
"  !;;)~{]]^/);;&",
"  #;;;(_::<{;;;[",
"  };;;]:||:];;;}",
"  };;;]:||:];;;}",
"  #;;;(_::<{;;;1",
"  2;;)3^]]^4);;&",
"  +>;;);;;;);;>+",
"  .56;;;;;;;;,'.",
"   *7-;;;;;;>'* ",
"    .+&[}}[&+.  "};
