/* XPM */
static char * close_pressed_xpm_xpm[] = {
"16 15 27 1",
" 	c #2A2E32",
".	c #5F3941",
"+	c #983E49",
"@	c #C0424F",
"#	c #C0414F",
"$	c #973E49",
"%	c #5E3A41",
"&	c #4A383E",
"*	c #B1404D",
"=	c #DA4453",
"-	c #B0404D",
";	c #CE4351",
">	c #49383F",
",	c #C54350",
"'	c #AF414D",
")	c #C54250",
"!	c #40373D",
"~	c #5D3A41",
"{	c #983F4A",
"]	c #B3414D",
"^	c #AF404D",
"/	c #973F4A",
"(	c #BF424F",
"_	c #963F49",
":	c #5C3A41",
"<	c #AE414D",
"[	c #593941",
"                ",
"      .+@#$%    ",
"    &*======-   ",
"   &=========;> ",
"   *==,====,==' ",
"  .==)!-==-!)==~",
"  {===]!^]!^===/",
"  @===='!!'====#",
"  @===='!!'====(",
"  +===]!^]!^===_",
"  %==)!'=='!)==:",
"   -==)====)==< ",
"    ;========[  ",
"    &'======<   ",
"      ~/((/:    "};
