/* XPM */
static char * max_xpm[] = {
"16 15 27 1",
" 	c #2A2E32",
".	c #6E6F70",
"+	c #C7C7C8",
"@	c #6F7072",
"#	c #6C6D6E",
"$	c #CECECF",
"%	c #CBCBCB",
"&	c #CDCECE",
"*	c #6E6F71",
"=	c #CDCDCD",
"-	c #A8A8A9",
";	c #434648",
">	c #A5A6A6",
",	c #CECECE",
"'	c #515354",
")	c #C4C5C5",
"!	c #A7A8A8",
"~	c #393C3F",
"{	c #373A3D",
"]	c #A4A4A5",
"^	c #C6C6C6",
"/	c #535456",
"(	c #858687",
"_	c #B4B4B5",
":	c #424447",
"<	c #404346",
"[	c #868687",
"                ",
"                ",
"                ",
"                ",
"                ",
"        .+@     ",
"       #$%&*    ",
"      #=-;>,*   ",
"     ')!~ {]^/  ",
"     (_:   <_[  ",
"                ",
"                ",
"                ",
"                ",
"                "};
