/* XPM */
static char * max_pressed_xpm[] = {
"16 15 34 1",
" 	c #2A2E32",
".	c #2C3034",
"+	c #35393D",
"@	c #4E5357",
"#	c #616468",
"$	c #6A6E71",
"%	c #606468",
"&	c #4E5356",
"*	c #2F3337",
"=	c #4B4F53",
"-	c #65696D",
";	c #6D7174",
">	c #696C70",
",	c #65696C",
"'	c #6B6F72",
")	c #575B5F",
"!	c #565A5D",
"~	c #4D5155",
"{	c #565A5E",
"]	c #595D60",
"^	c #696D70",
"/	c #4F5356",
"(	c #6C7073",
"_	c #5B5F63",
":	c #474B4F",
"<	c #686C6F",
"[	c #686C70",
"}	c #484C4F",
"|	c #595D61",
"1	c #6A6E72",
"2	c #4D5154",
"3	c #676B6F",
"4	c #4E5256",
"5	c #4B4E53",
"                ",
"    .+@#$$%&+.  ",
"   *=-;;;;;;-=* ",
"  .=>;;;;;;;;>=.",
"  +,;;;;;;;;;;-+",
"  @;;;;'))';;;;&",
"  #;;;'!~~{';;;%",
"  $;;;]~^^/);;;$",
"  $;(_:<;;[}|(;$",
"  #;123;;;;321;%",
"  @;;';;;;;;';;4",
"  +,;;;;;;;;;;-+",
"  .5>;;;;;;;;>=.",
"   *=,;;;;;;,=* ",
"    .+&%$$%4+.  "};
