/* XPM */
static char * min_unfocus_xpm[] = {
"16 15 23 1",
" 	c #2A2E32",
".	c #424447",
"+	c #535557",
"@	c #2E3236",
"#	c #2E3235",
"$	c #424547",
"%	c #323539",
"&	c #5A5B5D",
"*	c #4E5053",
"=	c #2D3034",
"-	c #2C3034",
";	c #4D4F51",
">	c #5A5C5E",
",	c #323639",
"'	c #3A3C3F",
")	c #5D5E60",
"!	c #4F5153",
"~	c #2F3236",
"{	c #4E5052",
"]	c #5E5F61",
"^	c #3A3D40",
"/	c #3B3D40",
"(	c #5B5C5E",
"                ",
"                ",
"                ",
"                ",
"                ",
"     .+@   #+$  ",
"     %&*= -;>,  ",
"      ')!~{]^   ",
"       '])]^    ",
"        /(/     ",
"                ",
"                ",
"                ",
"                ",
"                "};
