/* XPM */
static char * closeA_xpm[] = {
"28 42 72 1",
" 	c #2F2F2F",
".	c #37343B",
"+	c #5C4F77",
"@	c #7661A0",
"#	c #8269B4",
"$	c #75609F",
"%	c #5C4E77",
"&	c #4C435D",
"*	c #8168B3",
"=	c #866CBA",
"-	c #4C445D",
";	c #856CB9",
">	c #826AB3",
",	c #8269B3",
"'	c #313032",
")	c #524766",
"!	c #856BB9",
"~	c #534868",
"{	c #303030",
"]	c #5B4E76",
"^	c #7661A1",
"/	c #5A4D74",
"(	c #4F4663",
"_	c #504664",
":	c #574B6F",
"<	c #594C71",
"[	c #564B6E",
"}	c #4F4562",
"|	c #4C435E",
"1	c #856BB8",
"2	c #514765",
"3	c #5B4E75",
"4	c #504764",
"5	c #5D5079",
"6	c #8169B2",
"7	c #36333A",
"8	c #4B435C",
"9	c #373737",
"0	c #343238",
"a	c #4E4265",
"b	c #5F4D84",
"c	c #675292",
"d	c #5F4D83",
"e	c #4D4265",
"f	c #433B52",
"g	c #675291",
"h	c #6A5497",
"i	c #433C52",
"j	c #6A5496",
"k	c #685392",
"l	c #343338",
"m	c #303031",
"n	c #473E58",
"o	c #695396",
"p	c #473E5A",
"q	c #4D4264",
"r	c #5F4E84",
"s	c #4C4263",
"t	c #453D56",
"u	c #4A405F",
"v	c #4B4161",
"w	c #4A405E",
"x	c #443C55",
"y	c #695496",
"z	c #463E58",
"A	c #4D4263",
"B	c #463D57",
"C	c #4F4366",
"D	c #4D4163",
"E	c #333237",
"F	c #423B51",
"G	c #5E4D82",
"                            ",
"                            ",
"                            ",
"            .+@##$%.        ",
"           &*======*-       ",
"          &;========;-      ",
"         .*==>====,==,.     ",
"         +===')!!~{===]     ",
"         ^===/ (_ :===$     ",
"         ,====<  [====*     ",
"         *===;}  |1===,     ",
"         @===2 33 4===$     ",
"         %===.5==5.===3     ",
"         .*==========67     ",
"          -;========;8      ",
"           -,======68       ",
"            .]$,,$37        ",
"                            ",
"                            ",
"    999999999999999999999999",
"                            ",
"                            ",
"                            ",
"                            ",
"            0abccde0        ",
"           fghhhhhhgi       ",
"          fjhhhhhhhhji      ",
"         0ghhkhhhhchhcl     ",
"         ahhhmnoop{hhhq     ",
"         rhhhs tt uhhhd     ",
"         chhhhv  whhhhg     ",
"         ghhhjx  fyhhhc     ",
"         bhhhz AA Bhhhd     ",
"         ehhh0ChhC0hhhD     ",
"         0ghhhhhhhhhhgE     ",
"          ijhhhhhhhhjF      ",
"           ichhhhhhgF       ",
"            lqGccGDE        ",
"                            ",
"                            ",
"                            ",
"                            "};
