/* XPM */
static char * closeI_xpm[] = {
"28 42 72 1",
" 	c #F2F2F2",
".	c #ECECEC",
"+	c #D0D0D0",
"@	c #BCBCBC",
"#	c #B2B2B2",
"$	c #D1D1D1",
"%	c #DCDCDC",
"&	c #B3B3B3",
"*	c #AFAFAF",
"=	c #B4B4B4",
"-	c #F0F0F0",
";	c #D8D8D8",
">	c #B0B0B0",
",	c #D6D6D6",
"'	c #F1F1F1",
")	c #D2D2D2",
"!	c #DADADA",
"~	c #D9D9D9",
"{	c #D3D3D3",
"]	c #D4D4D4",
"^	c #B1B1B1",
"/	c #CFCFCF",
"(	c #DDDDDD",
"_	c #F2EDED",
":	c #F1AFB2",
"<	c #F17379",
"[	c #F14E55",
"}	c #F13841",
"|	c #F1B0B3",
"1	c #F1B3B6",
"2	c #F14A51",
"3	c #F13039",
"4	c #F14A52",
"5	c #F18A8F",
"6	c #F2B5B8",
"7	c #F14951",
"8	c #F2F1F1",
"9	c #F2C5C7",
"0	c #F14048",
"a	c #F13E46",
"b	c #F1C1C3",
"c	c #F1B1B4",
"d	c #F2D0D2",
"e	c #F13F48",
"f	c #F1CDCF",
"g	c #F2D4D5",
"h	c #F1757B",
"i	c #F14D55",
"j	c #F2464E",
"k	c #F2D7D8",
"l	c #F1CFD0",
"m	c #F2DADB",
"n	c #F14850",
"o	c #F13941",
"p	c #F1424B",
"q	c #F2D3D4",
"r	c #F2DCDD",
"s	c #F14149",
"t	c #F2CFD1",
"u	c #F2D5D6",
"v	c #F1444C",
"w	c #F13A43",
"x	c #F1424A",
"y	c #F2D1D3",
"z	c #F2CCCE",
"A	c #F1B2B5",
"B	c #F2EEEE",
"C	c #F14B53",
"D	c #F2B6B9",
"E	c #F1898E",
"F	c #F2F0F0",
"G	c #F14E56",
"                            ",
"           .+@##@$.         ",
"          %&******&%        ",
"         %**********%       ",
"        .&**=****=**=.      ",
"        +***-;>>,'***$      ",
"        @***) !~ {***@      ",
"        &****)  ]****&      ",
"        &***>~  %^***=      ",
"        @***; $$ ~***@      ",
"        $***./**/.***+      ",
"        .&**********=.      ",
"         %**********(       ",
"          %=******=(        ",
"           .$@&&@+.         ",
"                            ",
"                            ",
"                            ",
"                            ",
"                            ",
"                            ",
"          _:<[}}[<|_        ",
"         123333333341       ",
"        33333333333335      ",
"       1333333333333336     ",
"      _4333333333333337_    ",
"      :333389033ab 3333c    ",
"      <3333d d0ef g3333h    ",
"      i3333jk dl mn3333[    ",
"      o33333pq  r233333o    ",
"      o33333st  uv33333w    ",
"      i3333xy gg gp3333[    ",
"      <3333z gppg f3333h    ",
"      |33338fp33pf 3333A    ",
"      BC333333333333332_    ",
"       133333333333333D     ",
"        E333333333333F      ",
"         6C33333333CD       ",
"          BchGooGhAB        ",
"                            ",
"                            ",
"                            "};
