/* XPM */
static char * maximizeI_xpm[] = {
"20 42 45 1",
" 	c #F2F2F2",
".	c #F0F0F0",
"+	c #C6C6C6",
"@	c #AFAFAF",
"#	c #BCBCBC",
"$	c #F1F1F1",
"%	c #C4C4C4",
"&	c #EDF0F1",
"*	c #B1D3EA",
"=	c #76B7E3",
"-	c #51A6DF",
";	c #3C9BDC",
">	c #B2D3EA",
",	c #B4D4EA",
"'	c #4DA4DE",
")	c #3498DB",
"!	c #4EA4DE",
"~	c #B5D5EA",
"{	c #8CC2E6",
"]	c #B6D6EB",
"^	c #4CA3DE",
"/	c #58AAE1",
"(	c #EEF7FC",
"_	c #FFFFFF",
":	c #C6E2F5",
"<	c #B2D4EA",
"[	c #76B8E3",
"}	c #77B8E3",
"|	c #4FA5DE",
"1	c #5AABE2",
"2	c #3D9CDC",
"3	c #F2F9FD",
"4	c #5DADE2",
"5	c #54A8E1",
"6	c #ECF5FC",
"7	c #3E9DDC",
"8	c #50A5DE",
"9	c #F0F7FC",
"0	c #52A6DF",
"a	c #78B8E3",
"b	c #B3D4EA",
"c	c #EEF0F1",
"d	c #B7D6EB",
"e	c #8BC1E6",
"f	c #F0F1F2",
"                    ",
"                    ",
"                    ",
"                    ",
"                    ",
"                    ",
"         .+@@#      ",
"        . .+@@      ",
"       $%. $+@      ",
"       $@%. $+      ",
"       $@@+. .      ",
"        #@@+.       ",
"                    ",
"                    ",
"                    ",
"                    ",
"                    ",
"                    ",
"                    ",
"                    ",
"                    ",
"      &*=-;;-=>&    ",
"     ,'))))))))!~   ",
"    ))))))))))))){  ",
"   ,))))))))))))))] ",
"  &!))))))))))))))^&",
"  *))))))/(___:))))<",
"  [)))))))/(___))))}",
"  |))))1)))/(__))))-",
"  2))))34)))56_))))2",
"  2))))_34)))56))))7",
"  8))))__91)))/))))0",
"  =))))___91)))))))a",
"  >)))):___91))))))b",
"  c|))))))))))))))'&",
"   ~))))))))))))))d ",
"    e))))))))))))f  ",
"     ]|))))))))|d   ",
"      c<}0220}bc    ",
"                    ",
"                    ",
"                    "};
