/* XPM */
static char * restoreO_xpm[] = {
"20 42 37 1",
" 	c #F2F2F2",
".	c #F1F1F1",
"+	c #E4E4E4",
"@	c #D8D8D8",
"#	c #D1D1D1",
"$	c #CDCDCD",
"%	c #D0D0D0",
"&	c #CBCBCB",
"*	c #DCDCDC",
"=	c #DDDDDD",
"-	c #4C4C4C",
";	c #888888",
">	c #E5E5E5",
",	c #D9D9D9",
"'	c #4D4D4D",
")	c #8B8B8B",
"!	c #747474",
"~	c #8F8F8F",
"{	c #E6E6E6",
"]	c #F0F0F0",
"^	c #B3B3B3",
"/	c #9F9F9F",
"(	c #959595",
"_	c #D2D2D2",
":	c #9E9E9E",
"<	c #919191",
"[	c #D3D3D3",
"}	c #BEBEBE",
"|	c #CCCCCC",
"1	c #FFFFFF",
"2	c #B2B2B2",
"3	c #C8C8C8",
"4	c #969696",
"5	c #A0A0A0",
"6	c #C4C4C4",
"7	c #B4B4B4",
"8	c #D4D4D4",
"      .+@#$$#@+.    ",
"      %&&&&&&&&#    ",
"    .*&&&&&&&&&&=.  ",
"    *&&&&&&&&&&&&=  ",
"  .#&&&&&&&-;&&&&&%.",
"  +&&&&&&&&--;&&&&&>",
"  @&&&&&&&&---;&&&&,",
"  #&&&&&&&&'---)&&&#",
"  $&&&&&&&&!----&&&$",
"  $&&&----!&&&&&&&&$",
"  #&&&)---'&&&&&&&&#",
"  @&&&&~---&&&&&&&&,",
"  +&&&&&~--&&&&&&&&>",
"   >&&&&&&)&&&&&&&{ ",
"    =&&&&&&&&&&&&=  ",
"    .=&&&&&&&&&&=.  ",
"      #&&&&&&&&#    ",
"      .>,#$$#,>     ",
"                    ",
"                    ",
"                    ",
"      ]#^/((/^_]    ",
"     _:<<<<<<<</[   ",
"    <<<<<<<<<<<<<}  ",
"   _<<<<<<<|<<<<<<[ ",
"  ]/<<<<<<<1|<<<<<:]",
"  #<<<<<<<<11|<<<<<_",
"  2<<<<<<<<111|<<<<^",
"  :<<<<<<<<11113<<</",
"  4<<<<<<<<*11113<<4",
"  4<<31111*<<<<<<<<4",
"  /<<<31111<<<<<<<<5",
"  ^<<<<6111<<<<<<<<7",
"  _<<<<<611<<<<<<<<[",
"  ]/<<<<<61<<<<<<<:]",
"   [<<<<<<3<<<<<<<8 ",
"    }<<<<<<<<<<<<.  ",
"     [/<<<<<<<</8   ",
"      ]_^5445^[]    ",
"                    ",
"                    ",
"                    "};
