/* XPM */
static char * restoreI_xpm[] = {
"20 42 42 1",
" 	c #F2F2F2",
".	c #F1F1F1",
"+	c #C3C3C3",
"@	c #F0F0F0",
"#	c #AFAFAF",
"$	c #C4C4C4",
"%	c #BCBCBC",
"&	c #C5C5C5",
"*	c #EDF0F1",
"=	c #B1D3EA",
"-	c #76B7E3",
";	c #51A6DF",
">	c #3C9BDC",
",	c #B2D3EA",
"'	c #B4D4EA",
")	c #4DA4DE",
"!	c #3498DB",
"~	c #4EA4DE",
"{	c #B5D5EA",
"]	c #8CC2E6",
"^	c #A0CFEE",
"/	c #B6D6EB",
"(	c #FFFFFF",
"_	c #4CA3DE",
":	c #B2D4EA",
"<	c #76B8E3",
"[	c #77B8E3",
"}	c #4FA5DE",
"|	c #FEFFFF",
"1	c #9ACCED",
"2	c #3D9CDC",
"3	c #BFDFF4",
"4	c #3E9DDC",
"5	c #50A5DE",
"6	c #52A6DF",
"7	c #93C8EC",
"8	c #78B8E3",
"9	c #B3D4EA",
"0	c #EEF0F1",
"a	c #B7D6EB",
"b	c #8BC1E6",
"c	c #F0F1F2",
"                    ",
"                    ",
"                    ",
"                    ",
"           .        ",
"           +@       ",
"           #+@      ",
"           ##$@     ",
"           %##&.    ",
"      .&##%         ",
"       @&##         ",
"        @&#         ",
"         @&         ",
"          .         ",
"                    ",
"                    ",
"                    ",
"                    ",
"                    ",
"                    ",
"                    ",
"      *=-;>>;-,*    ",
"     ')!!!!!!!!~{   ",
"    !!!!!!!!!!!!!]  ",
"   '!!!!!!!^!!!!!!/ ",
"  *~!!!!!!!(^!!!!!_*",
"  =!!!!!!!!((^!!!!!:",
"  <!!!!!!!!(((^!!!![",
"  }!!!!!!!!|(((1!!!;",
"  2!!!!!!!!3((((1!!2",
"  2!!1((((3!!!!!!!!4",
"  5!!!1(((|!!!!!!!!6",
"  -!!!!7(((!!!!!!!!8",
"  ,!!!!!7((!!!!!!!!9",
"  0}!!!!!7(!!!!!!!)*",
"   {!!!!!!1!!!!!!!a ",
"    b!!!!!!!!!!!!c  ",
"     /}!!!!!!!!}a   ",
"      0:[6226[90    ",
"                    ",
"                    ",
"                    "};
