/* XPM */
static char * desktop_xpm[] = {
"24 24 186 2",
"  	c None",
". 	c #0078BF",
"+ 	c #0683CE",
"@ 	c #0D8FDE",
"# 	c #0C8FDE",
"$ 	c #0A8EDE",
"% 	c #028CDE",
"& 	c #008BDE",
"* 	c #018BDE",
"= 	c #0182CE",
"- 	c #0178BF",
"; 	c #1BA8FE",
"> 	c #17A7FE",
", 	c #11A5FE",
"' 	c #05A1FE",
") 	c #019FFF",
"! 	c #02A0FF",
"~ 	c #03A0FF",
"{ 	c #04A0FF",
"] 	c #05A1FF",
"^ 	c #048DDF",
"/ 	c #0379BF",
"( 	c #07A1FE",
"_ 	c #03A0FE",
": 	c #06A1FF",
"< 	c #07A2FF",
"[ 	c #08A2FF",
"} 	c #09A2FF",
"| 	c #088EDF",
"1 	c #0679BF",
"2 	c #19A7FE",
"3 	c #14A5FE",
"4 	c #0BA3FE",
"5 	c #0AA2FF",
"6 	c #0BA3FF",
"7 	c #0DA4FF",
"8 	c #0EA4FF",
"9 	c #0B8FDF",
"0 	c #087ABF",
"a 	c #1AA7FE",
"b 	c #17A6FE",
"c 	c #0DA3FE",
"d 	c #07A1FF",
"e 	c #0CA3FF",
"f 	c #10A4FF",
"g 	c #11A5FF",
"h 	c #12A6FF",
"i 	c #0F91DF",
"j 	c #0B7CBF",
"k 	c #18A7FE",
"l 	c #13A5FE",
"m 	c #08A1FE",
"n 	c #12A5FF",
"o 	c #14A6FF",
"p 	c #16A6FF",
"q 	c #17A7FF",
"r 	c #1392DF",
"s 	c #0E7CBF",
"t 	c #18A7FF",
"u 	c #1AA8FF",
"v 	c #1BA8FF",
"w 	c #1693DF",
"x 	c #117EBF",
"y 	c #1CA9FF",
"z 	c #1EAAFF",
"A 	c #1FAAFF",
"B 	c #1994DF",
"C 	c #137FBF",
"D 	c #0EA3FE",
"E 	c #09A2FE",
"F 	c #15A6FF",
"G 	c #20ABFF",
"H 	c #22ABFF",
"I 	c #24ACFF",
"J 	c #1D96DF",
"K 	c #167FBF",
"L 	c #12A5FE",
"M 	c #21ABFF",
"N 	c #26ADFF",
"O 	c #28ADFF",
"P 	c #2197DF",
"Q 	c #1980BF",
"R 	c #25ACFF",
"S 	c #27ADFF",
"T 	c #2AAEFF",
"U 	c #2CAFFF",
"V 	c #2498DF",
"W 	c #1B81BF",
"X 	c #16A7FF",
"Y 	c #2BAEFF",
"Z 	c #2EAFFF",
"` 	c #30B0FF",
" .	c #2799DF",
"..	c #1E82BF",
"+.	c #18A8FF",
"@.	c #2FB0FF",
"#.	c #32B1FF",
"$.	c #34B2FF",
"%.	c #2A9BDF",
"&.	c #2083BF",
"*.	c #1F96DE",
"=.	c #3AB2FB",
"-.	c #21A1F0",
";.	c #189CEC",
">.	c #1299EB",
",.	c #0595EC",
"'.	c #0394EC",
").	c #0494EC",
"!.	c #0896EC",
"~.	c #0C97EC",
"{.	c #1099EC",
"].	c #149AEC",
"^.	c #1B9DEC",
"/.	c #1F9FEC",
"(.	c #23A0EC",
"_.	c #2DA5EF",
":.	c #49B8FB",
"<.	c #40B1F5",
"[.	c #37A9EF",
"}.	c #51BBFB",
"|.	c #3DA2DF",
"1.	c #2284BF",
"2.	c #69B2DE",
"3.	c #B8DAF0",
"4.	c #3B88B7",
"5.	c #136EA5",
"6.	c #0968A1",
"7.	c #0264A0",
"8.	c #01639F",
"9.	c #03649F",
"0.	c #06659F",
"a.	c #09669F",
"b.	c #0B679F",
"c.	c #0E689F",
"d.	c #11699F",
"e.	c #136B9F",
"f.	c #166C9F",
"g.	c #196C9F",
"h.	c #3A83AF",
"i.	c #BADAEE",
"j.	c #7EB1CF",
"k.	c #4185AF",
"l.	c #BCDBEE",
"m.	c #81BBDF",
"n.	c #2584BF",
"o.	c #3E98CE",
"p.	c #6CAED6",
"q.	c #217CB3",
"r.	c #086DA9",
"s.	c #0369A6",
"t.	c #0067A5",
"u.	c #0167A5",
"v.	c #0468A5",
"w.	c #0669A5",
"x.	c #096AA5",
"y.	c #0B6BA5",
"z.	c #0D6CA5",
"A.	c #106DA5",
"B.	c #126EA5",
"C.	c #156FA5",
"D.	c #1770A5",
"E.	c #2C7DAE",
"F.	c #7AB3D5",
"G.	c #589AC2",
"H.	c #3380AE",
"I.	c #7EB4D5",
"J.	c #5DA4CF",
"K.	c #2786BF",
"L.	c #0078BE",
"M.	c #0178BE",
"N.	c #0479BE",
"O.	c #0779BE",
"P.	c #087ABE",
"Q.	c #0B7BBE",
"R.	c #0D7DBE",
"S.	c #117EBE",
"T.	c #137FBE",
"U.	c #167FBE",
"V.	c #1880BE",
"W.	c #1C81BE",
"X.	c #1E82BE",
"Y.	c #2082BE",
"Z.	c #2384BE",
"`.	c #2585BE",
" +	c #2886BE",
".+	c #2986BE",
"                                                ",
"                                                ",
"                                                ",
". . . . . . . . . . . . . . . . . . . . . . . . ",
". + @ @ @ @ @ @ @ @ @ @ @ # $ % & & & * * % = - ",
". @ ; ; ; ; ; ; ; ; ; ; ; > , ' ) ) ! ~ { ] ^ / ",
". @ ; ; ; ; ; ; ; ; ; ; ; , ( _ ~ { : < [ } | 1 ",
". @ ; ; ; ; ; ; ; ; ; 2 3 4 { { : [ 5 6 7 8 9 0 ",
". @ ; ; ; ; ; ; ; ; a b c d { d } e 8 f g h i j ",
". @ ; ; ; ; ; ; ; ; k l m : d 6 7 f n o p q r s ",
". @ ; ; ; ; ; ; a a l 4 ( [ 6 8 g o p t u v w x ",
". @ ; ; ; ; ; ; a b c : [ 6 8 g o q u y z A B C ",
". @ ; ; ; ; ; ; k D E < 6 8 g F t v z G H I J K ",
". @ ; ; ; ; ; > L E [ } 7 g F t y A M I N O P Q ",
". @ ; ; ; a a l 5 : [ e f o t v A H R S T U V W ",
". @ ; ; ; a b c { : 5 8 n X u z M R O Y Z `  ...",
". @ ; ; a b D ( ~ < e f o +.y G I S Y @.#.$.%.&.",
". *.=.-.;.>.,.'.).!.~.{.].;.^./.(._.:.<.[.}.|.1.",
". 2.3.4.5.6.7.8.9.0.a.b.c.d.e.f.g.h.i.j.k.l.m.n.",
". o.p.q.r.s.t.u.v.w.x.y.z.A.B.C.D.E.F.G.H.I.J.K.",
"L.L.L.L.L.L.L.M.N.O.P.Q.R.S.T.U.V.W.X.Y.Z.`. +.+",
"                                                ",
"                                                ",
"                                                "};
