/* XPM */
static char * minimizeA_xpm[] = {
"20 42 3 1",
" 	c None",
".	c #FFFFFF",
"+	c #595959",
"....................",
"....................",
"....................",
"....................",
"....................",
"....................",
"....................",
"....................",
"......++++++++......",
"......++++++++......",
"....................",
"....................",
"....................",
"....................",
"....................",
"....................",
"....................",
"....................",
"....................",
"....................",
"....................",
"....................",
"....................",
"....................",
"....................",
"....................",
"....................",
"....................",
"....................",
"....................",
"....................",
"....................",
"....................",
"....................",
"....................",
"....................",
"....................",
"....................",
"....................",
"....................",
"....................",
"                    "};
