/* XPM */
static char * closeA_xpm[] = {
"28 42 84 1",
" 	c None",
".	c #1A1A1A",
"+	c #232020",
"@	c #743A3D",
"#	c #AA4C50",
"$	c #C4545A",
"%	c #A94B50",
"&	c #733A3D",
"*	c #512E31",
"=	c #C35459",
"-	c #CC575D",
";	c #502E31",
">	c #CB575D",
",	c #C1545A",
"'	c #C25359",
")	c #211E1F",
"!	c #5C3234",
"~	c #CA565C",
"{	c #5F3236",
"]	c #72393C",
"^	c #AA4C51",
"/	c #6F383C",
"(	c #593134",
"_	c #5A3134",
":	c #69363A",
"<	c #6C373A",
"[	c #673539",
"}	c #593034",
"|	c #522E31",
"1	c #C9565C",
"2	c #5B3235",
"3	c #70393C",
"4	c #5A3135",
"5	c #743A3E",
"6	c #71393C",
"7	c #1F1D1D",
"8	c #502E30",
"9	c #A84B50",
"0	c #C3545A",
"a	c #5F2125",
"b	c #A4282E",
"c	c #CF2D34",
"d	c #E82F38",
"e	c #5E2125",
"f	c #5B2225",
"g	c #D42D35",
"h	c #F13039",
"i	c #D32D35",
"j	c #5B2124",
"k	c #8A262B",
"l	c #5A2125",
"m	c #D52D35",
"n	c #471F22",
"o	c #DF2E36",
"p	c #E12F37",
"q	c #4B1F22",
"r	c #5D2125",
"s	c #3B1E20",
"t	c #E02E37",
"u	c #3D1E21",
"v	c #371E20",
"w	c #A2282F",
"x	c #D02D35",
"y	c #D92E36",
"z	c #331D1F",
"A	c #2F1D1F",
"B	c #D62D35",
"C	c #E72F37",
"D	c #DC2D37",
"E	c #381E20",
"F	c #2E1D1F",
"G	c #DE2E36",
"H	c #3B1D20",
"I	c #351D1F",
"J	c #DA2E36",
"K	c #E52E37",
"L	c #DD2E36",
"M	c #3A1E20",
"N	c #3F1E21",
"O	c #5C2125",
"P	c #D22D35",
"Q	c #592125",
"R	c #8B262B",
"S	c #CE2C34",
"............................",
"...........+@#$$%&+.........",
"..........*=------=;........",
".........*>-------->;.......",
"........+=--,----'--')......",
"........@---.!~~{.---]......",
"........^---/.(_.:---%......",
"........=----<..[----=......",
"........=---~}..|1---'......",
"........#---2.33.4---%......",
"........&---+5--5+---6......",
"........+=----------,7......",
".........;>-------->8.......",
"..........;'------,8........",
"...........)]900967.........",
"............................",
"............................",
"............................",
"............................",
"............................",
"............................",
"...........abcddcbe.........",
".........fghhhhhhhhij.......",
"........hhhhhhhhhhhhhk......",
".......fhhhhhhhhhhhhhhl.....",
".......ihhhhhhhhhhhhhhm.....",
"......ahhhh.nohhpq.hhhhr....",
"......bhhhhs.sotu.vhhhhw....",
"......xhhhhyz.ss.ABhhhhc....",
"......ChhhhhDE..FghhhhhC....",
"......ChhhhhGH..IJhhhhhK....",
"......xhhhhLM.vv.vDhhhhc....",
"......bhhhhN.vDDv.uhhhhw....",
"......ehhhh.uDhhDu.hhhhO....",
".......Phhhhhhhhhhhhhhg.....",
".......jhhhhhhhhhhhhhhQ.....",
"........Rhhhhhhhhhhhh.......",
".........lPhhhhhhhhPQ.......",
"...........rwSCCSwO.........",
"............................",
"  ..........................",
"  .........................."};
