/* XPM */
static char * closeI_xpm[] = {
"28 42 76 1",
" 	c None",
".	c #1A1A1A",
"+	c #363D3D",
"@	c #495151",
"#	c #535A5B",
"$	c #4A5051",
"%	c #2A3131",
"&	c #52595B",
"*	c #565D5E",
"=	c #293131",
"-	c #565D5D",
";	c #52595A",
">	c #2E3435",
",	c #565C5D",
"'	c #2F3637",
")	c #363C3D",
"!	c #343B3C",
"~	c #2D3334",
"{	c #2D3335",
"]	c #32393A",
"^	c #333A3B",
"/	c #313839",
"(	c #555C5D",
"_	c #555C5C",
":	c #353C3D",
"<	c #2D3435",
"[	c #373C3E",
"}	c #363C3C",
"|	c #293031",
"1	c #4A5050",
"2	c #525A5B",
"3	c #5F2125",
"4	c #A4282E",
"5	c #CF2D34",
"6	c #E82F38",
"7	c #5E2125",
"8	c #5B2225",
"9	c #D42D35",
"0	c #F13039",
"a	c #D32D35",
"b	c #5B2124",
"c	c #8A262B",
"d	c #5A2125",
"e	c #D52D35",
"f	c #471F22",
"g	c #DF2E36",
"h	c #E12F37",
"i	c #4B1F22",
"j	c #5D2125",
"k	c #3B1E20",
"l	c #E02E37",
"m	c #3D1E21",
"n	c #371E20",
"o	c #A2282F",
"p	c #D02D35",
"q	c #D92E36",
"r	c #331D1F",
"s	c #2F1D1F",
"t	c #D62D35",
"u	c #E72F37",
"v	c #DC2D37",
"w	c #381E20",
"x	c #2E1D1F",
"y	c #DE2E36",
"z	c #3B1D20",
"A	c #351D1F",
"B	c #DA2E36",
"C	c #E52E37",
"D	c #DD2E36",
"E	c #3A1E20",
"F	c #3F1E21",
"G	c #5C2125",
"H	c #D22D35",
"I	c #592125",
"J	c #8B262B",
"K	c #CE2C34",
"............................",
"............+@##$+..........",
"..........%&******&=........",
".........%-********-=.......",
".........&**;****;**;.......",
"........+***.>,,'.***)......",
"........@***!.~{.]***$......",
"........&****^../****&......",
"........&***(~..%_***;......",
"........@***>.::.<***$......",
"........+***.[**[.***}......",
".........&**********;.......",
".........=-********-|.......",
"..........=;******;|........",
"............)1221}..........",
"............................",
"............................",
"............................",
"............................",
"............................",
"............................",
"...........34566547.........",
".........8900000000ab.......",
"........0000000000000c......",
".......800000000000000d.....",
".......a00000000000000e.....",
"......30000.fg00hi.0000j....",
"......40000k.kglm.n0000o....",
"......p0000qr.kk.st00005....",
"......u00000vw..x900000u....",
"......u00000yz..AB00000C....",
"......p0000DE.nn.nv00005....",
"......40000F.nvvn.m0000o....",
"......70000.mv00vm.0000G....",
".......H000000000000009.....",
".......b00000000000000I.....",
"........J000000000000.......",
".........dH00000000HI.......",
"...........joKuuKoG.........",
"............................",
"  ..........................",
"  .........................."};
