/* XPM */
static char * maximizeA_xpm[] = {
"20 42 39 1",
" 	c #1A1A1A",
".	c #63686B",
"+	c #888C90",
"@	c #72757A",
"#	c #666A6E",
"$	c #606468",
"%	c #73767B",
"&	c #5C5C5C",
"*	c #989899",
"=	c #BFBFBF",
"-	c #D4D5D5",
";	c #999999",
">	c #5A5A5A",
",	c #C3C3C3",
"'	c #DDDDDD",
")	c #C2C2C2",
"!	c #595959",
"~	c #838383",
"{	c #575757",
"]	c #C4C4C4",
"^	c #BBBBBB",
"/	c #2A2A2A",
"(	c #505050",
"_	c #5B5B5B",
":	c #989898",
"<	c #C0C0C0",
"[	c #B9B9B9",
"}	c #BFBFC0",
"|	c #D4D4D4",
"1	c #272727",
"2	c #B5B5B5",
"3	c #BEBEBE",
"4	c #2C2C2C",
"5	c #D2D2D2",
"6	c #282828",
"7	c #B8B8B8",
"8	c #C1C1C1",
"9	c #565656",
"0	c #BEBEBF",
"                    ",
"                    ",
"                    ",
"                    ",
"                    ",
"                    ",
"          .++@      ",
"           .++      ",
"        #   $+      ",
"        +#   $      ",
"        ++.         ",
"        %++.        ",
"                    ",
"                    ",
"                    ",
"                    ",
"                    ",
"                    ",
"                    ",
"                    ",
"                    ",
"       &*=--=;&     ",
"     >,'''''''')!   ",
"    '''''''''''''~  ",
"   >''''''''''''''{ ",
"   )''''''''''''''] ",
"  &''''''^/   (''''_",
"  *'''''''^/   '''':",
"  <''''['''^/  ''''}",
"  |''''12'''34 ''''|",
"  |'''' 12'''34''''5",
"  <''''  67'''^''''}",
"  ;''''   67''''''':",
"  &''''(   67''''''>",
"   8'''''''''''''', ",
"   !''''''''''''''9 ",
"    ~''''''''''''   ",
"     {8''''''''89   ",
"       _:3||0:>     ",
"                    ",
"                    ",
"                    "};
