/* XPM */
static char * maximizeA_xpm[] = {
"20 42 34 1",
" 	c #F2F2F2",
".	c #EEEEEE",
"+	c #8D8D8D",
"@	c #5D5D5D",
"#	c #797979",
"$	c #F1F1F1",
"%	c #898989",
"&	c #F0F0F0",
"*	c #909090",
"=	c #787878",
"-	c #D1D1D1",
";	c #B3B3B3",
">	c #9F9F9F",
",	c #959595",
"'	c #D2D2D2",
")	c #9E9E9E",
"!	c #919191",
"~	c #D3D3D3",
"{	c #BEBEBE",
"]	c #A4A4A4",
"^	c #F6F6F6",
"/	c #FFFFFF",
"(	c #E0E0E0",
"_	c #B2B2B2",
":	c #A6A6A6",
"<	c #969696",
"[	c #F8F8F8",
"}	c #A7A7A7",
"|	c #A2A2A2",
"1	c #F5F5F5",
"2	c #F7F7F7",
"3	c #A0A0A0",
"4	c #B4B4B4",
"5	c #D4D4D4",
"                    ",
"                    ",
"                    ",
"                    ",
"                    ",
"                    ",
"         .+@@#      ",
"        . .+@@      ",
"       $%. &*@      ",
"       $@%. &*      ",
"       $@@+. .      ",
"        =@@+.       ",
"                    ",
"                    ",
"                    ",
"                    ",
"                    ",
"                    ",
"                    ",
"                    ",
"                    ",
"      &-;>,,>;'&    ",
"     ')!!!!!!!!>~   ",
"    !!!!!!!!!!!!!{  ",
"   '!!!!!!!!!!!!!!~ ",
"  &>!!!!!!!!!!!!!!)&",
"  -!!!!!!]^///(!!!!'",
"  _!!!!!!!]^///!!!!;",
"  )!!!!:!!!]^//!!!!>",
"  <!!!![}!!!|1/!!!!<",
"  <!!!!/[}!!!|1!!!!<",
"  >!!!!//2:!!!]!!!!3",
"  ;!!!!///2:!!!!!!!4",
"  '!!!!(///2:!!!!!!~",
"  &>!!!!!!!!!!!!!!)&",
"   ~!!!!!!!!!!!!!!5 ",
"    {!!!!!!!!!!!!$  ",
"     ~>!!!!!!!!>5   ",
"      &';3<<3;~&    ",
"                    ",
"                    ",
"                    "};
