/* XPM */
static char * maximizeA_xpm[] = {
"20 42 48 1",
" 	c #F2F2F2",
".	c #EEEEEE",
"+	c #8D8D8D",
"@	c #5D5D5D",
"#	c #797979",
"$	c #F1F1F1",
"%	c #898989",
"&	c #F0F0F0",
"*	c #909090",
"=	c #787878",
"-	c #EDF0F0",
";	c #AFDCD3",
">	c #72C9B7",
",	c #4CBDA6",
"'	c #36B59B",
")	c #B0DCD3",
"!	c #B2DDD4",
"~	c #48BBA4",
"{	c #2EB398",
"]	c #49BBA4",
"^	c #B3DED5",
"/	c #89D0C2",
"(	c #B4DED6",
"_	c #47BBA3",
":	c #53C0AA",
"<	c #EEF9F7",
"[	c #FFFFFF",
"}	c #C4EAE2",
"|	c #B0DDD4",
"1	c #72C9B8",
"2	c #74C9B8",
"3	c #4ABCA5",
"4	c #55C1AB",
"5	c #37B69C",
"6	c #F2FAF9",
"7	c #59C2AD",
"8	c #4FBFA8",
"9	c #EBF8F5",
"0	c #38B69D",
"a	c #4BBCA5",
"b	c #EFF9F7",
"c	c #4DBDA6",
"d	c #C5EAE2",
"e	c #B1DDD4",
"f	c #EEF1F0",
"g	c #B5DED6",
"h	c #88D0C1",
"i	c #F0F1F1",
"                    ",
"                    ",
"                    ",
"                    ",
"                    ",
"                    ",
"         .+@@#      ",
"        . .+@@      ",
"       $%. &*@      ",
"       $@%. &*      ",
"       $@@+. .      ",
"        =@@+.       ",
"                    ",
"                    ",
"                    ",
"                    ",
"                    ",
"                    ",
"                    ",
"                    ",
"                    ",
"      -;>,'',>)-    ",
"     !~{{{{{{{{]^   ",
"    {{{{{{{{{{{{{/  ",
"   !{{{{{{{{{{{{{{( ",
"  -]{{{{{{{{{{{{{{_-",
"  ;{{{{{{:<[[[}{{{{|",
"  1{{{{{{{:<[[[{{{{2",
"  3{{{{4{{{:<[[{{{{,",
"  5{{{{67{{{89[{{{{5",
"  5{{{{[67{{{89{{{{0",
"  a{{{{[[b4{{{:{{{{c",
"  >{{{{[[[b4{{{{{{{2",
"  ){{{{d[[[b4{{{{{{e",
"  f3{{{{{{{{{{{{{{~-",
"   ^{{{{{{{{{{{{{{g ",
"    h{{{{{{{{{{{{i  ",
"     (3{{{{{{{{3g   ",
"      f|2c55c2ef    ",
"                    ",
"                    ",
"                    "};
