/* XPM */
static char * maximizeO_xpm[] = {
"28 42 18 1",
" 	c None",
".	c #2C2C2C",
"+	c #3F3F3F",
"@	c #494949",
"#	c #434343",
"$	c #343434",
"%	c #3C3C3C",
"&	c #454545",
"*	c #3D3D3D",
"=	c #CACACA",
"-	c #4D4D4D",
";	c #6B6B6B",
">	c #4F4F4F",
",	c #393939",
"'	c #444444",
")	c #414141",
"!	c #4A4A4A",
"~	c #484848",
".......+@@@@@@#.........    ",
".....$@@@@@@@@@@+.......    ",
"....%@@@@@@@@@@@@&......    ",
"...$@@@@@@@@@@@@@@*.....    ",
"...@@@@@@@@@@@@@@@@.....    ",
"..*@@@@========@@@@-....    ",
"..@@@@@========@@@@@....    ",
"..@@@@@==;;;;==@@@@@....    ",
"..@@@@@==;;;;==@@@@@....    ",
"..@@@@@==;;;;==@@@@@....    ",
"..@@@@@==;;;;==@@@@@....    ",
"..@@@@@========@@@@@....    ",
"..+@@@@========@@@@>....    ",
"...@@@@@@@@@@@@@@@@.....    ",
"...,@@@@@@@@@@@@@@'.....    ",
"....)@@@@@@@@@@@@!......    ",
".....,@@@@@@@@@@'.......    ",
".......~@@@@@@@.........    ",
"........................    ",
"........................    ",
"........................    ",
".......+;;;;;;#.........    ",
".....$;;;;;;;;;;+.......    ",
"....%;;;;;;;;;;;;&......    ",
"...$;;;;;;;;;;;;;;*.....    ",
"...;;;;;;;;;;;;;;;;.....    ",
"..*;;;;========;;;;-....    ",
"..;;;;;========;;;;;....    ",
"..;;;;;==;;;;==;;;;;....    ",
"..;;;;;==;;;;==;;;;;....    ",
"..;;;;;==;;;;==;;;;;....    ",
"..;;;;;==;;;;==;;;;;....    ",
"..;;;;;========;;;;;....    ",
"..+;;;;========;;;;>....    ",
"...;;;;;;;;;;;;;;;;.....    ",
"...,;;;;;;;;;;;;;;'.....    ",
"....);;;;;;;;;;;;!......    ",
".....,;;;;;;;;;;'.......    ",
".......~;;;;;;;.........    ",
"........................    ",
"........................    ",
"........................    "};
