/* XPM */
static char * minimizeI_xpm[] = {
"20 42 3 1",
" 	c None",
".	c #FFFFFF",
"+	c #A6A6A6",
"....................",
"....................",
"....................",
"....................",
"....................",
"....................",
"....................",
"....................",
"......++++++++......",
"......++++++++......",
"....................",
"....................",
"....................",
"....................",
"....................",
"....................",
"....................",
"....................",
"....................",
"....................",
"....................",
"....................",
"....................",
"....................",
"....................",
"....................",
"....................",
"....................",
"....................",
"....................",
"....................",
"....................",
"....................",
"....................",
"....................",
"....................",
"....................",
"....................",
"....................",
"....................",
"....................",
"                    "};
