/* XPM */
static char * max_pressed_xpm[] = {
"16 16 29 1",
" 	c #F2F2F2",
".	c #EDF0F1",
"+	c #B1D3EA",
"@	c #76B7E3",
"#	c #51A6DF",
"$	c #3C9BDC",
"%	c #B2D3EA",
"&	c #B4D4EA",
"*	c #4DA4DE",
"=	c #3498DB",
"-	c #4EA4DE",
";	c #B6D6EB",
">	c #4CA3DE",
",	c #FFFFFF",
"'	c #C6E2F5",
")	c #B2D4EA",
"!	c #76B8E3",
"~	c #EEF7FC",
"{	c #77B8E3",
"]	c #4FA5DE",
"^	c #3D9CDC",
"/	c #ECF5FC",
"(	c #3E9DDC",
"_	c #50A5DE",
":	c #52A6DF",
"<	c #78B8E3",
"[	c #F0F7FC",
"}	c #B3D4EA",
"|	c #EEF0F1",
"                ",
"    .+@#$#@%.   ",
"   &*=======-   ",
"  &===========; ",
" .-===========>.",
" +=====,,,,'===)",
" !======~,,,==={",
" ]===,===~,,===#",
" ^===,,===,/===(",
" _===,,,===,===:",
" @===,,,,======<",
" %===',,[,=====}",
" |]===========*.",
"   ===========  ",
"   ;]=======]   ",
"    |){:^:{}|   "};
