/* XPM */
static char * closeO_xpm[] = {
"28 42 91 1",
" 	c #F2F2F2",
".	c #F0F1EF",
"+	c #D4E3CF",
"@	c #B9D6B0",
"#	c #A8CE9C",
"$	c #9EC891",
"%	c #D4E3D0",
"&	c #A6CC9A",
"*	c #9BC78D",
"=	c #A7CD9B",
"-	c #F1F1F1",
";	c #C2DABA",
">	c #C2DABB",
",	c #F1F2F1",
"'	c #C3DBBC",
")	c #DEE8DB",
"!	c #A2CB95",
"~	c #A1CA94",
"{	c #DCE7D8",
"]	c #D5E3D0",
"^	c #E3EAE0",
"/	c #A2CA95",
"(	c #E1E9DF",
"_	c #E4EBE2",
":	c #BAD6B1",
"<	c #A8CD9C",
"[	c #A5CC99",
"}	c #E6ECE4",
"|	c #E2EADF",
"1	c #E7EDE6",
"2	c #A6CC99",
"3	c #9FC991",
"4	c #A3CB97",
"5	c #E8EDE7",
"6	c #A3CB96",
"7	c #E2EAE0",
"8	c #E5ECE3",
"9	c #A4CC98",
"0	c #9FC992",
"a	c #E3EBE1",
"b	c #E1EADF",
"c	c #D5E4D0",
"d	c #D6E4D1",
"e	c #D7E5D3",
"f	c #C4DBBC",
"g	c #C3DBBB",
"h	c #F0F1F0",
"i	c #A9CE9D",
"j	c #EFF0EF",
"k	c #CBDCC9",
"l	c #A8C9A3",
"m	c #92BD8C",
"n	c #85B67F",
"o	c #CCDDC9",
"p	c #90BC8A",
"q	c #81B47A",
"r	c #F1F1F0",
"s	c #B4D0B0",
"t	c #B5D1B2",
"u	c #8FBC89",
"v	c #F2F2F1",
"w	c #D8E4D6",
"x	c #8AB984",
"y	c #89B882",
"z	c #D5E2D4",
"A	c #CCDDCA",
"B	c #DEE7DD",
"C	c #8AB983",
"D	c #DCE6DB",
"E	c #E0E8DF",
"F	c #A9CAA4",
"G	c #8EBB88",
"H	c #E2E9E1",
"I	c #DDE6DC",
"J	c #E4EBE3",
"K	c #8FBB89",
"L	c #86B77F",
"M	c #8CBA86",
"N	c #E5EBE4",
"O	c #8BB984",
"P	c #E1E9E0",
"Q	c #8DBB87",
"R	c #87B780",
"S	c #8BBA85",
"T	c #DFE7DE",
"U	c #CDDECB",
"V	c #CFDFCD",
"W	c #B6D1B2",
"X	c #B5D0B1",
"Y	c #91BD8B",
"Z	c #93BE8D",
"          .+@#$$#@%.        ",
"          &********=        ",
"        -;**********>,      ",
"        ;************'      ",
"      .=**************&.    ",
"      +**** )!**~{ ****]    ",
"      @****^ ^!/( _****:    ",
"      <****[} ^| 12****#    ",
"      3*****4_  5&*****3    ",
"      3*****67  89*****0    ",
"      <****6a __ _4****#    ",
"      @****b _44_ (****:    ",
"      %**** (4**4( ****c    ",
"       d**************e     ",
"        >************f      ",
"        ,g**********',      ",
"          =********=        ",
"          h]:i33i:ch        ",
"                            ",
"                            ",
"                            ",
"          jklmnnmloj        ",
"          pqqqqqqqqp        ",
"        rsqqqqqqqqqqs-      ",
"        sqqqqqqqqqqqqt      ",
"      jpqqqqqqqqqqqqqquj    ",
"      kqqqqvwxqqyz qqqqA    ",
"      lqqqqB BxCD EqqqqF    ",
"      mqqqqGH BI JKqqqqm    ",
"      LqqqqqME  NpqqqqqL    ",
"      LqqqqqOB  PQqqqqqR    ",
"      mqqqqST EE EMqqqqm    ",
"      lqqqqD EMME DqqqqF    ",
"      oqqqqvDMqqMD qqqqA    ",
"       UqqqqqqqqqqqqqqV     ",
"        sqqqqqqqqqqqqW      ",
"        -Xqqqqqqqqqqt-      ",
"          YqqqqqqqqY        ",
"          .AFZLLZFA.        ",
"                            ",
"                            ",
"                            "};
