/* XPM */
static char * closeA_xpm[] = {
"28 42 82 1",
" 	c #F2F2F2",
".	c #EAEEE9",
"+	c #C5DCBE",
"@	c #ACD0A0",
"#	c #9EC891",
"$	c #ABCFA0",
"%	c #C6DCBE",
"&	c #D5E3D0",
"*	c #9FC992",
"=	c #9BC78D",
"-	c #D5E4D0",
";	c #A0C993",
">	c #EBEEEA",
",	c #F0F1F0",
"'	c #D0E1CA",
")	c #9CC78E",
"!	c #CEE0C9",
"~	c #F1F2F1",
"{	c #C6DCBF",
"]	c #C7DCC0",
"^	c #D1E2CC",
"/	c #CADEC3",
"(	c #C9DDC2",
"_	c #CBDFC5",
":	c #9CC88E",
"<	c #D2E2CD",
"[	c #D4E3D0",
"}	c #9DC88F",
"|	c #D0E1CB",
"1	c #C7DDC0",
"2	c #D1E1CB",
"3	c #C4DCBD",
"4	c #C6DDBF",
"5	c #EBEFEA",
"6	c #D6E4D1",
"7	c #ACCFA0",
"8	c #9FC991",
"9	c #EFF0EF",
"0	c #CBDCC9",
"a	c #A8C9A3",
"b	c #92BD8C",
"c	c #85B67F",
"d	c #CCDDC9",
"e	c #90BC8A",
"f	c #81B47A",
"g	c #F1F1F0",
"h	c #B4D0B0",
"i	c #F1F1F1",
"j	c #B5D1B2",
"k	c #8FBC89",
"l	c #F2F2F1",
"m	c #D8E4D6",
"n	c #8AB984",
"o	c #89B882",
"p	c #D5E2D4",
"q	c #CCDDCA",
"r	c #DEE7DD",
"s	c #8AB983",
"t	c #DCE6DB",
"u	c #E0E8DF",
"v	c #A9CAA4",
"w	c #8EBB88",
"x	c #E2E9E1",
"y	c #DDE6DC",
"z	c #E4EBE3",
"A	c #8FBB89",
"B	c #86B77F",
"C	c #8CBA86",
"D	c #E5EBE4",
"E	c #8BB984",
"F	c #E1E9E0",
"G	c #8DBB87",
"H	c #87B780",
"I	c #8BBA85",
"J	c #DFE7DE",
"K	c #CDDECB",
"L	c #CFDFCD",
"M	c #B6D1B2",
"N	c #B5D0B1",
"O	c #91BD8B",
"P	c #F0F1EF",
"Q	c #93BE8D",
"                            ",
"           .+@##$%.         ",
"          &*======*-        ",
"         &==========-       ",
"        .*==;====*==*>      ",
"        +===,'))!~==={      ",
"        $===] ^^ /===$      ",
"        *====(  _====*      ",
"        *===:<  [}===*      ",
"        @===| 11 2===$      ",
"        %===.3==3.===4      ",
"        .*==========;5      ",
"         -==========6       ",
"          -*======;6        ",
"           >{788745         ",
"                            ",
"                            ",
"                            ",
"                            ",
"                            ",
"                            ",
"          90abccbad9        ",
"          effffffffe        ",
"        ghffffffffffhi      ",
"        hffffffffffffj      ",
"      9effffffffffffffk9    ",
"      0fffflmnffop ffffq    ",
"      affffr rnst uffffv    ",
"      bffffwx ry zAffffb    ",
"      BfffffCu  DefffffB    ",
"      BfffffEr  FGfffffH    ",
"      bffffIJ uu uCffffb    ",
"      afffft uCCu tffffv    ",
"      dffffltCffCt ffffq    ",
"       KffffffffffffffL     ",
"        hffffffffffffM      ",
"        iNffffffffffji      ",
"          OffffffffO        ",
"          PqvQBBQvqP        ",
"                            ",
"                            ",
"                            "};
