/* XPM */
static char * maximizeO_xpm[] = {
"20 42 45 1",
" 	c #F2F2F2",
".	c #F1F1F1",
"+	c #E4E4E4",
"@	c #D8D8D8",
"#	c #D1D1D1",
"$	c #CDCDCD",
"%	c #CBCBCB",
"&	c #DDDDDD",
"*	c #DEDEDE",
"=	c #D0D0D0",
"-	c #B4B4B4",
";	c #575757",
">	c #4C4C4C",
",	c #707070",
"'	c #E5E5E5",
")	c #D9D9D9",
"!	c #B3B3B3",
"~	c #545454",
"{	c #B1B1B1",
"]	c #B7B7B7",
"^	c #585858",
"/	c #555555",
"(	c #E6E6E6",
"_	c #F0F0F0",
":	c #9F9F9F",
"<	c #959595",
"[	c #D2D2D2",
"}	c #9E9E9E",
"|	c #919191",
"1	c #D3D3D3",
"2	c #BEBEBE",
"3	c #A4A4A4",
"4	c #F6F6F6",
"5	c #FFFFFF",
"6	c #E0E0E0",
"7	c #B2B2B2",
"8	c #A6A6A6",
"9	c #969696",
"0	c #F8F8F8",
"a	c #A7A7A7",
"b	c #A2A2A2",
"c	c #F5F5F5",
"d	c #F7F7F7",
"e	c #A0A0A0",
"f	c #D4D4D4",
"      .+@#$$#@+.    ",
"      #%%%%%%%%#    ",
"    .&%%%%%%%%%%&.  ",
"    &%%%%%%%%%%%%*  ",
"  .#%%%%%%%%%%%%%%=.",
"  +%%%%%%-;>>>,%%%%'",
"  @%%%%%%%-;>>>%%%%)",
"  #%%%%!%%%-;>>%%%%#",
"  $%%%%~{%%%]^>%%%%$",
"  $%%%%>~{%%%]^%%%%$",
"  #%%%%>>/!%%%-%%%%#",
"  @%%%%>>>/!%%%%%%%)",
"  +%%%%,>>>/!%%%%%%'",
"   '%%%%%%%%%%%%%%( ",
"    &%%%%%%%%%%%%*  ",
"    .&%%%%%%%%%%*.  ",
"      #%%%%%%%%#    ",
"       ')#$$#)'     ",
"                    ",
"                    ",
"                    ",
"                    ",
"      _#!:<<:![_    ",
"     [}||||||||:1   ",
"    |||||||||||||2  ",
"   [||||||||||||||1 ",
"  _:||||||||||||||}_",
"  #||||||345556||||[",
"  7|||||||34555||||!",
"  }||||8|||3455||||:",
"  9||||0a|||bc5||||9",
"  9||||50a|||bc||||9",
"  :||||55d8|||3||||e",
"  !||||555d8|||||||-",
"  [||||6555d8||||||1",
"  _:||||||||||||||}_",
"   1||||||||||||||f ",
"    2||||||||||||.  ",
"     1:||||||||:f   ",
"      _[!e99e!1_    ",
"                    ",
"                    "};
