/* XPM */
static char * maximizeI_xpm[] = {
"20 42 31 1",
" 	c #F2F2F2",
".	c #F0F0F0",
"+	c #C6C6C6",
"@	c #AFAFAF",
"#	c #BCBCBC",
"$	c #F1F1F1",
"%	c #C4C4C4",
"&	c #D1D1D1",
"*	c #B3B3B3",
"=	c #9F9F9F",
"-	c #959595",
";	c #D2D2D2",
">	c #9E9E9E",
",	c #919191",
"'	c #D3D3D3",
")	c #BEBEBE",
"!	c #A4A4A4",
"~	c #F6F6F6",
"{	c #FFFFFF",
"]	c #E0E0E0",
"^	c #B2B2B2",
"/	c #A6A6A6",
"(	c #969696",
"_	c #F8F8F8",
":	c #A7A7A7",
"<	c #A2A2A2",
"[	c #F5F5F5",
"}	c #F7F7F7",
"|	c #A0A0A0",
"1	c #B4B4B4",
"2	c #D4D4D4",
"                    ",
"                    ",
"                    ",
"                    ",
"                    ",
"                    ",
"         .+@@#      ",
"        . .+@@      ",
"       $%. $+@      ",
"       $@%. $+      ",
"       $@@+. .      ",
"        #@@+.       ",
"                    ",
"                    ",
"                    ",
"                    ",
"                    ",
"                    ",
"                    ",
"                    ",
"                    ",
"      .&*=--=*;.    ",
"     ;>,,,,,,,,='   ",
"    ,,,,,,,,,,,,,)  ",
"   ;,,,,,,,,,,,,,,' ",
"  .=,,,,,,,,,,,,,,>.",
"  &,,,,,,!~{{{],,,,;",
"  ^,,,,,,,!~{{{,,,,*",
"  >,,,,/,,,!~{{,,,,=",
"  (,,,,_:,,,<[{,,,,(",
"  (,,,,{_:,,,<[,,,,(",
"  =,,,,{{}/,,,!,,,,|",
"  *,,,,{{{}/,,,,,,,1",
"  ;,,,,]{{{}/,,,,,,'",
"  .=,,,,,,,,,,,,,,>.",
"   ',,,,,,,,,,,,,,2 ",
"    ),,,,,,,,,,,,$  ",
"     '=,,,,,,,,=2   ",
"      .;*|((|*'.    ",
"                    ",
"                    ",
"                    "};
