/* XPM */
static char * minimizeO_xpm[] = {
"20 42 28 1",
" 	c #F2F2F2",
".	c #E4E4E4",
"+	c #D8D8D8",
"@	c #D1D1D1",
"#	c #CDCDCD",
"$	c #E5E5E5",
"%	c #CBCBCB",
"&	c #F1F1F1",
"*	c #DDDDDD",
"=	c #DEDEDE",
"-	c #E6E6E6",
";	c #D9D9D9",
">	c #4C4C4C",
",	c #F0F0F0",
"'	c #B3B3B3",
")	c #9F9F9F",
"!	c #959595",
"~	c #D2D2D2",
"{	c #9E9E9E",
"]	c #919191",
"^	c #D3D3D3",
"/	c #BEBEBE",
"(	c #B2B2B2",
"_	c #969696",
":	c #FFFFFF",
"<	c #A0A0A0",
"[	c #B4B4B4",
"}	c #D4D4D4",
"      .+@##@+.      ",
"     $%%%%%%%%$     ",
"   &*%%%%%%%%%%*&   ",
"   *%%%%%%%%%%%%=   ",
"  $%%%%%%%%%%%%%%-  ",
" .%%%%%%%%%%%%%%%%$ ",
" +%%%%%%%%%%%%%%%%; ",
" @%%%%%%%%%%%%%%%%@ ",
" #%%%%>>>>>>>>%%%%# ",
" #%%%%>>>>>>>>%%%%# ",
" @%%%%%%%%%%%%%%%%@ ",
" +%%%%%%%%%%%%%%%%; ",
" .%%%%%%%%%%%%%%%%$ ",
"  @%%%%%%%%%%%%%%@& ",
"   *%%%%%%%%%%%%=   ",
"   &*%%%%%%%%%%=&   ",
"     -%%%%%%%%-     ",
"      $;@##@;$      ",
"                    ",
"                    ",
"                    ",
"                    ",
"     ,@')!!)'~,     ",
"    ~{]]]]]]]])^    ",
"   ]]]]]]]]]]]]]/   ",
"  ~]]]]]]]]]]]]]]^  ",
" ,)]]]]]]]]]]]]]]{, ",
" @]]]]]]]]]]]]]]]]~ ",
" (]]]]]]]]]]]]]]]]' ",
" {]]]]]]]]]]]]]]]]) ",
" _]]]]::::::::]]]]_ ",
" _]]]]::::::::]]]]_ ",
" )]]]]]]]]]]]]]]]]< ",
" ']]]]]]]]]]]]]]]][ ",
" ~]]]]]]]]]]]]]]]]^ ",
" ,)]]]]]]]]]]]]]]{, ",
"  ^]]]]]]]]]]]]]]}  ",
"   /]]]]]]]]]]]]&   ",
"    ^)]]]]]]]])}    ",
"     ,~'<__<'^,     ",
"                    ",
"                    "};
