/* XPM */
static char * restoreA_xpm[] = {
"20 42 29 1",
" 	c #F2F2F2",
".	c #EFEFEF",
"+	c #878787",
"@	c #EEEEEE",
"#	c #5D5D5D",
"$	c #797979",
"%	c #8A8A8A",
"&	c #8B8B8B",
"*	c #F0F0F0",
"=	c #D1D1D1",
"-	c #B3B3B3",
";	c #9F9F9F",
">	c #959595",
",	c #D2D2D2",
"'	c #9E9E9E",
")	c #919191",
"!	c #D3D3D3",
"~	c #BEBEBE",
"{	c #CCCCCC",
"]	c #FFFFFF",
"^	c #B2B2B2",
"/	c #C8C8C8",
"(	c #969696",
"_	c #DCDCDC",
":	c #A0A0A0",
"<	c #C4C4C4",
"[	c #B4B4B4",
"}	c #D4D4D4",
"|	c #F1F1F1",
"                    ",
"                    ",
"                    ",
"                    ",
"           .        ",
"           +@       ",
"           #+@      ",
"           ##+@     ",
"           $##%.    ",
"      .%##$         ",
"       @&##         ",
"        @&#         ",
"         @&         ",
"          .         ",
"                    ",
"                    ",
"                    ",
"                    ",
"                    ",
"                    ",
"                    ",
"      *=-;>>;-,*    ",
"     ,'))))))));!   ",
"    )))))))))))))~  ",
"   ,))))))){))))))! ",
"  *;)))))))]{)))))'*",
"  =))))))))]]{))))),",
"  ^))))))))]]]{))))-",
"  '))))))))]]]]/)));",
"  ())))))))_]]]]/))(",
"  ())/]]]]_))))))))(",
"  ;)))/]]]])))))))):",
"  -))))<]]]))))))))[",
"  ,)))))<]]))))))))!",
"  *;)))))<])))))))'*",
"   !))))))/)))))))} ",
"    ~))))))))))))|  ",
"     !;))))))));}   ",
"      *,-:((:-!*    ",
"                    ",
"                    ",
"                    "};
