/* XPM */
static char * linux_xpm[] = {
"45 18 68 1",
" 	c None",
".	c #414141",
"+	c #4C4C4C",
"@	c #404040",
"#	c #4F4F4F",
"$	c #CCCCCC",
"%	c #C3C3C3",
"&	c #C4C4C4",
"*	c #9C802B",
"=	c #E0AB0C",
"-	c #DFAA0C",
";	c #9C7F2C",
">	c #333333",
",	c #3F3F3F",
"'	c #E39C0D",
")	c #EAAF0A",
"!	c #E39B0D",
"~	c #4B4B4B",
"{	c #BB946C",
"]	c #F88A1A",
"^	c #BA946C",
"/	c #BDBDBD",
"(	c #FFFFFF",
"_	c #BCBCBC",
":	c #4A4A4A",
"<	c #565656",
"[	c #ECECEC",
"}	c #4E4E4E",
"|	c #ABABAB",
"1	c #4D4D4D",
"2	c #F0F0F0",
"3	c #EEE7D1",
"4	c #52514D",
"5	c #50504D",
"6	c #866826",
"7	c #E3AC0D",
"8	c #C1971A",
"9	c #73663F",
"0	c #E9E9E9",
"a	c #E9CA6F",
"b	c #806E39",
"c	c #857136",
"d	c #E6AE0B",
"e	c #53452B",
"f	c #DFA910",
"g	c #EAB108",
"h	c #E9B109",
"i	c #C4AB61",
"j	c #D4AD3B",
"k	c #E7B00A",
"l	c #C79819",
"m	c #BE901C",
"n	c #E9B008",
"o	c #BEAB73",
"p	c #A8A8A8",
"q	c #C99C18",
"r	c #DBA611",
"s	c #D2A213",
"t	c #484848",
"u	c #DFA90F",
"v	c #B1861F",
"w	c #795D28",
"x	c #AE8420",
"y	c #D29E15",
"z	c #BB8F1D",
"A	c #BF901C",
"B	c #E5AD0C",
"C	c #A87F22",
"                                             ",
"                     .++@                    ",
"                    .####@                   ",
"                    +$$$$+                   ",
"                    #%&%&#                   ",
"                    #*=-;#>                  ",
"                   ,#'))!#,                  ",
"                   ~#{]]^#~                  ",
"                   ##/((_##                  ",
"                  :#<[(([<#:                 ",
"                  }#|((((|#}                 ",
"                  1#2((((3456                ",
"                 7890((((abcde               ",
"                fgghi((((jkhgl               ",
"                mgggno[[pqgggm               ",
"                rggggs}}tuggv                ",
"                 wxydz   ABC                 ",
"                                             "};
