/* XPM */
static char * desktop_xpm[] = {
"20 20 253 2",
"  	c None",
". 	c #8E8A8F",
"+ 	c #A8A6A9",
"@ 	c #ADADAD",
"# 	c #ADACAD",
"$ 	c #ACACAD",
"% 	c #ABACAD",
"& 	c #AAABAC",
"* 	c #ABAAAB",
"= 	c #A9AAAB",
"- 	c #A8A9AA",
"; 	c #A5A1A6",
"> 	c #8D898E",
", 	c #8D898D",
"' 	c #F0EBF1",
") 	c #B58FB9",
"! 	c #B693BB",
"~ 	c #B994BC",
"{ 	c #B793BB",
"] 	c #B692BA",
"^ 	c #B691BA",
"/ 	c #B590B9",
"( 	c #B591BA",
"_ 	c #B38EB7",
": 	c #B38DB7",
"< 	c #B28AB6",
"[ 	c #E7E0E8",
"} 	c #8C888D",
"| 	c #8C898D",
"1 	c #E2D9E4",
"2 	c #5F0767",
"3 	c #702177",
"4 	c #691570",
"5 	c #6A1972",
"6 	c #6E1F76",
"7 	c #73277A",
"8 	c #7F3986",
"9 	c #7D3684",
"0 	c #72277A",
"a 	c #6E1D75",
"b 	c #712278",
"c 	c #823F89",
"d 	c #86438C",
"e 	c #85418B",
"f 	c #85438B",
"g 	c #620D6B",
"h 	c #DACDDB",
"i 	c #E0D8E3",
"j 	c #67136E",
"k 	c #9B66A0",
"l 	c #D5C5D7",
"m 	c #B895BC",
"n 	c #88478E",
"o 	c #8A498F",
"p 	c #9C64A1",
"q 	c #975F9D",
"r 	c #7F3A86",
"s 	c #7C3383",
"t 	c #87458D",
"u 	c #A474A9",
"v 	c #A471A8",
"w 	c #A16EA6",
"x 	c #A271A7",
"y 	c #6F2076",
"z 	c #DACCDB",
"A 	c #DFD6E2",
"B 	c #66126E",
"C 	c #A678AB",
"D 	c #FEF8F6",
"E 	c #F0EFEE",
"F 	c #9F6AA4",
"G 	c #8E4E95",
"H 	c #9B62A1",
"I 	c #935599",
"J 	c #803788",
"K 	c #833989",
"L 	c #965A9C",
"M 	c #A26BA7",
"N 	c #9F67A4",
"O 	c #9D65A2",
"P 	c #9E67A3",
"Q 	c #6F1E76",
"R 	c #D9CBDA",
"S 	c #DFD5E1",
"T 	c #67136F",
"U 	c #A777AB",
"V 	c #F0ECEA",
"W 	c #F0ECEB",
"X 	c #A371A8",
"Y 	c #97559D",
"Z 	c #9D61A3",
"` 	c #8F4A96",
" .	c #873C8E",
"..	c #894391",
"+.	c #A267A7",
"@.	c #9F65A5",
"#.	c #9E62A4",
"$.	c #9A60A1",
"%.	c #9D62A2",
"&.	c #6D1D75",
"*.	c #D8CAD9",
"=.	c #E0D4E1",
"-.	c #691371",
";.	c #A878AD",
">.	c #ECE7E4",
",.	c #ECE6E4",
"'.	c #A875AC",
").	c #9A59A1",
"!.	c #A05FA5",
"~.	c #8F4396",
"{.	c #8D4194",
"].	c #99569F",
"^.	c #A063A6",
"/.	c #9F60A5",
"(.	c #9D5EA3",
"_.	c #9A5CA1",
":.	c #9B5DA2",
"<.	c #6E1C76",
"[.	c #D6C9D7",
"}.	c #DFD3E0",
"|.	c #6D1874",
"1.	c #944A9B",
"2.	c #94489A",
"3.	c #904698",
"4.	c #944B9C",
"5.	c #9F5BA6",
"6.	c #9B55A2",
"7.	c #93469A",
"8.	c #93489A",
"9.	c #A260A8",
"0.	c #A15DA7",
"a.	c #A15CA6",
"b.	c #9C59A3",
"c.	c #9C56A2",
"d.	c #9A57A1",
"e.	c #6D1B75",
"f.	c #D5C8D6",
"g.	c #DFD2DF",
"h.	c #691472",
"i.	c #B584BA",
"j.	c #FFFFFD",
"k.	c #DCCADD",
"l.	c #A767AD",
"m.	c #A158A7",
"n.	c #9C50A3",
"o.	c #994AA0",
"p.	c #9E54A5",
"q.	c #A45CAA",
"r.	c #A05AA7",
"s.	c #A057A6",
"t.	c #9F55A4",
"u.	c #9B52A2",
"v.	c #9A52A1",
"w.	c #6D1A75",
"x.	c #D4C7D5",
"y.	c #DED1DE",
"z.	c #6C1674",
"A.	c #B682BB",
"B.	c #F3EFEE",
"C.	c #F7F2EF",
"D.	c #BA87BE",
"E.	c #A053A7",
"F.	c #9F50A6",
"G.	c #A14FA7",
"H.	c #A459AB",
"I.	c #A358AA",
"J.	c #A256A9",
"K.	c #9F54A7",
"L.	c #9E51A5",
"M.	c #9C4EA2",
"N.	c #9B4DA2",
"O.	c #6D1976",
"P.	c #D3C6D4",
"Q.	c #DDD0DD",
"R.	c #6C1675",
"S.	c #B783BB",
"T.	c #F1E9E7",
"U.	c #F0EAE7",
"V.	c #B682BC",
"W.	c #A350AA",
"X.	c #A453AC",
"Y.	c #A555AD",
"Z.	c #A657AD",
"`.	c #A554AD",
" +	c #A453AB",
".+	c #A04FA8",
"++	c #9D4DA5",
"@+	c #9A49A2",
"#+	c #9A48A2",
"$+	c #6E1876",
"%+	c #D3C5D4",
"&+	c #DCCFDC",
"*+	c #6F1977",
"=+	c #B271B8",
"-+	c #C9A9CC",
";+	c #CAAACD",
">+	c #B571BB",
",+	c #AD59B4",
"'+	c #B05BB6",
")+	c #B05BB7",
"!+	c #AF5AB6",
"~+	c #AE58B5",
"{+	c #AA55B2",
"]+	c #A651AE",
"^+	c #A34EAB",
"/+	c #9F4BA7",
"(+	c #A14BA8",
"_+	c #D2C3D3",
":+	c #D9CCDA",
"<+	c #61076A",
"[+	c #7D2785",
"}+	c #7A2082",
"|+	c #7B2184",
"1+	c #7E2887",
"2+	c #822B8A",
"3+	c #822C8A",
"4+	c #832C8B",
"5+	c #812B8A",
"6+	c #812989",
"7+	c #7F2887",
"8+	c #7C2685",
"9+	c #7C2584",
"0+	c #61086A",
"a+	c #D1C1D2",
"b+	c #E6DFE7",
"c+	c #BFA1C2",
"d+	c #C0A3C2",
"e+	c #BEA2C1",
"f+	c #BEA1C0",
"g+	c #BCA0BF",
"h+	c #BDA0BF",
"i+	c #BB9FBE",
"j+	c #BB9EBE",
"k+	c #BC9EBE",
"l+	c #BA9DBD",
"m+	c #BA9DBC",
"n+	c #B99CBC",
"o+	c #BA9CBC",
"p+	c #B99BBC",
"q+	c #B89ABB",
"r+	c #B798BA",
"s+	c #DCD1DC",
"t+	c #89858A",
"u+	c #9C989D",
"v+	c #9D9B9E",
"w+	c #9F9B9F",
"x+	c #9E9A9E",
"y+	c #9D999D",
"z+	c #9B999C",
"A+	c #9C999C",
"B+	c #9C989C",
"C+	c #9B959B",
"D+	c #888589",
"                                        ",
"                                        ",
"                                        ",
". + @ # # $ % & & * * * = = = = - - ; > ",
", ' ) ! ~ { { ] ^ / ( ] ^ _ : : : < [ } ",
"| 1 2 3 4 5 6 7 8 9 0 a b c d e f g h } ",
"| i j k l m n o p q r s t u v w x y z } ",
"| A B C D E F G H I J K L M N O P Q R } ",
", S T U V W X Y Z `  ...+.@.#.$.%.&.*.} ",
", =.-.;.>.,.'.).!.~.{.].^./.(._.:.<.[.} ",
"} }.|.1.2.3.4.5.6.7.8.9.0.a.b.c.d.e.f.} ",
"} g.h.i.j.k.l.m.n.o.p.q.r.s.t.u.v.w.x.} ",
"} y.z.A.B.C.D.E.F.G.H.I.J.K.L.M.N.O.P.} ",
"} Q.R.S.T.U.V.W.X.Y.Z.`. +.+++@+#+$+%+} ",
"} &+*+=+-+;+>+,+'+)+!+~+{+]+^+/+(+*+_+} ",
"} :+<+[+}+|+1+2+3+4+5+2+6+7+8+9+9+0+a+} ",
"} b+c+d+e+f+g+h+i+j+k+l+m+n+o+p+q+r+s+} ",
"t+u+v+v+w+v+v+x+x+x+x+x+y+z+A+B+B+y+C+D+",
"                                        ",
"                                        "};
