/* XPM */
static char * closeI_xpm[] = {
"20 42 107 2",
"  	c #222D32",
". 	c #273237",
"+ 	c #283338",
"@ 	c #5B6569",
"# 	c #5B666A",
"$ 	c #677176",
"% 	c #5B656A",
"& 	c #5D676B",
"* 	c #293439",
"= 	c #283339",
"- 	c #203A41",
"; 	c #1C5964",
"> 	c #197180",
", 	c #188394",
"' 	c #188191",
") 	c #1A6E7D",
"! 	c #1C545F",
"~ 	c #20363D",
"{ 	c #213136",
"] 	c #19626E",
"^ 	c #0F93A6",
"/ 	c #07A6BB",
"( 	c #02B2C9",
"_ 	c #00BBD3",
": 	c #00BAD2",
"< 	c #03B0C7",
"[ 	c #08A4B9",
"} 	c #1190A2",
"| 	c #1A5662",
"1 	c #222C31",
"2 	c #212D32",
"3 	c #137786",
"4 	c #04B0C6",
"5 	c #00BCD4",
"6 	c #01B9D1",
"7 	c #05AEC4",
"8 	c #156C7A",
"9 	c #212D33",
"0 	c #212C31",
"a 	c #117483",
"b 	c #01BAD2",
"c 	c #0CBFD6",
"d 	c #16C2D8",
"e 	c #01B8D0",
"f 	c #156B79",
"g 	c #185E6A",
"h 	c #02B7CF",
"i 	c #09BED5",
"j 	c #D0F3F7",
"k 	c #D3F3F8",
"l 	c #10C0D6",
"m 	c #1A5761",
"n 	c #1F3940",
"o 	c #0C9BB0",
"p 	c #FFFFFF",
"q 	c #1090A3",
"r 	c #1A5E6B",
"s 	c #15C2D8",
"t 	c #D2F3F7",
"u 	c #D7F4F8",
"v 	c #19C3D8",
"w 	c #18C2D8",
"x 	c #07A4B9",
"y 	c #1C545E",
"z 	c #167E8D",
"A 	c #02B5CC",
"B 	c #1492A4",
"C 	c #1494A6",
"D 	c #00BCD3",
"E 	c #188495",
"F 	c #15808F",
"G 	c #01B6CD",
"H 	c #02B1C8",
"I 	c #19717F",
"J 	c #04AEC5",
"K 	c #06A5BB",
"L 	c #1B5763",
"M 	c #1E3D44",
"N 	c #0B9EB3",
"O 	c #156875",
"P 	c #01B8CF",
"Q 	c #13C1D7",
"R 	c #04AFC6",
"S 	c #18606C",
"T 	c #203036",
"U 	c #0E7D8E",
"V 	c #127483",
"W 	c #203035",
"X 	c #202B30",
"Y 	c #0E7D8D",
"Z 	c #107180",
"` 	c #156775",
" .	c #0A9EB3",
"..	c #04AEC4",
"+.	c #01B5CC",
"@.	c #02B5CB",
"#.	c #04ADC3",
"$.	c #0B9BAF",
"%.	c #175A66",
"&.	c #212B30",
"*.	c #1E3C43",
"=.	c #18616D",
"-.	c #157F8E",
";.	c #1492A3",
">.	c #167C8A",
",.	c #195C68",
"'.	c #1E373E",
"                                        ",
"                                        ",
"                                        ",
"            . +             + .         ",
"          . @ # +         + # @ .       ",
"          + # $ # +     + # $ # +       ",
"            + % $ & * + % $ & =         ",
"              + # $ # # $ # +           ",
"                + # $ $ # +             ",
"                + % $ $ & *             ",
"              + # $ # # $ # +           ",
"            + % $ & = + % $ & *         ",
"          + # $ # +     + # $ # +       ",
"          . @ # +         + # @ .       ",
"            . +             + .         ",
"                                        ",
"                                        ",
"                                        ",
"                                        ",
"                                        ",
"                                        ",
"              - ; > , ' ) ! ~           ",
"          { ] ^ / ( _ : < [ } | 1       ",
"        2 3 4 : 5 5 5 5 5 5 6 7 8 9     ",
"      0 a b c d 5 5 5 5 5 5 d c e f 0   ",
"      g h i j k d 5 5 5 5 d k j l 7 m   ",
"    n o _ d k p k d 5 5 d k p k d 6 q ~ ",
"    r 7 5 5 s t p u v s t p u w 5 5 x y ",
"    z A 5 5 5 d k p k k p k d 5 5 5 < ) ",
"    B _ 5 5 5 5 d k p p k d 5 5 5 5 : ' ",
"    C D 5 5 5 5 s t p p u v 5 5 5 5 5 E ",
"    F G 5 5 5 d k p k k p k d 5 5 5 H I ",
"    ] J 5 5 s t p u w s t p u v 5 5 K L ",
"    M N _ d k p k d 5 5 d k p k d : ^ n ",
"    0 O P Q j k d 5 5 5 5 d k j Q R S 2 ",
"      T U 5 Q d 5 5 5 5 5 5 d Q b V W   ",
"      0 X Y P _ 5 5 5 5 5 5 _ h Z X 0   ",
"        0 W `  ...+.D _ @.#.$.%.&.0     ",
"          1 0 *.=.-.C ;.>.,.'.0 1       ",
"                                        ",
"                                        ",
"                                        "};
