/* XPM */
static char * closeO_xpm[] = {
"28 42 94 2",
"  	c None",
". 	c #14161B",
"+ 	c #602F35",
"@ 	c #A6464C",
"# 	c #D2545B",
"$ 	c #EA5D64",
"% 	c #5F2F35",
"& 	c #D6565D",
"* 	c #F46067",
"= 	c #8F3F45",
"- 	c #8E3E44",
"; 	c #8C3E43",
"> 	c #D7575D",
", 	c #15161B",
"' 	c #47272D",
") 	c #E25A61",
"! 	c #E45B62",
"~ 	c #4C282E",
"{ 	c #5E2F34",
"] 	c #3B2328",
"^ 	c #E35A61",
"/ 	c #3E2429",
"( 	c #372227",
"_ 	c #A4464C",
": 	c #D3555C",
"< 	c #DB575F",
"[ 	c #332126",
"} 	c #3C2329",
"| 	c #301F25",
"1 	c #D8575D",
"2 	c #EA5C63",
"3 	c #DF5960",
"4 	c #382128",
"5 	c #2F1E24",
"6 	c #E15A60",
"7 	c #352126",
"8 	c #DD585F",
"9 	c #E85C62",
"0 	c #E05960",
"a 	c #3A2227",
"b 	c #40252A",
"c 	c #5D2F34",
"d 	c #5C2E33",
"e 	c #5A2D33",
"f 	c #8B3D44",
"g 	c #8D3E44",
"h 	c #D5555C",
"i 	c #D1545B",
"j 	c #5F2125",
"k 	c #A4282E",
"l 	c #CF2D34",
"m 	c #E82F38",
"n 	c #5E2125",
"o 	c #5B2225",
"p 	c #D42D35",
"q 	c #F13039",
"r 	c #D32D35",
"s 	c #5B2124",
"t 	c #8A262B",
"u 	c #5A2125",
"v 	c #D52D35",
"w 	c #1A1A1A",
"x 	c #471F22",
"y 	c #DF2E36",
"z 	c #E12F37",
"A 	c #4B1F22",
"B 	c #5D2125",
"C 	c #3B1E20",
"D 	c #E02E37",
"E 	c #3D1E21",
"F 	c #371E20",
"G 	c #A2282F",
"H 	c #D02D35",
"I 	c #D92E36",
"J 	c #331D1F",
"K 	c #2F1D1F",
"L 	c #D62D35",
"M 	c #E72F37",
"N 	c #DC2D37",
"O 	c #381E20",
"P 	c #2E1D1F",
"Q 	c #DE2E36",
"R 	c #3B1D20",
"S 	c #351D1F",
"T 	c #DA2E36",
"U 	c #E52E37",
"V 	c #DD2E36",
"W 	c #3A1E20",
"X 	c #3F1E21",
"Y 	c #5C2125",
"Z 	c #D22D35",
"` 	c #592125",
" .	c #8B262B",
"..	c #CE2C34",
". . . . . . . . . . . + @ # $ $ # @ % . . . . . . . . . ",
". . . . . . . . . . & * * * * * * * * & . . . . . . . . ",
". . . . . . . . . = * * * * * * * * * * - . . . . . . . ",
". . . . . . . . = * * * * * * * * * * * * ; . . . . . . ",
". . . . . . . & * * * * * * * * * * * * * * > . . . . . ",
". . . . . . + * * * * , ' ) * * ! ~ . * * * * { . . . . ",
". . . . . . @ * * * * ] . ] ) ^ / . ( * * * * _ . . . . ",
". . . . . . : * * * * < [ . ] } . | 1 * * * * # . . . . ",
". . . . . . 2 * * * * * 3 4 . . 5 & * * * * * 2 . . . . ",
". . . . . . 2 * * * * * 6 ] . . 7 8 * * * * * 9 . . . . ",
". . . . . . : * * * * 0 a . ( ( . ( 3 * * * * # . . . . ",
". . . . . . @ * * * * b . ( 3 3 ( . / * * * * _ . . . . ",
". . . . . . % * * * * , / 3 * * 3 / . * * * * c . . . . ",
". . . . . . . d * * * * * * * * * * * * * * e . . . . . ",
". . . . . . . . - * * * * * * * * * * * * f . . . . . . ",
". . . . . . . . . g * * * * * * * * * * ; . . . . . . . ",
". . . . . . . . . . h * * * * * * * * h . . . . . . . . ",
". . . . . . . . . . . { _ i 2 2 i _ c . . . . . . . . . ",
". . . . . . . . . . . . . . . . . . . . . . . . . . . . ",
". . . . . . . . . . . . . . . . . . . . . . . . . . . . ",
". . . . . . . . . . . . . . . . . . . . . . . . . . . . ",
". . . . . . . . . . . j k l m m l k n . . . . . . . . . ",
". . . . . . . . . o p q q q q q q q q r s . . . . . . . ",
". . . . . . . . q q q q q q q q q q q q q t . . . . . . ",
". . . . . . . o q q q q q q q q q q q q q q u . . . . . ",
". . . . . . . r q q q q q q q q q q q q q q v . . . . . ",
". . . . . . j q q q q w x y q q z A w q q q q B . . . . ",
". . . . . . k q q q q C w C y D E w F q q q q G . . . . ",
". . . . . . H q q q q I J w C C w K L q q q q l . . . . ",
". . . . . . M q q q q q N O w w P p q q q q q M . . . . ",
". . . . . . M q q q q q Q R w w S T q q q q q U . . . . ",
". . . . . . H q q q q V W w F F w F N q q q q l . . . . ",
". . . . . . k q q q q X w F N N F w E q q q q G . . . . ",
". . . . . . n q q q q w E N q q N E w q q q q Y . . . . ",
". . . . . . . Z q q q q q q q q q q q q q q p . . . . . ",
". . . . . . . s q q q q q q q q q q q q q q ` . . . . . ",
". . . . . . . .  .q q q q q q q q q q q q . . . . . . . ",
". . . . . . . . . u Z q q q q q q q q Z ` . . . . . . . ",
". . . . . . . . . . . B G ..M M ..G Y . . . . . . . . . ",
". . . . . . . . . . . . . . . . . . . . . . . . . . . . ",
"    . . . . . . . . . . . . . . . . . . . . . . . . . . ",
"    . . . . . . . . . . . . . . . . . . . . . . . . . . "};
