/* XPM */
static char * maximizeA_xpm[] = {
"20 42 44 1",
" 	c #14161B",
".	c #63686B",
"+	c #888C90",
"@	c #72757A",
"#	c #666A6E",
"$	c #606468",
"%	c #73767B",
"&	c #15191F",
"*	c #1F425D",
"=	c #296B98",
"-	c #2F84BE",
";	c #3392D3",
">	c #1F425C",
",	c #1E4059",
"'	c #3087C2",
")	c #3498DB",
"!	c #3086C1",
"~	c #1F4058",
"{	c #255C82",
"]	c #1E3F58",
"^	c #58AAE1",
"/	c #EEF7FC",
"(	c #FFFFFF",
"_	c #C6E2F5",
":	c #1E425B",
"<	c #296C98",
"[	c #286A97",
"}	c #2F85BF",
"|	c #5AABE2",
"1	c #3392D2",
"2	c #F2F9FD",
"3	c #5DADE2",
"4	c #54A8E1",
"5	c #ECF5FC",
"6	c #3291D0",
"7	c #F0F7FC",
"8	c #2F83BD",
"9	c #286996",
"0	c #1E415A",
"a	c #15191E",
"b	c #3086C0",
"c	c #1E3E57",
"d	c #255C83",
"e	c #14171D",
"                    ",
"                    ",
"                    ",
"                    ",
"                    ",
"                    ",
"          .++@      ",
"           .++      ",
"        #   $+      ",
"        +#   $      ",
"        ++.         ",
"        %++.        ",
"                    ",
"                    ",
"                    ",
"                    ",
"                    ",
"                    ",
"                    ",
"                    ",
"                    ",
"      &*=-;;-=>&    ",
"     ,'))))))))!~   ",
"    ))))))))))))){  ",
"   ,))))))))))))))] ",
"  &!))))))))))))))'&",
"  *))))))^/(((_)))):",
"  <)))))))^/((())))[",
"  }))))|)))^/(())))-",
"  1))))23)))45())))1",
"  1))))(23)))45))))6",
"  -))))((7|)))^))))8",
"  =))))(((7|)))))))9",
"  >))))_(((7|))))))0",
"  ab))))))))))))))'&",
"   ~))))))))))))))c ",
"    d))))))))))))e  ",
"     ]b))))))))bc   ",
"      a:[8118[0a    ",
"                    ",
"                    ",
"                    "};
