/* XPM */
static char * minimizeO_xpm[] = {
"20 42 35 1",
" 	c #14161B",
".	c #2A2A2A",
"+	c #383838",
"@	c #424242",
"#	c #474747",
"$	c #292929",
"%	c #494949",
"&	c #343434",
"*	c #282828",
"=	c #393939",
"-	c #434343",
";	c #B0B0B0",
">	c #5C5C5C",
",	c #999999",
"'	c #C0C0C0",
")	c #D5D5D5",
"!	c #989898",
"~	c #595959",
"{	c #C2C2C2",
"]	c #DDDDDD",
"^	c #C1C1C1",
"/	c #575757",
"(	c #838383",
"_	c #C4C4C4",
":	c #5B5B5B",
"<	c #979797",
"[	c #1A1A1A",
"}	c #D4D4D4",
"|	c #D2D2D2",
"1	c #969696",
"2	c #5A5A5A",
"3	c #DCDCDC",
"4	c #565656",
"5	c #BFBFBF",
"6	c #BEBEBE",
"      .+@##@+.      ",
"     $%%%%%%%%$     ",
"    &%%%%%%%%%%&    ",
"   &%%%%%%%%%%%%&   ",
"  $%%%%%%%%%%%%%%*  ",
" .%%%%%%%%%%%%%%%%. ",
" =%%%%%%%%%%%%%%%%+ ",
" -%%%%%%%%%%%%%%%%@ ",
" #%%%%;;;;;;;;%%%%# ",
" #%%%%;;;;;;;;%%%%# ",
" @%%%%%%%%%%%%%%%%@ ",
" +%%%%%%%%%%%%%%%%+ ",
" .%%%%%%%%%%%%%%%%$ ",
"  -%%%%%%%%%%%%%%-  ",
"   &%%%%%%%%%%%%&   ",
"    &%%%%%%%%%%&    ",
"     *%%%%%%%%*     ",
"      .+@##@+$      ",
"                    ",
"                    ",
"                    ",
"                    ",
"      >,'))'!>      ",
"    ~{]]]]]]]]^/    ",
"   ]]]]]]]]]]]]](   ",
"  ~]]]]]]]]]]]]]]/  ",
"  {]]]]]]]]]]]]]]_  ",
" >]]]]]]]]]]]]]]]]: ",
" ,]]]]]]]]]]]]]]]]< ",
" ^]]]]]]]]]]]]]]]]' ",
" )]]]][[[[[[[[]]]]} ",
" }]]]][[[[[[[[]]]]| ",
" ^]]]]]]]]]]]]]]]]' ",
" !]]]]]]]]]]]]]]]]1 ",
" >]]]]]]]]]]]]]]]]2 ",
"  ^]]]]]]]]]]]]]]^  ",
"  /]]]]]]]]]]]]]34  ",
"   (]]]]]]]]]]]3    ",
"    /^]]]]]]]]^4    ",
"      :!5))6<2      ",
"                    ",
"                    "};
