/* XPM */
static char * restoreI_xpm[] = {
"20 42 35 1",
" 	c #14161B",
".	c #4B4B4D",
"+	c #606060",
"@	c #515152",
"#	c #494A4B",
"$	c #48494A",
"%	c #15191F",
"&	c #1F425D",
"*	c #296B98",
"=	c #2F84BE",
"-	c #3392D3",
";	c #1F425C",
">	c #1E4059",
",	c #3087C2",
"'	c #3498DB",
")	c #3086C1",
"!	c #1F4058",
"~	c #255C82",
"{	c #C6E2F5",
"]	c #1E3F58",
"^	c #FFFFFF",
"/	c #1E425B",
"(	c #296C98",
"_	c #286A97",
":	c #2F85BF",
"<	c #3392D2",
"[	c #3291D0",
"}	c #2F83BD",
"|	c #286996",
"1	c #1E415A",
"2	c #15191E",
"3	c #3086C0",
"4	c #1E3E57",
"5	c #255C83",
"6	c #14171D",
"                    ",
"                    ",
"                    ",
"                    ",
"                    ",
"           .        ",
"           +.       ",
"           ++.      ",
"           @++#     ",
"       #++@         ",
"        $++         ",
"         $+         ",
"          $         ",
"                    ",
"                    ",
"                    ",
"                    ",
"                    ",
"                    ",
"                    ",
"                    ",
"      %&*=--=*;%    ",
"     >,'''''''')!   ",
"    '''''''''''''~  ",
"   >'''''''{''''''] ",
"  %)'''''''^{''''',%",
"  &''''''''^^{'''''/",
"  (''''''''^^^{''''_",
"  :''''''''^^^^{'''=",
"  <''''''''{^^^^{''<",
"  <''{^^^^{''''''''[",
"  ='''{^^^^''''''''}",
"  *''''{^^^''''''''|",
"  ;'''''{^^''''''''1",
"  23'''''{^''''''',%",
"   !''''''{'''''''4 ",
"    5''''''''''''6  ",
"     ]3''''''''34   ",
"      2/_}<<}_12    ",
"                    ",
"                    ",
"                    "};
