/* XPM */
static char * restoreA_xpm[] = {
"20 42 32 1",
" 	c #14161B",
".	c #6A6C70",
"+	c #8C8E92",
"@	c #75777A",
"#	c #676B6D",
"$	c #66696C",
"%	c #1F425D",
"&	c #296B98",
"*	c #2F84BE",
"=	c #3392D3",
"-	c #1F425C",
";	c #1E4059",
">	c #3087C2",
",	c #3498DB",
"'	c #3086C1",
")	c #1F4058",
"!	c #255C82",
"~	c #C6E2F5",
"{	c #1E3F58",
"]	c #FFFFFF",
"^	c #1E425B",
"/	c #296C98",
"(	c #286A97",
"_	c #2F85BF",
":	c #3392D2",
"<	c #3291D0",
"[	c #2F83BD",
"}	c #286996",
"|	c #1E415A",
"1	c #3086C0",
"2	c #1E3E57",
"3	c #255C83",
"                    ",
"                    ",
"                    ",
"                    ",
"                    ",
"           .        ",
"           +.       ",
"           ++.      ",
"           @++#     ",
"       #++@         ",
"        $++         ",
"         $+         ",
"          $         ",
"                    ",
"                    ",
"                    ",
"                    ",
"                    ",
"                    ",
"                    ",
"                    ",
"       %&*==*&-     ",
"     ;>,,,,,,,,')   ",
"    ,,,,,,,,,,,,,!  ",
"   ;,,,,,,,~,,,,,,{ ",
"   ',,,,,,,]~,,,,,> ",
"  %,,,,,,,,]]~,,,,,^",
"  /,,,,,,,,]]]~,,,,(",
"  _,,,,,,,,]]]]~,,,*",
"  :,,,,,,,,~]]]]~,,:",
"  :,,~]]]]~,,,,,,,,<",
"  *,,,~]]]],,,,,,,,[",
"  &,,,,~]]],,,,,,,,}",
"  -,,,,,~]],,,,,,,,|",
"   1,,,,,~],,,,,,,> ",
"   ),,,,,,~,,,,,,,2 ",
"    3,,,,,,,,,,,,   ",
"     {1,,,,,,,,12   ",
"       ^([::[(|     ",
"                    ",
"                    ",
"                    "};
