/* XPM */
static char * closeI_xpm[] = {
"28 42 57 1",
" 	c #2F2F2F",
".	c #2B2B2B",
"+	c #353535",
"@	c #434343",
"#	c #4C4C4C",
"$	c #505050",
"%	c #363636",
"&	c #313131",
"*	c #484848",
"=	c #525252",
"-	c #494949",
";	c #4F4F4F",
">	c #535353",
",	c #A0A0A0",
"'	c #676767",
")	c #A1A1A1",
"!	c #AFAFAF",
"~	c #686868",
"{	c #424242",
"]	c #303030",
"^	c #34423F",
"/	c #40615A",
"(	c #49766D",
"_	c #4D7F75",
":	c #49756C",
"<	c #406059",
"[	c #354340",
"}	c #313937",
"|	c #456D65",
"1	c #4E8378",
"2	c #466E65",
"3	c #303836",
"4	c #34413E",
"5	c #4C7D73",
"6	c #34403E",
"7	c #4B7D73",
"8	c #303736",
"9	c #456D64",
"0	c #4F8379",
"a	c #CDDBD8",
"b	c #719B92",
"c	c #709B92",
"d	c #344240",
"e	c #41615A",
"f	c #6F9A91",
"g	c #E6EDEB",
"h	c #739D94",
"i	c #4C7F74",
"j	c #E5ECEB",
"k	c #4C7E73",
"l	c #729C94",
"m	c #48756C",
"n	c #3F5F59",
"o	c #CDDCD9",
"p	c #456C64",
"q	c #2F3635",
"r	c #4B7C72",
"                            ",
"       .....+@#$$#@%.....   ",
"       ...&*========-&...   ",
"       ..+$==========$+..   ",
"       .&$============;&.   ",
"       .*===>======>===*.   ",
"       +===>,'====')>===%   ",
"       @===='!~=='!~===={   ",
"       #====='!~'!~=====#   ",
"       $======'!!'======$   ",
"       $======'!!'======;   ",
"       #====='!~'!~=====#   ",
"       @===='!~=='!~===={   ",
"       %===>,'====',>===+   ",
"       .*===>======>===-.   ",
"       .];============;&.   ",
"       ..+;==========;+..   ",
"       ...&*========*&...   ",
"       .....%{#$$#{+.....   ",
"                            ",
"                            ",
"                            ",
"       .....^/(__:<[.....   ",
"       ...}|1111111123...   ",
"       ..45111111111156..   ",
"       .}511111111111178.   ",
"       .911101111110111|.   ",
"       ^1110ab1111ca0111d   ",
"       e1111fgh11fgh1111<   ",
"       (11111fghfgh11111:   ",
"       i111111cjjb111111i   ",
"       i111111cjjb111111k   ",
"       (11111fglfgh11111m   ",
"       /1111fgl11fgh1111n   ",
"       [1110ob1111ca0111^   ",
"       .p111011111101112.   ",
"       .qr11111111111178.   ",
"       ..67111111111176..   ",
"       ...3|1111111198...   ",
"       .....d<miim<^.....   ",
"                            ",
"                            "};
