/* XPM */
static char * closeO_xpm[] = {
"28 42 75 1",
" 	c #2F2F2F",
".	c #2B2B2B",
"+	c #3C524D",
"@	c #538379",
"#	c #63A598",
"$	c #6AB5A6",
"%	c #63A597",
"&	c #538278",
"*	c #3D524E",
"=	c #35413E",
"-	c #5C988B",
";	c #6DBBAB",
">	c #5D988C",
",	c #35403E",
"'	c #3B4E4B",
")	c #69B2A3",
"!	c #3B4E4A",
"~	c #68B1A2",
"{	c #343F3D",
"]	c #5C968A",
"^	c #6EBBAB",
"/	c #D6EBE7",
"(	c #8AC8BB",
"_	c #3D514D",
":	c #54837A",
"<	c #88C8BB",
"[	c #EAF5F2",
"}	c #8BC9BC",
"|	c #528178",
"1	c #6AB4A5",
"2	c #E9F4F2",
"3	c #69B3A4",
"4	c #62A497",
"5	c #528077",
"6	c #3C504C",
"7	c #333D3B",
"8	c #67AFA1",
"9	c #5D978B",
"0	c #34423F",
"a	c #40615A",
"b	c #49766D",
"c	c #4D7F75",
"d	c #49756C",
"e	c #406059",
"f	c #354340",
"g	c #313937",
"h	c #456D65",
"i	c #4E8378",
"j	c #466E65",
"k	c #303836",
"l	c #34413E",
"m	c #4C7D73",
"n	c #34403E",
"o	c #4B7D73",
"p	c #303736",
"q	c #456D64",
"r	c #4F8379",
"s	c #CDDBD8",
"t	c #719B92",
"u	c #709B92",
"v	c #344240",
"w	c #41615A",
"x	c #6F9A91",
"y	c #E6EDEB",
"z	c #739D94",
"A	c #4C7F74",
"B	c #E5ECEB",
"C	c #4C7E73",
"D	c #729C94",
"E	c #48756C",
"F	c #3F5F59",
"G	c #CDDCD9",
"H	c #456C64",
"I	c #2F3635",
"J	c #4B7C72",
"                            ",
"       .....+@#$$%&*.....   ",
"       ...=-;;;;;;;;>,...   ",
"       ..');;;;;;;;;;)!..   ",
"       .=);;;;;;;;;;;;~{.   ",
"       .];;;^;;;;;;^;;;-.   ",
"       +;;;^/(;;;;(/^;;;_   ",
"       :;;;;<[};;<[};;;;|   ",
"       #;;;;;<[}<[};;;;;%   ",
"       1;;;;;;([[(;;;;;;1   ",
"       1;;;;;;(22(;;;;;;3   ",
"       #;;;;;<[}<[};;;;;4   ",
"       @;;;;<[};;<[};;;;5   ",
"       *;;;^/(;;;;(/^;;;6   ",
"       .];;;^;;;;;;^;;;>.   ",
"       .78;;;;;;;;;;;;~{.   ",
"       ..!~;;;;;;;;;;~!..   ",
"       ...,9;;;;;;;;]{...   ",
"       ....._|4114|6.....   ",
"                            ",
"                            ",
"                            ",
"       .....0abccdef.....   ",
"       ...ghiiiiiiiijk...   ",
"       ..lmiiiiiiiiiimn..   ",
"       .gmiiiiiiiiiiiiop.   ",
"       .qiiiriiiiiiriiih.   ",
"       0iiirstiiiiusriiiv   ",
"       wiiiixyziixyziiiie   ",
"       biiiiixyzxyziiiiid   ",
"       AiiiiiiuBBtiiiiiiA   ",
"       AiiiiiiuBBtiiiiiiC   ",
"       biiiiixyDxyziiiiiE   ",
"       aiiiixyDiixyziiiiF   ",
"       fiiirGtiiiiusriii0   ",
"       .Hiiiriiiiiiriiij.   ",
"       .IJiiiiiiiiiiiiop.   ",
"       ..noiiiiiiiiiion..   ",
"       ...khiiiiiiiiqp...   ",
"       .....veEAAEe0.....   ",
"                            ",
"                            "};
