/* XPM */
static char * closeA_xpm[] = {
"28 42 73 1",
" 	c #2F2F2F",
".	c #2B2B2B",
"+	c #374945",
"@	c #467067",
"#	c #518B7F",
"$	c #55978A",
"%	c #508B7F",
"&	c #466F67",
"*	c #374A46",
"=	c #323C3A",
"-	c #4C8075",
";	c #579C8E",
">	c #4D8076",
",	c #364744",
"'	c #549588",
")	c #364643",
"!	c #549487",
"~	c #313B39",
"{	c #4C7F75",
"]	c #589C8E",
"^	c #D0E3DF",
"/	c #78AFA4",
"(	c #467068",
"_	c #77AFA3",
":	c #E7F0EE",
"<	c #7AB1A5",
"[	c #456F66",
"}	c #559789",
"|	c #E6F0EE",
"1	c #79B0A5",
"2	c #508A7E",
"3	c #456E66",
"4	c #374845",
"5	c #4B7F74",
"6	c #303937",
"7	c #539386",
"8	c #34423F",
"9	c #40615A",
"0	c #49766D",
"a	c #4D7F75",
"b	c #49756C",
"c	c #406059",
"d	c #354340",
"e	c #313937",
"f	c #456D65",
"g	c #4E8378",
"h	c #466E65",
"i	c #303836",
"j	c #34413E",
"k	c #4C7D73",
"l	c #34403E",
"m	c #4B7D73",
"n	c #303736",
"o	c #456D64",
"p	c #4F8379",
"q	c #CDDBD8",
"r	c #719B92",
"s	c #709B92",
"t	c #344240",
"u	c #41615A",
"v	c #6F9A91",
"w	c #E6EDEB",
"x	c #739D94",
"y	c #4C7F74",
"z	c #E5ECEB",
"A	c #4C7E73",
"B	c #729C94",
"C	c #48756C",
"D	c #3F5F59",
"E	c #CDDCD9",
"F	c #456C64",
"G	c #2F3635",
"H	c #4B7C72",
"                            ",
"       .....+@#$$%&*.....   ",
"       ...=-;;;;;;;;>=...   ",
"       ..,';;;;;;;;;;')..   ",
"       .=';;;;;;;;;;;;!~.   ",
"       .{;;;];;;;;;];;;-.   ",
"       +;;;]^/;;;;/^];;;+   ",
"       (;;;;_:<;;_:<;;;;[   ",
"       #;;;;;_:<_:<;;;;;%   ",
"       };;;;;;/::/;;;;;;}   ",
"       };;;;;;/||/;;;;;;'   ",
"       #;;;;;_:1_:<;;;;;2   ",
"       @;;;;_:1;;_:<;;;;3   ",
"       *;;;]^/;;;;/^];;;4   ",
"       .5;;;];;;;;;];;;>.   ",
"       .67;;;;;;;;;;;;!~.   ",
"       ..)!;;;;;;;;;;!)..   ",
"       ...=-;;;;;;;;{~...   ",
"       .....+[2}}2[4.....   ",
"                            ",
"                            ",
"                            ",
"       .....890aabcd.....   ",
"       ...efgggggggghi...   ",
"       ..jkggggggggggkl..   ",
"       .ekggggggggggggmn.   ",
"       .ogggpggggggpgggf.   ",
"       8gggpqrggggsqpgggt   ",
"       uggggvwxggvwxggggc   ",
"       0gggggvwxvwxgggggb   ",
"       yggggggszzrggggggy   ",
"       yggggggszzrggggggA   ",
"       0gggggvwBvwxgggggC   ",
"       9ggggvwBggvwxggggD   ",
"       dgggpErggggsqpggg8   ",
"       .Fgggpggggggpgggh.   ",
"       .GHggggggggggggmn.   ",
"       ..lmggggggggggml..   ",
"       ...ifggggggggon...   ",
"       .....tcCyyCc8.....   ",
"                            ",
"                            "};
