/* XPM */
static char * minimizeA_xpm[] = {
"20 42 119 2",
"  	c #101013",
". 	c #232012",
"+ 	c #84710D",
"@ 	c #D0B00C",
"# 	c #EBC40F",
"$ 	c #EBC210",
"% 	c #CFAC0F",
"& 	c #83700D",
"* 	c #584D0F",
"= 	c #E8CB0B",
"- 	c #F8DA11",
"; 	c #FBD715",
"> 	c #FCD118",
", 	c #FCCC1B",
"' 	c #FDC71D",
") 	c #FCC21E",
"! 	c #EABB14",
"~ 	c #574C0F",
"{ 	c #F1DA0A",
"] 	c #F9E10F",
"^ 	c #FADC12",
"/ 	c #FCD218",
"( 	c #FCCC1A",
"_ 	c #FEC220",
": 	c #FFBD23",
"< 	c #F5BE19",
"[ 	c #E8D008",
"} 	c #F9E70C",
"| 	c #F9E20F",
"1 	c #FCCD1A",
"2 	c #FFBB24",
"3 	c #EAB914",
"4 	c #221F11",
"5 	c #84710C",
"6 	c #F6E908",
"7 	c #FADD12",
"8 	c #FCD217",
"9 	c #FDC81D",
"0 	c #FDBC22",
"a 	c #826E0D",
"b 	c #D0B908",
"c 	c #F8EC09",
"d 	c #FBD814",
"e 	c #FEC320",
"f 	c #D0A811",
"g 	c #E7D307",
"h 	c #F8ED09",
"i 	c #FADD11",
"j 	c #FCD317",
"k 	c #FFBE23",
"l 	c #EBBA14",
"m 	c #F9E80C",
"n 	c #F9E20E",
"o 	c #FCCE1A",
"p 	c #FFBE22",
"q 	c #CFB908",
"r 	c #F8E80C",
"s 	c #F9E30E",
"t 	c #FDC91D",
"u 	c #FEC31F",
"v 	c #83710C",
"w 	c #F6EA08",
"x 	c #F8E80B",
"y 	c #FADE11",
"z 	c #FBD317",
"A 	c #FDC91C",
"B 	c #FEC41F",
"C 	c #FDBC21",
"D 	c #816D0D",
"E 	c #E7D008",
"F 	c #FBD914",
"G 	c #FEBF22",
"H 	c #E9BA14",
"I 	c #211E12",
"J 	c #F1DB09",
"K 	c #FBD417",
"L 	c #FCCE19",
"M 	c #F5BD19",
"N 	c #564A0F",
"O 	c #E7CB0A",
"P 	c #F8DC10",
"Q 	c #FBD416",
"R 	c #FCCF19",
"S 	c #FCC41D",
"T 	c #E9BB13",
"U 	c #826F0D",
"V 	c #CEB10C",
"W 	c #E9C60E",
"X 	c #EAC40F",
"Y 	c #CEAC0E",
"Z 	c #221D12",
"` 	c #7E5E12",
" .	c #C9971D",
"..	c #E4AC21",
"+.	c #C8971D",
"@.	c #7D5E12",
"#.	c #554112",
"$.	c #E3AC21",
"%.	c #F8C334",
"&.	c #FAC536",
"*.	c #E3AB21",
"=.	c #544012",
"-.	c #EEB729",
";.	c #E2AB21",
">.	c #211C12",
",.	c #F8C333",
"'.	c #7C5D12",
").	c #C9971B",
"!.	c #C8961C",
"~.	c #E4AD22",
"{.	c #D9A12B",
"].	c #BF8422",
"^.	c #C9961C",
"/.	c #F7C233",
"(.	c #7B5C12",
"_.	c #E1AA20",
":.	c #201B13",
"<.	c #EEB628",
"[.	c #523F12",
"                                        ",
"                                        ",
"                                        ",
"            . + @ # $ % & .             ",
"          * = - ; > , ' ) ! ~           ",
"        * { ] ^ ; / ( ' _ : < ~         ",
"      . [ } | ^ ; / 1 ' _ : 2 3 4       ",
"      5 6 } | 7 ; 8 1 9 _ : 2 0 a       ",
"      b c } | 7 d 8 1 9 e : 2 2 f       ",
"      g h } | i d j 1 9 e k 2 2 l       ",
"      g h m n i d j o 9 e p 2 2 3       ",
"      q h r s i d j o t u p 2 2 f       ",
"      v w x s y d z o A B p 2 C D       ",
"      . E x s y F z o A B G 2 H I       ",
"        ~ J s y F K L A B G M N         ",
"          ~ O P F Q R A S T N           ",
"            4 U V W X Y D I             ",
"                                        ",
"                                        ",
"                                        ",
"                                        ",
"                                        ",
"                                        ",
"                                        ",
"            Z `  .....+.@.Z             ",
"          #.$.%.&.&.&.&.%.*.=.          ",
"        #.-.&.&.&.&.&.&.&.&.-.=.        ",
"      Z $.&.&.&.&.&.&.&.&.&.&.;.>.      ",
"      ` %.&.&.&.&.&.&.&.&.&.&.,.'.      ",
"      ).&.&.&.&.&.&.&.&.&.&.&.&.!.      ",
"      ~.&.{.].].].].].].].].{.&.*.      ",
"      $.&.{.].].].].].].].].{.&.;.      ",
"      ^.&.&.&.&.&.&.&.&.&.&.&.&.!.      ",
"      @.%.&.&.&.&.&.&.&.&.&.&./.(.      ",
"      Z *.&.&.&.&.&.&.&.&.&.&._.:.      ",
"        =.-.&.&.&.&.&.&.&.&.<.[.        ",
"          =.;.,.&.&.&.&./._.[.          ",
"            >.'.!.$.$.!.(.:.            ",
"                                        ",
"                                        ",
"                                        ",
"                                        "};
