/* XPM */
static char * minimizeI_xpm[] = {
"20 42 39 1",
" 	c #101013",
".	c #121214",
"+	c #1B1B1E",
"@	c #222225",
"#	c #242427",
"$	c #17171A",
"%	c #252528",
"&	c #1B1B1D",
"*	c #212125",
"=	c #121215",
"-	c #221D12",
";	c #7E5E12",
">	c #C9971D",
",	c #E4AC21",
"'	c #C8971D",
")	c #7D5E12",
"!	c #554112",
"~	c #E3AC21",
"{	c #F8C334",
"]	c #FAC536",
"^	c #E3AB21",
"/	c #544012",
"(	c #EEB729",
"_	c #E2AB21",
":	c #211C12",
"<	c #F8C333",
"[	c #7C5D12",
"}	c #C9971B",
"|	c #C8961C",
"1	c #E4AD22",
"2	c #D9A12B",
"3	c #BF8422",
"4	c #C9961C",
"5	c #F7C233",
"6	c #7B5C12",
"7	c #E1AA20",
"8	c #201B13",
"9	c #EEB628",
"0	c #523F12",
"                    ",
"                    ",
"                    ",
"      .+@##@+.      ",
"     $#%%%%%%#$     ",
"    $%%%%%%%%%%$    ",
"   .#%%%%%%%%%%#.   ",
"   +%%%%%%%%%%%%&   ",
"   @%%%%%%%%%%%%*   ",
"   #%%%%%%%%%%%%#   ",
"   #%%%%%%%%%%%%#   ",
"   @%%%%%%%%%%%%*   ",
"   +%%%%%%%%%%%%&   ",
"   .#%%%%%%%%%%#=   ",
"    $%%%%%%%%%%$    ",
"     $#%%%%%%#$     ",
"      .&@##@&=      ",
"                    ",
"                    ",
"                    ",
"                    ",
"                    ",
"                    ",
"                    ",
"      -;>,,')-      ",
"     !~{]]]]{^/     ",
"    !(]]]]]]]](/    ",
"   -~]]]]]]]]]]_:   ",
"   ;{]]]]]]]]]]<[   ",
"   }]]]]]]]]]]]]|   ",
"   1]2333333332]^   ",
"   ~]2333333332]_   ",
"   4]]]]]]]]]]]]|   ",
"   ){]]]]]]]]]]56   ",
"   -^]]]]]]]]]]78   ",
"    /(]]]]]]]]90    ",
"     /_<]]]]570     ",
"      :[|~~|68      ",
"                    ",
"                    ",
"                    ",
"                    "};
