/* XPM */
static char * close_xpm[] = {
"16 16 42 1",
" 	c #14161B",
".	c #5F2125",
"+	c #A4282E",
"@	c #CF2D34",
"#	c #E82F38",
"$	c #5E2125",
"%	c #D42D35",
"&	c #F13039",
"*	c #D32D35",
"=	c #5B2124",
"-	c #5B2225",
";	c #5A2125",
">	c #D52D35",
",	c #471F22",
"'	c #DF2E36",
")	c #E12F37",
"!	c #4B1F22",
"~	c #5D2125",
"{	c #3B1E20",
"]	c #3D1E21",
"^	c #371E20",
"/	c #A2282F",
"(	c #D02D35",
"_	c #D92E36",
":	c #331D1F",
"<	c #2B1C1E",
"[	c #D62D35",
"}	c #E72F37",
"|	c #DE2E36",
"1	c #3B1D20",
"2	c #351D1F",
"3	c #DA2E36",
"4	c #E52E37",
"5	c #DD2E36",
"6	c #3A1E20",
"7	c #DC2D37",
"8	c #3F1E21",
"9	c #5C2125",
"0	c #D22D35",
"a	c #8B262B",
"b	c #592125",
"c	c #CE2C34",
"                ",
"     .+@#@+$    ",
"    %&&&&&&&*=  ",
"  -&&&&&&&&&&&; ",
"  *&&&&&&&&&&&> ",
" .&&& ,'&)! &&&~",
" +&&&{ {'] ^&&&/",
" (&&&_: { <[&&&@",
" }&&&&|1 23&&&&4",
" (&&&56 ^ ^7&&&@",
" +&&&8 ^7^ ]&&&/",
" $&&& ]7&7] &&&9",
"  0&&&&&&&&&&&% ",
"   a&&&&&&&&&&  ",
"    0&&&&&&&0b  ",
"     ~/c}c/9    "};
