/* XPM */
static char * max_pressed_xpm[] = {
"16 16 30 1",
" 	c #14161B",
".	c #15191F",
"+	c #1F425D",
"@	c #296B98",
"#	c #2F84BE",
"$	c #3392D3",
"%	c #1F425C",
"&	c #1E4059",
"*	c #3087C2",
"=	c #3498DB",
"-	c #3086C1",
";	c #1E3F58",
">	c #FFFFFF",
",	c #C6E2F5",
"'	c #1E425B",
")	c #296C98",
"!	c #EEF7FC",
"~	c #286A97",
"{	c #2F85BF",
"]	c #3392D2",
"^	c #F2F9FD",
"/	c #ECF5FC",
"(	c #3291D0",
"_	c #F0F7FC",
":	c #2F83BD",
"<	c #286996",
"[	c #1E415A",
"}	c #15191E",
"|	c #3086C0",
"1	c #14171D",
"                ",
"    .+@#$#@%.   ",
"   &*=======-   ",
"  &===========; ",
" .-===========*.",
" +=====>>>>,==='",
" )======!>>>===~",
" {===>===!>>===#",
" ]===>^===>/===(",
" #===>>_===>===:",
" @===>>>>======<",
" %===,>>_>=====[",
" }|===========*.",
"   ==========1  ",
"   ;|=======|   ",
"    }'~:]:~[}   "};
