/* XPM */
static char * max_unfocus_xpm[] = {
"16 15 7 1",
" 	c #14161B",
".	c #414749",
"+	c #565D5E",
"@	c #4A5050",
"#	c #42494A",
"$	c #3F4547",
"%	c #495151",
"                ",
"                ",
"                ",
"                ",
"                ",
"        .++@    ",
"         .++    ",
"      #   $+    ",
"      +#   $    ",
"      ++.       ",
"      %++.      ",
"                ",
"                ",
"                ",
"                "};
