/* XPM */
static char * min_xpm[] = {
"16 15 2 1",
" 	c #14161B",
".	c #888C90",
"                ",
"                ",
"                ",
"                ",
"                ",
"                ",
"                ",
"      ......    ",
"      ......    ",
"                ",
"                ",
"                ",
"                ",
"                ",
"                "};
