/* XPM */
static char * close_xpm[] = {
"16 15 35 1",
" 	c #2F2F2F",
".	c #383634",
"+	c #68584B",
"@	c #886F5B",
"#	c #977B63",
"$	c #876F5B",
"%	c #67584B",
"&	c #534941",
"*	c #967A62",
"=	c #9C7E65",
"-	c #534A41",
";	c #9B7E65",
">	c #313030",
",	c #5A4E45",
"'	c #9B7D64",
")	c #5C4F45",
"!	c #303030",
"~	c #67574A",
"{	c #88705B",
"]	c #65564A",
"^	c #584C43",
"/	c #584D43",
"(	c #615348",
"_	c #977A62",
":	c #635549",
"<	c #605348",
"[	c #574C43",
"}	c #544941",
"|	c #5A4E44",
"1	c #66574A",
"2	c #594D44",
"3	c #69594C",
"4	c #373533",
"5	c #524940",
"6	c #866E5A",
"                ",
"     .+@##$%.   ",
"    &*======*-  ",
"   &;========;- ",
"  .*==#====*==*.",
"  +===>,'')!===~",
"  {===] ^/ (===$",
"  _====:  <====*",
"  *===;[  }'===*",
"  @===| 11 2===$",
"  %===.3==3.===1",
"  .*==========*4",
"   -;========;5 ",
"    -*======*5  ",
"     .~6__614   "};
