/* XPM */
static char * max_xpm[] = {
"16 15 7 1",
" 	c #2F2F2F",
".	c #303030",
"+	c #717171",
"@	c #909090",
"#	c #7D7D7D",
"$	c #747474",
"%	c #6E6E6E",
"                ",
"                ",
"                ",
"                ",
"                ",
"       .+@@#    ",
"      ...+@@    ",
"      $...%@    ",
"      @$. .%    ",
"      @@+...    ",
"      #@@+..    ",
"                ",
"                ",
"                ",
"                "};
