/* XPM */
static char * closeI_xpm[] = {
"28 42 54 1",
" 	c #2F2F2F",
".	c #343434",
"+	c #4C4C4C",
"@	c #5C5C5C",
"#	c #646464",
"$	c #5B5B5B",
"%	c #4B4B4B",
"&	c #414141",
"*	c #636363",
"=	c #666666",
"-	c #424242",
";	c #303030",
">	c #454545",
",	c #656565",
"'	c #464646",
")	c #4A4A4A",
"!	c #434343",
"~	c #444444",
"{	c #484848",
"]	c #494949",
"^	c #4D4D4D",
"/	c #333333",
"(	c #373737",
"_	c #383131",
":	c #673D3C",
"<	c #864543",
"[	c #954946",
"}	c #854542",
"|	c #663D3B",
"1	c #523837",
"2	c #944845",
"3	c #9A4A47",
"4	c #533837",
"5	c #994A47",
"6	c #954A47",
"7	c #383232",
"8	c #312F2F",
"9	c #593A39",
"0	c #994946",
"a	c #5B3A39",
"b	c #874543",
"c	c #643D3B",
"d	c #573938",
"e	c #583938",
"f	c #603B3A",
"g	c #623C3B",
"h	c #5F3B3A",
"i	c #563937",
"j	c #653D3B",
"k	c #683E3C",
"l	c #653C3B",
"m	c #944946",
"n	c #373131",
"o	c #854442",
"                            ",
"                            ",
"                            ",
"            .+@##$%.        ",
"           &*======*-       ",
"          &==========-      ",
"         .*==#====*==*.     ",
"         +===;>,,';===%     ",
"         @===) !~ {===$     ",
"         *====]  {====*     ",
"         *====!  &,===*     ",
"         @===> %% ~===$     ",
"         %===.^==^.===%     ",
"         .*==========*/     ",
"          -==========&      ",
"           -*======*&       ",
"            .%$**$%/        ",
"                            ",
"                            ",
"                            ",
"    ((((((((((((((((((((((((",
"                            ",
"                            ",
"                            ",
"                            ",
"            _:<[[}|_        ",
"           1233333324       ",
"          153333333354      ",
"         _23363333[33[7     ",
"         :3338900a;333|     ",
"         b333c de f333}     ",
"         [3333g  h33332     ",
"         23335i  45333[     ",
"         <3339 jj e333}     ",
"         |333_k33k_333l     ",
"         _23333333333mn     ",
"          453333333351      ",
"           4[333333m1       ",
"            7|o[[oln        ",
"                            ",
"                            ",
"                            "};
