/* XPM */
static char * closeA_xpm[] = {
"28 42 71 1",
" 	c #2F2F2F",
".	c #3C3333",
"+	c #7B4645",
"@	c #A65350",
"#	c #BB5956",
"$	c #A55350",
"%	c #7A4644",
"&	c #5F3E3D",
"*	c #B95856",
"=	c #C15B58",
"-	c #603E3D",
";	c #C05B58",
">	c #BA5A57",
",	c #B95956",
"'	c #3B3333",
")	c #323030",
"!	c #694140",
"~	c #BF5A57",
"{	c #6B4140",
"]	c #313030",
"^	c #794544",
"/	c #A65351",
"(	c #774543",
"_	c #663F3E",
":	c #66403E",
"<	c #724342",
"[	c #BA5956",
"}	c #754443",
"|	c #714342",
"1	c #653F3E",
"2	c #BF5B58",
"3	c #68403F",
"4	c #784544",
"5	c #67403F",
"6	c #7C4745",
"7	c #3A3232",
"8	c #5E3D3C",
"9	c #A45250",
"0	c #373737",
"a	c #383131",
"b	c #673D3C",
"c	c #864543",
"d	c #954946",
"e	c #854542",
"f	c #663D3B",
"g	c #523837",
"h	c #944845",
"i	c #9A4A47",
"j	c #533837",
"k	c #994A47",
"l	c #954A47",
"m	c #383232",
"n	c #312F2F",
"o	c #593A39",
"p	c #994946",
"q	c #5B3A39",
"r	c #303030",
"s	c #874543",
"t	c #643D3B",
"u	c #573938",
"v	c #583938",
"w	c #603B3A",
"x	c #623C3B",
"y	c #5F3B3A",
"z	c #563937",
"A	c #653D3B",
"B	c #683E3C",
"C	c #653C3B",
"D	c #944946",
"E	c #373131",
"F	c #854442",
"                            ",
"                            ",
"                            ",
"            .+@##$%.        ",
"           &*======*-       ",
"          &;========;-      ",
"         .*==>====,==,'     ",
"         +===)!~~{]===^     ",
"         /===( _: <===$     ",
"         [====}  |====*     ",
"         *===;1  -2===,     ",
"         @===3 44 5===$     ",
"         %===.6==6.===^     ",
"         .*==========,7     ",
"          -;========;8      ",
"           -,======,8       ",
"            '^9[[9^7        ",
"                            ",
"                            ",
"    000000000000000000000000",
"                            ",
"                            ",
"                            ",
"                            ",
"            abcddefa        ",
"           ghiiiiiihj       ",
"          gkiiiiiiiikj      ",
"         ahiiliiiidiidm     ",
"         biiinoppqriiif     ",
"         siiit uv wiiie     ",
"         diiiix  yiiiih     ",
"         hiiikz  jkiiid     ",
"         ciiio AA viiie     ",
"         fiiiaBiiBaiiiC     ",
"         ahiiiiiiiiiiDE     ",
"          jkiiiiiiiikg      ",
"           jdiiiiiiDg       ",
"            mfFddFCE        ",
"                            ",
"                            ",
"                            ",
"                            "};
