/* XPM */
static char * closeA_xpm[] = {
"28 60 3 1",
" 	c #1F1F1F",
".	c #FFFFFF",
"+	c #FF4949",
"                            ",
"                            ",
"                            ",
"                            ",
"                            ",
"                            ",
"                            ",
"                            ",
"                            ",
"          .        .        ",
"           .      .         ",
"            .    .          ",
"             .  .           ",
"              ..            ",
"              ..            ",
"             .  .           ",
"            .    .          ",
"           .      .         ",
"          .        .        ",
"                            ",
"                            ",
"                            ",
"                            ",
"                            ",
"                            ",
"                            ",
"                            ",
"                            ",
"                            ",
"                            ",
"++++++++++++++++++++++++++++",
"++++++++++++++++++++++++++++",
"++++++++++++++++++++++++++++",
"++++++++++++++++++++++++++++",
"++++++++++++++++++++++++++++",
"++++++++++++++++++++++++++++",
"++++++++++++++++++++++++++++",
"++++++++++++++++++++++++++++",
"++++++++++++++++++++++++++++",
"++++++++++.++++++++.++++++++",
"+++++++++++.++++++.+++++++++",
"++++++++++++.++++.++++++++++",
"+++++++++++++.++.+++++++++++",
"++++++++++++++..++++++++++++",
"++++++++++++++..++++++++++++",
"+++++++++++++.++.+++++++++++",
"++++++++++++.++++.++++++++++",
"+++++++++++.++++++.+++++++++",
"++++++++++.++++++++.++++++++",
"++++++++++++++++++++++++++++",
"++++++++++++++++++++++++++++",
"++++++++++++++++++++++++++++",
"++++++++++++++++++++++++++++",
"++++++++++++++++++++++++++++",
"++++++++++++++++++++++++++++",
"++++++++++++++++++++++++++++",
"++++++++++++++++++++++++++++",
"++++++++++++++++++++++++++++",
"++++++++++++++++++++++++++++",
"++++++++++++++++++++++++++++"};
