/* XPM */
static char * maximizeI_xpm[] = {
"28 60 3 1",
" 	c #1F1F1F",
".	c #FFFFFF",
"+	c #353535",
"                            ",
"                            ",
"                            ",
"                            ",
"                            ",
"                            ",
"                            ",
"                            ",
"                            ",
"          ..........        ",
"          .        .        ",
"          .        .        ",
"          .        .        ",
"          .        .        ",
"          .        .        ",
"          .        .        ",
"          .        .        ",
"          .        .        ",
"          ..........        ",
"                            ",
"                            ",
"                            ",
"                            ",
"                            ",
"                            ",
"                            ",
"                            ",
"                            ",
"                            ",
"                            ",
"++++++++++++++++++++++++++++",
"++++++++++++++++++++++++++++",
"++++++++++++++++++++++++++++",
"++++++++++++++++++++++++++++",
"++++++++++++++++++++++++++++",
"++++++++++++++++++++++++++++",
"++++++++++++++++++++++++++++",
"++++++++++++++++++++++++++++",
"++++++++++++++++++++++++++++",
"++++++++++..........++++++++",
"++++++++++.++++++++.++++++++",
"++++++++++.++++++++.++++++++",
"++++++++++.++++++++.++++++++",
"++++++++++.++++++++.++++++++",
"++++++++++.++++++++.++++++++",
"++++++++++.++++++++.++++++++",
"++++++++++.++++++++.++++++++",
"++++++++++.++++++++.++++++++",
"++++++++++..........++++++++",
"++++++++++++++++++++++++++++",
"++++++++++++++++++++++++++++",
"++++++++++++++++++++++++++++",
"++++++++++++++++++++++++++++",
"++++++++++++++++++++++++++++",
"++++++++++++++++++++++++++++",
"++++++++++++++++++++++++++++",
"++++++++++++++++++++++++++++",
"++++++++++++++++++++++++++++",
"++++++++++++++++++++++++++++",
"++++++++++++++++++++++++++++"};
