/* XPM */
static char * min_unfocus_xpm[] = {
"16 15 2 1",
" 	c #1A1A1A",
".	c #565D5E",
"                ",
"                ",
"                ",
"                ",
"                ",
"                ",
"                ",
"      ......    ",
"      ......    ",
"                ",
"                ",
"                ",
"                ",
"                ",
"                "};
