/* XPM */
static char * maximizeA_xpm[] = {
"20 42 24 1",
" 	c #2F2F2F",
".	c #303030",
"+	c #717171",
"@	c #909090",
"#	c #7D7D7D",
"$	c #747474",
"%	c #6E6E6E",
"&	c #373737",
"*	c #323232",
"=	c #424242",
"-	c #2A2A2A",
";	c #383838",
">	c #565656",
",	c #7B7B7B",
"'	c #8E8E8E",
")	c #949494",
"!	c #7F7F7F",
"~	c #DDDDDD",
"{	c #FFFFFF",
"]	c #EAEAEA",
"^	c #979797",
"/	c #DADADA",
"(	c #E0E0E0",
"_	c #555555",
"                    ",
"                    ",
"                    ",
"                    ",
"                    ",
"                    ",
"          ...       ",
"          .+@@#     ",
"         ...+@@     ",
"        .$...%@     ",
"        .@$. .%     ",
"        .@@+...     ",
"        .#@@+..     ",
"        ..  .       ",
"                    ",
"                    ",
"                    ",
"                    ",
"                    ",
"&&&&&&&&&&&&&&&&&&&&",
"                    ",
"                    ",
"                    ",
"         *          ",
"        &=&--;=&    ",
"       = >,'),> =   ",
"      =*!))))))!*=  ",
"     & !))))))))! * ",
"     =>))))~{{]))>= ",
"     &!)))^^~{{)),& ",
"     -'))~^))/{)))- ",
"     -')){()))~))'- ",
"    *;!)^{{/^)))),& ",
"     ;_')]{{~))))>= ",
"     & '))))))))! & ",
"      =*!))))))!*=  ",
"       = >,'',> =   ",
"        &=;--&=&    ",
"          *   *     ",
"                    ",
"                    ",
"                    "};
