/* XPM */
static char * closeI_xpm[] = {
"28 42 56 1",
" 	c #181B1E",
".	c #1E2124",
"+	c #3C3E41",
"@	c #525259",
"#	c #595A61",
"$	c #525258",
"%	c #3B3C42",
"&	c #2E3135",
"*	c #595961",
"=	c #5B5C63",
"-	c #585A61",
";	c #2E3035",
">	c #585961",
",	c #1D2124",
"'	c #3A3C41",
")	c #51525A",
"!	c #515159",
"~	c #595A60",
"{	c #1D2024",
"]	c #2D3034",
"^	c #515258",
"/	c #211216",
"(	c #7A1E26",
"_	c #C4303B",
":	c #DD3943",
"<	c #DD3843",
"[	c #C3303B",
"}	c #791E26",
"|	c #53181F",
"1	c #DC3943",
"2	c #F04D54",
"3	c #F25056",
"4	c #DC3842",
"5	c #52181E",
"6	c #E8414A",
"7	c #E7414A",
"8	c #E3474E",
"9	c #DB414A",
"0	c #DB424A",
"a	c #E4484E",
"b	c #DB3843",
"c	c #211215",
"d	c #A21E2C",
"e	c #D53E47",
"f	c #F04E54",
"g	c #C5303A",
"h	c #D63F47",
"i	c #D43D47",
"j	c #C3313A",
"k	c #DC3942",
"l	c #A11E2C",
"m	c #DB3842",
"n	c #DA3942",
"o	c #201216",
"p	c #50181E",
"q	c #C2303B",
"                            ",
"                            ",
"                            ",
"            .+@##$%.        ",
"           &*======-;       ",
"          &==========;      ",
"         .*==========>,     ",
"         +============'     ",
"         )============!     ",
"         #============-     ",
"         -============>     ",
"         @============!     ",
"         %============'     ",
"         .-==========~{     ",
"          ;==========]      ",
"           ;>======~]       ",
"            ,'^##^'{        ",
"                            ",
"                            ",
"                            ",
"                            ",
"                            ",
"                            ",
"                            ",
"            /(_:<[}/        ",
"           |123333245       ",
"          |63333333375      ",
"         /138933330a3bc     ",
"         (230de33ed03f(     ",
"         g333hdihdi333j     ",
"         :3333edde3333k     ",
"         13333elle3333m     ",
"         _333hdihdi333j     ",
"         }230le33ed032}     ",
"         /43a033330a3no     ",
"          57333333337p      ",
"           5mf33332np       ",
"            c(q<<q}o        ",
"                            ",
"                            ",
"                            ",
"                            "};
