/* XPM */
static char * closeA_xpm[] = {
"28 42 84 1",
" 	c #181B1E",
".	c #281C20",
"+	c #7F252C",
"@	c #C74548",
"#	c #DF5454",
"$	c #DF5554",
"%	c #C74748",
"&	c #7E262D",
"*	c #582026",
"=	c #DE5155",
"-	c #F48177",
";	c #F68B7B",
">	c #F68D7B",
",	c #F7907B",
"'	c #F7927B",
")	c #F58E75",
"!	c #DE5853",
"~	c #572025",
"{	c #EA6263",
"]	c #F6867C",
"^	c #F6887C",
"/	c #F7957A",
"(	c #F7977A",
"_	c #EA7061",
":	c #DE4F55",
"<	c #F6837C",
"[	c #F6877C",
"}	c #F7947A",
"|	c #F79A7A",
"1	c #DD5A52",
"2	c #F47B78",
"3	c #F6857C",
"4	c #F6877B",
"5	c #F68A7B",
"6	c #F7917B",
"7	c #F79479",
"8	c #F7967A",
"9	c #F59575",
"0	c #C64048",
"a	c #F6817D",
"b	c #F68A7A",
"c	c #F68C7B",
"d	c #F78F7B",
"e	c #F7917A",
"f	c #F79C79",
"g	c #C64947",
"h	c #DF4E55",
"i	c #F68C7A",
"j	c #F78F7A",
"k	c #DE5C53",
"l	c #DE4E55",
"m	c #DD5B53",
"n	c #7E252D",
"o	c #F59474",
"p	c #7D262D",
"q	c #DE4E54",
"r	c #DD5952",
"s	c #271C20",
"t	c #E96262",
"u	c #EA6F61",
"v	c #552025",
"w	c #DD5054",
"x	c #F48278",
"y	c #F58D75",
"z	c #DD5753",
"A	c #C54247",
"B	c #DF5354",
"C	c #C64547",
"D	c #7D252D",
"E	c #F17670",
"F	c #ED6D68",
"G	c #ED7767",
"H	c #F1856E",
"I	c #ED6C68",
"J	c #D62A37",
"K	c #EA6863",
"L	c #EB6D62",
"M	c #ED7867",
"N	c #EB6865",
"O	c #EA6862",
"P	c #EC6C64",
"Q	c #EB6D61",
"R	c #D62937",
"S	c #EB6764",
"                            ",
"                            ",
"                            ",
"            .+@#$%&.        ",
"           *=-;>,')!~       ",
"          *{]^;>,'/(_~      ",
"         .:<][;>,'}(|1.     ",
"         +2<345>,678|9&     ",
"         0a<][bcde}(|fg     ",
"         ha<]^5ij6/(|fk     ",
"         la<]^5ij6/(|fm     ",
"         0a<][bcde}(|fg     ",
"         n2<345>,678|op     ",
"         .q<][;>,'}(|rs     ",
"          ~t]^;>,'/(uv      ",
"           ~wx;>,'yzv       ",
"            .nAB$CDs        ",
"                            ",
"                            ",
"                            ",
"                            ",
"                            ",
"                            ",
"                            ",
"            .+@#$%&.        ",
"           *=-;>,')!~       ",
"          *{]^;>,'/(_~      ",
"         .:<EF;>,'GH|1.     ",
"         +2<IJK>,LJM|9&     ",
"         0a<]NJOPJQ(|fg     ",
"         ha<]^OJJL/(|fk     ",
"         la<]^ORRL/(|fm     ",
"         0a<]SJOPJQ(|fg     ",
"         n2<IRK>,LJM|op     ",
"         .q<EF;>,'GH|rs     ",
"          ~t]^;>,'/(uv      ",
"           ~wx;>,'yzv       ",
"            .nAB$CDs        ",
"                            ",
"                            ",
"                            ",
"                            "};
