/* XPM */
static char * maximizeA_xpm[] = {
"20 42 135 2",
"  	c #181B1E",
". 	c #1F0F23",
"+ 	c #6A087A",
"@ 	c #A102C1",
"# 	c #B101DA",
"$ 	c #AE01DA",
"% 	c #9C02C3",
"& 	c #69087A",
"* 	c #490B54",
"= 	c #B801D5",
"- 	c #BB00E6",
"; 	c #B500EA",
"> 	c #B000EC",
", 	c #AA00EF",
"' 	c #A400F2",
") 	c #A000F2",
"! 	c #A501DC",
"~ 	c #490B53",
"{ 	c #C100DC",
"] 	c #C100E4",
"^ 	c #BB00E7",
"/ 	c #9E00F4",
"( 	c #9800F7",
"_ 	c #9F00EB",
": 	c #BD01D3",
"< 	c #C700E1",
"[ 	c #9200FA",
"} 	c #9F01DF",
"| 	c #1E0F22",
"1 	c #6B087A",
"2 	c #CC00DE",
"3 	c #8F00FA",
"4 	c #670879",
"5 	c #AB02BB",
"6 	c #CD00DF",
"7 	c #8C00FD",
"8 	c #9302C6",
"9 	c #C001D2",
"0 	c #B600EA",
"a 	c #9D01E1",
"b 	c #C001D1",
"c 	c #9D01E0",
"d 	c #AA02BB",
"e 	c #6B0879",
"f 	c #660878",
"g 	c #BD01D2",
"h 	c #9F01DE",
"i 	c #1D0F22",
"j 	c #C100DB",
"k 	c #470B52",
"l 	c #B701D4",
"m 	c #690878",
"n 	c #A002BF",
"o 	c #B001D9",
"p 	c #AD01DA",
"q 	c #9B02C1",
"r 	c #670878",
"s 	c #1D2223",
"t 	c #3B4544",
"u 	c #627671",
"v 	c #728A83",
"w 	c #728984",
"x 	c #617571",
"y 	c #3B4444",
"z 	c #2D3435",
"A 	c #738B86",
"B 	c #99B8B1",
"C 	c #9DBDB5",
"D 	c #9CBCB4",
"E 	c #9BBBB3",
"F 	c #95B4AD",
"G 	c #718782",
"H 	c #2C3435",
"I 	c #849F98",
"J 	c #9EBFB7",
"K 	c #9EBEB6",
"L 	c #9ABAB2",
"M 	c #9AB9B1",
"N 	c #809A94",
"O 	c #748C86",
"P 	c #9FBFB7",
"Q 	c #78918B",
"R 	c #617671",
"S 	c #647974",
"T 	c #8DAAA3",
"U 	c #99B8B0",
"V 	c #6F8781",
"W 	c #1D2124",
"X 	c #3B4644",
"Y 	c #9DBEB6",
"Z 	c #697F79",
"` 	c #536460",
" .	c #778F89",
"..	c #95B3AA",
"+.	c #394444",
"@.	c #627773",
"#.	c #9FC0B8",
"$.	c #79918B",
"%.	c #99B7B0",
"&.	c #697F7A",
"*.	c #778E88",
"=.	c #60736E",
"-.	c #758C86",
";.	c #6B817C",
">.	c #617570",
",.	c #98B6AF",
"'.	c #708781",
").	c #61756F",
"!.	c #97B5AE",
"~.	c #99B9B1",
"{.	c #6F8682",
"].	c #627673",
"^.	c #607470",
"/.	c #96B5AE",
"(.	c #98B8B0",
"_.	c #89A59E",
":.	c #6F8680",
"<.	c #94B2AB",
"[.	c #738A86",
"}.	c #96B6AE",
"|.	c #7C958F",
"1.	c #7B948E",
"2.	c #7A938D",
"3.	c #86A29B",
"4.	c #849E98",
"5.	c #809992",
"6.	c #2C3334",
"7.	c #728A85",
"8.	c #95B4AC",
"9.	c #6F8780",
"0.	c #3A4544",
"a.	c #627470",
"b.	c #728883",
"c.	c #61746F",
"d.	c #394544",
"                                        ",
"                                        ",
"                                        ",
"                . + @ # $ % & .         ",
"              * = - ; > , ' ) ! ~       ",
"            * { ] ^ ; > , ' / ( _ ~     ",
"          . : < ] ^ ; > , ' / ( [ } |   ",
"          1 2 < ] ^ ; > , ' / ( [ 3 4   ",
"          5 6 < ] ^ ; > , ' / ( [ 7 8   ",
"          9 6 < ] ^ 0 > , ' / ( [ 7 a   ",
"          b 6 < ] ^ 0 > , ' / ( [ 7 c   ",
"          d 6 < ] ^ 0 > , ' / ( [ 7 8   ",
"          e 2 < ] ^ 0 > , ' / ( [ 3 f   ",
"          . g < ] ^ 0 > , ' / ( [ h i   ",
"            ~ j ] ^ 0 > , ' / ( _ k     ",
"              ~ l - 0 > , ' ) ! k       ",
"                | m n o p q r i         ",
"                                        ",
"                                        ",
"                                        ",
"                                        ",
"                                        ",
"                                        ",
"                                        ",
"                s t u v w x y s         ",
"              z A B C D D E F G H       ",
"            z I J K C D D E L M N H     ",
"          s O P J K Q R R x S T U V W   ",
"          X L P Y K E Z ` ` `  .U ..+.  ",
"          @.#.P $.%.C L &.` ` *.U U =.  ",
"          -.#.P ;.>.,.D L Z ` *.U U '.  ",
"          O #.P ;.` ).!.D ~.Z *.U U {.  ",
"          ].#.P ;.` ` ^./.E (._.U U =.  ",
"          t L P :.` ` ` ^.F L M U <.+.  ",
"          s [.P }.|.1.2.2.3.L M U :.W   ",
"            H 4.J K C D D E L M 5.6.    ",
"              H 7.U C D D E 8.9.6.      ",
"                W 0.a.b.b.c.d.W         ",
"                                        ",
"                                        ",
"                                        ",
"                                        "};
