/* XPM */
static char * minimizeI_xpm[] = {
"20 42 82 1",
" 	c #181B1E",
".	c #1E2124",
"+	c #3C3E41",
"@	c #525259",
"#	c #595A61",
"$	c #525258",
"%	c #3B3C42",
"&	c #2E3135",
"*	c #595961",
"=	c #5B5C63",
"-	c #585A61",
";	c #2E3035",
">	c #585961",
",	c #1D2124",
"'	c #3A3C41",
")	c #51525A",
"!	c #515159",
"~	c #595A60",
"{	c #1D2024",
"]	c #2D3034",
"^	c #515258",
"/	c #1E2120",
"(	c #464633",
"_	c #7F7C53",
":	c #979461",
"<	c #969360",
"[	c #7D7B53",
"}	c #454432",
"|	c #32332A",
"1	c #989562",
"2	c #D6D288",
"3	c #DDD98D",
"4	c #DCD88C",
"5	c #DBD78C",
"6	c #DAD68B",
"7	c #D1CE86",
"8	c #949160",
"9	c #31332A",
"0	c #B2AF71",
"a	c #DEDA8E",
"b	c #DEDA8D",
"c	c #D9D58B",
"d	c #D9D58A",
"e	c #ADAB6F",
"f	c #999662",
"g	c #DFDB8E",
"h	c #D8D48A",
"i	c #93915F",
"j	c #1E2121",
"k	c #D0CB84",
"l	c #444332",
"m	c #7F7D53",
"n	c #E0DC8F",
"o	c #D7D389",
"p	c #7A7950",
"q	c #999762",
"r	c #B5B173",
"s	c #94915F",
"t	c #94915E",
"u	c #93915E",
"v	c #93905E",
"w	c #92905E",
"x	c #928F5E",
"y	c #928F5D",
"z	c #B1AD71",
"A	c #B6B274",
"B	c #939060",
"C	c #454533",
"D	c #CFCB83",
"E	c #979462",
"F	c #B2AF72",
"G	c #ACA96E",
"H	c #313229",
"I	c #969462",
"J	c #D6D188",
"K	c #D1CD85",
"L	c #93905F",
"M	c #444432",
"N	c #7D7B52",
"O	c #959360",
"P	c #959260",
"Q	c #7C7A51",
"                    ",
"                    ",
"                    ",
"      .+@##$%.      ",
"     &*======-;     ",
"    &==========;    ",
"   .*==========>,   ",
"   +============'   ",
"   )============!   ",
"   #============-   ",
"   -============>   ",
"   @============!   ",
"   %============'   ",
"   .-==========~{   ",
"    ;==========]    ",
"     ;>======~]     ",
"      ,'^##^'{      ",
"                    ",
"                    ",
"                    ",
"                    ",
"                    ",
"                    ",
"                    ",
"      /(_:<[}/      ",
"     |123456789     ",
"    |0ab3456cde9    ",
"   /fgab3456cdhij   ",
"   (hgab3456cdhkl   ",
"   mngab3456cdhop   ",
"   qnrstuvvwxyzos   ",
"   qnAstuvvwxyzoB   ",
"   mngab3456cdhop   ",
"   Chgab3456cdhDl   ",
"   /Egab3456cdhxj   ",
"    9Fab3456cdGH    ",
"     9IJ3456KLH     ",
"      jMNOPQMj      ",
"                    ",
"                    ",
"                    ",
"                    "};
