/* XPM */
static char * closeA_xpm[] = {
"28 42 73 1",
" 	c None",
".	c #2B2B2B",
"+	c #564739",
"@	c #8D6C4B",
"#	c #B48558",
"$	c #C5915E",
"%	c #B38558",
"&	c #8C6B4B",
"*	c #56483A",
"=	c #433B33",
"-	c #A47B53",
";	c #CC9560",
">	c #A57B53",
",	c #534538",
"'	c #C18E5D",
")	c #524538",
"!	c #C18D5C",
"~	c #423A33",
"{	c #A37A53",
"]	c #CC9561",
"^	c #F0E1D2",
"/	c #D6AA7F",
"(	c #8E6C4C",
"_	c #D6A97E",
":	c #F7EFE8",
"<	c #D7AB81",
"[	c #8B6A4B",
"}	c #C4905D",
"|	c #C38F5D",
"1	c #D6AB80",
"2	c #B28458",
"3	c #8B6A4A",
"4	c #554739",
"5	c #A27952",
"6	c #3F3831",
"7	c #BF8C5B",
"8	c #4D3F32",
"9	c #78593C",
"0	c #966C43",
"a	c #A47446",
"b	c #956B43",
"c	c #77593C",
"d	c #4D4033",
"e	c #3E3730",
"f	c #8A6440",
"g	c #A97747",
"h	c #8A6540",
"i	c #3E362F",
"j	c #4A3E32",
"k	c #A17245",
"l	c #493D32",
"m	c #A07245",
"n	c #3D362F",
"o	c #896440",
"p	c #A97848",
"q	c #E6D8CB",
"r	c #BA926B",
"s	c #BA916A",
"t	c #4C3F33",
"u	c #785A3C",
"v	c #B9916A",
"w	c #F2EBE5",
"x	c #BB936D",
"y	c #76583C",
"z	c #A37346",
"A	c #F2EBE4",
"B	c #A27245",
"C	c #76583B",
"D	c #E6D9CB",
"E	c #4C3F32",
"F	c #886340",
"G	c #3B342E",
"H	c #9F7144",
"............................",
"............+@#$$%&*........",
"..........=-;;;;;;;;>=......",
".........,';;;;;;;;;;').....",
"........=';;;;;;;;;;;;!~....",
"........{;;;];;;;;;];;;-....",
".......+;;;]^/;;;;/^];;;+...",
".......(;;;;_:<;;_:<;;;;[...",
".......#;;;;;_:<_:<;;;;;%...",
".......};;;;;;/::/;;;;;;}...",
".......};;;;;;/::/;;;;;;|...",
".......#;;;;;_:1_:<;;;;;2...",
".......@;;;;_:1;;_:<;;;;3...",
".......*;;;]^/;;;;/^];;;4...",
"........5;;;];;;;;;];;;>....",
"........67;;;;;;;;;;;;!~....",
".........)!;;;;;;;;;;!).....",
"..........=-;;;;;;;;{~......",
"............+[2}}2[4........",
"............................",
"............................",
"............................",
"............890aabcd........",
"..........efgggggggghi......",
".........jkggggggggggkl.....",
"........ekggggggggggggmn....",
"........ogggpggggggpgggf....",
".......8gggpqrggggsqpgggt...",
".......uggggvwxggvwxggggy...",
".......0gggggvwxvwxgggggb...",
".......zggggggsAArggggggz...",
".......zggggggsAArggggggB...",
".......0gggggvwxvwxgggggb...",
".......9ggggvwxggvwxggggC...",
".......dgggpDrggggsqpgggE...",
"........Fgggpggggggpgggh....",
"........GHggggggggggggmn....",
".........lmggggggggggml.....",
"..........ifggggggggon......",
"............tybzzbyE........",
"............................",
"                            "};
