/* XPM */
static char * closeI_xpm[] = {
"28 42 45 1",
" 	c #101013",
".	c #121214",
"+	c #1B1B1E",
"@	c #222225",
"#	c #242427",
"$	c #17171A",
"%	c #252528",
"&	c #1B1B1D",
"*	c #212125",
"=	c #121215",
"-	c #211216",
";	c #7A1E26",
">	c #C4303B",
",	c #DD3943",
"'	c #DD3843",
")	c #C3303B",
"!	c #791E26",
"~	c #53181F",
"{	c #DC3943",
"]	c #F04D54",
"^	c #F25056",
"/	c #DC3842",
"(	c #52181E",
"_	c #E8414A",
":	c #E7414A",
"<	c #E3474E",
"[	c #DB414A",
"}	c #DB424A",
"|	c #E4484E",
"1	c #DB3843",
"2	c #211215",
"3	c #A21E2C",
"4	c #D53E47",
"5	c #F04E54",
"6	c #C5303A",
"7	c #D63F47",
"8	c #D43D47",
"9	c #C3313A",
"0	c #DC3942",
"a	c #A11E2C",
"b	c #DB3842",
"c	c #DA3942",
"d	c #201216",
"e	c #50181E",
"f	c #C2303B",
"                            ",
"                            ",
"                            ",
"            .+@##@+.        ",
"           $#%%%%%%#$       ",
"          $%%%%%%%%%%$      ",
"         .#%%%%%%%%%%#.     ",
"         +%%%%%%%%%%%%&     ",
"         @%%%%%%%%%%%%*     ",
"         #%%%%%%%%%%%%#     ",
"         #%%%%%%%%%%%%#     ",
"         @%%%%%%%%%%%%*     ",
"         +%%%%%%%%%%%%&     ",
"         .#%%%%%%%%%%#=     ",
"          $%%%%%%%%%%$      ",
"           $#%%%%%%#$       ",
"            .&@##@&=        ",
"                            ",
"                            ",
"                            ",
"                            ",
"                            ",
"                            ",
"                            ",
"            -;>,')!-        ",
"           ~{]^^^^]/(       ",
"          ~_^^^^^^^^:(      ",
"         -{^<[^^^^}|^12     ",
"         ;]^}34^^43}^5;     ",
"         6^^^738738^^^9     ",
"         ,^^^^4334^^^^0     ",
"         {^^^^4aa4^^^^b     ",
"         >^^^738738^^^9     ",
"         !]^}a4^^43}^]!     ",
"         -/^|}^^^^}|^cd     ",
"          (:^^^^^^^^:e      ",
"           (b5^^^^]ce       ",
"            2;f''f!d        ",
"                            ",
"                            ",
"                            ",
"                            "};
