/* XPM */
static char * closeA_xpm[] = {
"28 42 111 2",
"  	c #101013",
". 	c #240F17",
"+ 	c #971131",
"@ 	c #C01939",
"# 	c #D01D3B",
"$ 	c #D01E39",
"% 	c #BF1934",
"& 	c #95112C",
"* 	c #230F17",
"= 	c #680F27",
"- 	c #D51D43",
"; 	c #FE4150",
"> 	c #FF464B",
", 	c #FF4744",
"' 	c #FF483E",
") 	c #FF4938",
"! 	c #FE4633",
"~ 	c #D41F33",
"{ 	c #671024",
"] 	c #680F28",
"^ 	c #E62A4E",
"/ 	c #FF4457",
"( 	c #FF4551",
"_ 	c #FF4745",
": 	c #FF4A32",
"< 	c #FF4B2C",
"[ 	c #E62E30",
"} 	c #651023",
"| 	c #D51D48",
"1 	c #FF435D",
"2 	c #FF4B2B",
"3 	c #220F16",
"4 	c #961034",
"5 	c #FE3E62",
"6 	c #FF435E",
"7 	c #FF483F",
"8 	c #FD462C",
"9 	c #93112B",
"0 	c #C01842",
"a 	c #FF4264",
"b 	c #FF4458",
"c 	c #FF4939",
"d 	c #BF1A30",
"e 	c #D01B48",
"f 	c #FF4552",
"g 	c #FF4A33",
"h 	c #CF1E32",
"i 	c #D01B49",
"j 	c #FF464C",
"k 	c #FF4B2D",
"l 	c #FF4265",
"m 	c #FF4746",
"n 	c #BF1A31",
"o 	c #951034",
"p 	c #FE3E63",
"q 	c #FF435F",
"r 	c #FF4840",
"s 	c #D41C48",
"t 	c #FF4459",
"u 	c #FF493A",
"v 	c #D31F33",
"w 	c #210F17",
"x 	c #670F28",
"y 	c #E6294F",
"z 	c #FF4A34",
"A 	c #E52D31",
"B 	c #641022",
"C 	c #650F27",
"D 	c #D41C44",
"E 	c #FD4152",
"F 	c #FD4535",
"G 	c #D31F34",
"H 	c #941030",
"I 	c #BE183A",
"J 	c #BE1934",
"K 	c #93112C",
"L 	c #211216",
"M 	c #7A1E26",
"N 	c #C4303B",
"O 	c #DD3943",
"P 	c #DD3843",
"Q 	c #C3303B",
"R 	c #791E26",
"S 	c #53181F",
"T 	c #DC3943",
"U 	c #F04D54",
"V 	c #F25056",
"W 	c #DC3842",
"X 	c #52181E",
"Y 	c #E8414A",
"Z 	c #E7414A",
"` 	c #E3474E",
" .	c #DB414A",
"..	c #DB424A",
"+.	c #E4484E",
"@.	c #DB3843",
"#.	c #211215",
"$.	c #A21E2C",
"%.	c #D53E47",
"&.	c #F04E54",
"*.	c #C5303A",
"=.	c #D63F47",
"-.	c #D43D47",
";.	c #C3313A",
">.	c #DC3942",
",.	c #A11E2C",
"'.	c #DB3842",
").	c #DA3942",
"!.	c #201216",
"~.	c #50181E",
"{.	c #C2303B",
"                                                        ",
"                                                        ",
"                                                        ",
"                        . + @ # $ % & *                 ",
"                      = - ; > , ' ) ! ~ {               ",
"                    ] ^ / ( > _ ' ) : < [ }             ",
"                  . | 1 / ( > _ ' ) : < 2 ~ 3           ",
"                  4 5 6 / ( > _ 7 ) : < 2 8 9           ",
"                  0 a 6 b ( > _ 7 c : < 2 2 d           ",
"                  e a 6 b f > _ 7 c g < 2 2 h           ",
"                  i a 6 b f j _ 7 c g k 2 2 h           ",
"                  0 l 6 b f j m 7 c g k 2 2 n           ",
"                  o p q b f j m r c g k 2 8 9           ",
"                  * s q t f j m r u g k 2 v w           ",
"                    x y t f j m r u z k A B             ",
"                      C D E j m r u F G B               ",
"                        3 H I # $ J K w                 ",
"                                                        ",
"                                                        ",
"                                                        ",
"                                                        ",
"                                                        ",
"                                                        ",
"                                                        ",
"                        L M N O P Q R L                 ",
"                      S T U V V V V U W X               ",
"                    S Y V V V V V V V V Z X             ",
"                  L T V `  .V V V V ..+.V @.#.          ",
"                  M U V ..$.%.V V %.$...V &.M           ",
"                  *.V V V =.$.-.=.$.-.V V V ;.          ",
"                  O V V V V %.$.$.%.V V V V >.          ",
"                  T V V V V %.,.,.%.V V V V '.          ",
"                  N V V V =.$.-.=.$.-.V V V ;.          ",
"                  R U V ..,.%.V V %.$...V U R           ",
"                  L W V +...V V V V ..+.V ).!.          ",
"                    X Z V V V V V V V V Z ~.            ",
"                      X '.&.V V V V U ).~.              ",
"                        #.M {.P P {.R !.                ",
"                                                        ",
"                                                        ",
"                                                        ",
"                                                        "};
