/* XPM */
static char * maximizeI_xpm[] = {
"20 42 103 2",
"  	c #101013",
". 	c #121214",
"+ 	c #1B1B1E",
"@ 	c #222225",
"# 	c #242427",
"$ 	c #17171A",
"% 	c #252528",
"& 	c #1B1B1D",
"* 	c #212125",
"= 	c #121215",
"- 	c #1F0F23",
"; 	c #6A087A",
"> 	c #A102C1",
", 	c #B101DA",
"' 	c #AE01DA",
") 	c #9C02C3",
"! 	c #69087A",
"~ 	c #490B54",
"{ 	c #B801D5",
"] 	c #BB00E6",
"^ 	c #B500EA",
"/ 	c #B000EC",
"( 	c #AA00EF",
"_ 	c #A400F2",
": 	c #A000F2",
"< 	c #A501DC",
"[ 	c #490B53",
"} 	c #C100DC",
"| 	c #C100E4",
"1 	c #BB00E7",
"2 	c #9E00F4",
"3 	c #9800F7",
"4 	c #9F00EB",
"5 	c #BD01D3",
"6 	c #C700E1",
"7 	c #7C179E",
"8 	c #592671",
"9 	c #582672",
"0 	c #572672",
"a 	c #592479",
"b 	c #8A08DA",
"c 	c #9200FA",
"d 	c #9F01DF",
"e 	c #1E0F22",
"f 	c #6B087A",
"g 	c #CC00DE",
"h 	c #C000E3",
"i 	c #B301E6",
"j 	c #642180",
"k 	c #432F52",
"l 	c #6E17A6",
"m 	c #8F00FA",
"n 	c #670879",
"o 	c #AB02BB",
"p 	c #CD00DF",
"q 	c #82189B",
"r 	c #B104DB",
"s 	c #AE01E8",
"t 	c #632083",
"u 	c #6E18A4",
"v 	c #8C00FD",
"w 	c #9302C6",
"x 	c #C001D2",
"y 	c #6B2080",
"z 	c #59266E",
"A 	c #AD04DE",
"B 	c #A801EB",
"C 	c #612084",
"D 	c #9D01E1",
"E 	c #C001D1",
"F 	c #A704DF",
"G 	c #A201EE",
"H 	c #5F2085",
"I 	c #9D01E0",
"J 	c #AA02BB",
"K 	c #57266F",
"L 	c #A203E3",
"M 	c #9C01F0",
"N 	c #840BD0",
"O 	c #6B0879",
"P 	c #711E87",
"Q 	c #562670",
"R 	c #9D03E6",
"S 	c #660878",
"T 	c #BD01D2",
"U 	c #B405D5",
"V 	c #8515A4",
"W 	c #8016A3",
"X 	c #7D16A4",
"Y 	c #7A16A5",
"Z 	c #870EC4",
"` 	c #9F01DE",
" .	c #1D0F22",
"..	c #C100DB",
"+.	c #B600EA",
"@.	c #470B52",
"#.	c #B701D4",
"$.	c #690878",
"%.	c #A002BF",
"&.	c #B001D9",
"*.	c #AD01DA",
"=.	c #9B02C1",
"-.	c #670878",
"                                        ",
"                                        ",
"                                        ",
"                . + @ # # @ + .         ",
"              $ # % % % % % % # $       ",
"            $ % % % % % % % % % % $     ",
"          . # % % % % % % % % % % # .   ",
"          + % % % % % % % % % % % % &   ",
"          @ % % % % % % % % % % % % *   ",
"          # % % % % % % % % % % % % #   ",
"          # % % % % % % % % % % % % #   ",
"          @ % % % % % % % % % % % % *   ",
"          + % % % % % % % % % % % % &   ",
"          . # % % % % % % % % % % # =   ",
"            $ % % % % % % % % % % $     ",
"              $ # % % % % % % # $       ",
"                . & @ # # @ & =         ",
"                                        ",
"                                        ",
"                                        ",
"                                        ",
"                                        ",
"                                        ",
"                                        ",
"                - ; > , ' ) ! -         ",
"              ~ { ] ^ / ( _ : < [       ",
"            ~ } | 1 ^ / ( _ 2 3 4 [     ",
"          - 5 6 | 1 7 8 9 0 a b c d e   ",
"          f g 6 h 1 i j k k k l c m n   ",
"          o p 6 q r ^ s t k k u c v w   ",
"          x p 6 y z A / B C k u c v D   ",
"          E p 6 y k z F ( G H u c v I   ",
"          J p 6 y k k K L _ M N c v w   ",
"          O g 6 P k k k Q R 2 3 c m S   ",
"          - T 6 U V W X Y Z 2 3 c `  .  ",
"            [ ..| 1 +./ ( _ 2 3 4 @.    ",
"              [ #.] +./ ( _ : < @.      ",
"                e $.%.&.*.=.-. .        ",
"                                        ",
"                                        ",
"                                        ",
"                                        "};
