/* XPM */
static char * linux_xpm[] = {
"45 18 69 1",
" 	c None",
".	c #414141",
"+	c #4C4C4C",
"@	c #404040",
"#	c #4F4F4F",
"$	c #CCCCCC",
"%	c #C3C3C3",
"&	c #C4C4C4",
"*	c #9C802B",
"=	c #E0AB0C",
"-	c #DFAA0C",
";	c #9C7F2C",
">	c #3F3F3F",
",	c #E39C0D",
"'	c #EAAF0A",
")	c #E39B0D",
"!	c #4B4B4B",
"~	c #BB946C",
"{	c #F88A1A",
"]	c #BA946C",
"^	c #8F8F8F",
"/	c #BDBDBD",
"(	c #FFFFFF",
"_	c #BCBCBC",
":	c #626262",
"<	c #4A4A4A",
"[	c #565656",
"}	c #ECECEC",
"|	c #4E4E4E",
"1	c #ABABAB",
"2	c #4D4D4D",
"3	c #F0F0F0",
"4	c #EEE7D1",
"5	c #52514D",
"6	c #50504D",
"7	c #866826",
"8	c #E3AC0D",
"9	c #C1971A",
"0	c #73663F",
"a	c #E9E9E9",
"b	c #E9CA6F",
"c	c #806E39",
"d	c #857136",
"e	c #E6AE0B",
"f	c #53452B",
"g	c #DFA910",
"h	c #EAB108",
"i	c #E9B109",
"j	c #C4AB61",
"k	c #D4AD3B",
"l	c #E7B00A",
"m	c #C79819",
"n	c #BE901C",
"o	c #E9B008",
"p	c #BEAB73",
"q	c #A8A8A8",
"r	c #C99C18",
"s	c #DBA611",
"t	c #D2A213",
"u	c #484848",
"v	c #DFA90F",
"w	c #B1861F",
"x	c #795D28",
"y	c #AE8420",
"z	c #D29E15",
"A	c #BB8F1D",
"B	c #BF901C",
"C	c #E5AD0C",
"D	c #A87F22",
"                                             ",
"                     .++@                    ",
"                    .####@                   ",
"                    +$$$$+                   ",
"                    #%&%&#                   ",
"                    #*=-;#                   ",
"                   >#,'')#>                  ",
"                   !#~{{]#!                  ",
"                  ^##/((_##:                 ",
"                  <#[}((}[#<                 ",
"                  |#1((((1#|                 ",
"                  2#3((((4567                ",
"                 890a((((bcdef               ",
"                ghhij((((klihm               ",
"                nhhhop}}qrhhhn               ",
"                shhhht||uvhhw                ",
"                 xyzeA   BCD                 ",
"                                             "};
