/* XPM */
static char * close_xpm[] = {
"16 16 38 1",
" 	c #F2F2F2",
".	c #F2E5E6",
"+	c #F3A7AA",
"@	c #F47C82",
"#	c #F3666D",
"$	c #F37C81",
"%	c #F3A7AB",
"&	c #F2C1C3",
"*	c #F4676E",
"=	c #F46067",
"-	c #F2C2C4",
";	c #F46168",
">	c #F4686F",
",	c #F4686E",
"'	c #F2E6E6",
")	c #F2EFEF",
"!	c #F3B9BB",
"~	c #F3B6B9",
"{	c #F2F1F1",
"]	c #F3A8AC",
"^	c #F47B81",
"/	c #F3A9AD",
"(	c #F3BBBE",
"_	c #F3BBBD",
":	c #F3AEB2",
"<	c #F3ADB0",
"[	c #F3B0B3",
"}	c #F46269",
"|	c #F3BCBE",
"1	c #F2C0C3",
"2	c #F3B9BC",
"3	c #F3BABD",
"4	c #F3A5A9",
"5	c #F3A9AC",
"6	c #F2E7E7",
"7	c #F2C3C5",
"8	c #F37C82",
"9	c #F4666D",
"                ",
"                ",
"     .+@##$%.   ",
"    &*======*-  ",
"   &;========;- ",
"  .*==>====,==,'",
"  +===)!;;~{===]",
"  ^===/ (_ :===$",
"  *====<  [====*",
"  *===}|  1}===,",
"  @===2 // 3===$",
"  %===.4==4.===5",
"  .*==========>6",
"   -;========;7 ",
"    -,======>7  ",
"     ']899856   "};
