/* XPM */
static char * close_pressed_xpm[] = {
"16 16 39 1",
" 	c #F2F2F2",
".	c #F2EDED",
"+	c #F1AFB2",
"@	c #F17379",
"#	c #F14E55",
"$	c #F13841",
"%	c #F1B0B3",
"&	c #F14A51",
"*	c #F13039",
"=	c #F14A52",
"-	c #F1B3B6",
";	c #F14951",
">	c #F2F1F1",
",	c #F2C5C7",
"'	c #F14048",
")	c #F13E46",
"!	c #F1C1C3",
"~	c #F1B1B4",
"{	c #F2D0D2",
"]	c #F1CDCF",
"^	c #F2D4D5",
"/	c #F1757B",
"(	c #F14D55",
"_	c #F2464E",
":	c #F2D7D8",
"<	c #F2DADB",
"[	c #F14850",
"}	c #F13941",
"|	c #F1424B",
"1	c #F2D3D4",
"2	c #F2DCDD",
"3	c #F1424A",
"4	c #F2D1D3",
"5	c #F2CCCE",
"6	c #F1B2B5",
"7	c #F2EEEE",
"8	c #F14B53",
"9	c #F2B6B9",
"0	c #F14E56",
"                ",
"    .+@#$#@%.   ",
"    &*******=-  ",
"   ***********  ",
" .=***********;.",
" +***>,'*)! ***~",
" @***{ {'] ^***/",
" (***_: { <[***#",
" }****|1 2&****}",
" (***34 ^ ^|***#",
" @***5 ^|^ ]***/",
" %***>]|*|] ***6",
" 78***********&.",
"  -***********9 ",
"    8*******89  ",
"    7~/0}0/67   "};
