/* XPM */
static char * max_xpm[] = {
"16 15 9 1",
" 	c #F2F2F2",
".	c #EEEEEE",
"+	c #8D8D8D",
"@	c #5D5D5D",
"#	c #797979",
"$	c #898989",
"%	c #F0F0F0",
"&	c #909090",
"*	c #787878",
"                ",
"                ",
"                ",
"                ",
"                ",
"       .+@@#    ",
"      . .+@@    ",
"      $. %&@    ",
"      @$. %&    ",
"      @@+. .    ",
"      *@@+.     ",
"                ",
"                ",
"                ",
"                "};
