/* XPM */
static char * max_pressed_xpm[] = {
"16 16 28 1",
" 	c #F2F2F2",
".	c #EDF0F0",
"+	c #AFDCD3",
"@	c #72C9B7",
"#	c #4CBDA6",
"$	c #36B59B",
"%	c #B0DCD3",
"&	c #B2DDD4",
"*	c #48BBA4",
"=	c #2EB398",
"-	c #49BBA4",
";	c #B4DED6",
">	c #47BBA3",
",	c #FFFFFF",
"'	c #C4EAE2",
")	c #B0DDD4",
"!	c #72C9B8",
"~	c #74C9B8",
"{	c #4ABCA5",
"]	c #37B69C",
"^	c #38B69D",
"/	c #4BBCA5",
"(	c #4DBDA6",
"_	c #C5EAE2",
":	c #EFF9F7",
"<	c #B1DDD4",
"[	c #EEF1F0",
"}	c #F0F1F1",
"                ",
"    .+@#$#@%.   ",
"   &*=======-   ",
"  &===========; ",
" .-===========>.",
" +=====,,,,'===)",
" !======,,,,===~",
" {===,===,,,===#",
" ]===,,===,,===^",
" /===,,,===,===(",
" @===,,,,======~",
" %===_,,:,=====<",
" [{===========*.",
"   ==========}  ",
"   ;{======={   ",
"    [)~(](~<[   "};
