/* XPM */
static char * min_pressed_xpm[] = {
"16 16 20 1",
" 	c #F2F2F2",
".	c #AFDCD3",
"+	c #72C9B7",
"@	c #4CBDA6",
"#	c #36B59B",
"$	c #EDF0F0",
"%	c #2EB398",
"&	c #B4DED6",
"*	c #B0DDD4",
"=	c #72C9B8",
"-	c #74C9B8",
";	c #4ABCA5",
">	c #37B69C",
",	c #FFFFFF",
"'	c #38B69D",
")	c #4BBCA5",
"!	c #4DBDA6",
"~	c #EEF1F0",
"{	c #48BBA4",
"]	c #B5DED6",
"                ",
"     .+@#@+$    ",
"   %%%%%%%%%%%  ",
"  %%%%%%%%%%%%& ",
"  %%%%%%%%%%%%& ",
" .%%%%%%%%%%%%%*",
" =%%%%%%%%%%%%%-",
" ;%%%%%%%%%%%%%@",
" >%%%,,,,,,,%%%'",
" )%%%,,,,,,,%%%!",
" +%%%%%%%%%%%%%-",
" ~%%%%%%%%%%%%{$",
"  %%%%%%%%%%%%] ",
"  %%%%%%%%%%%%] ",
"   &&%%%%%%;]]  ",
"     *-!>!-~    "};
