/* XPM */
static char * closeA_xpm[] = {
"28 42 66 1",
" 	c #2A2E32",
".	c #686B6F",
"+	c #ACAEB0",
"@	c #DCDDDE",
"#	c #F3F3F4",
"$	c #DCDCDD",
"%	c #ABADAF",
"&	c #676B6E",
"*	c #505458",
"=	c #CBCCCD",
"-	c #FCFCFC",
";	c #CACBCD",
">	c #4F5357",
",	c #62666A",
"'	c #EEEFEF",
")	c #616569",
"!	c #EDEEEE",
"~	c #4E5257",
"{	c #E3E4E4",
"]	c #C9CBCC",
"^	c #E2E3E3",
"/	c #43474C",
"(	c #666A6D",
"_	c #ADAFB1",
":	c #CDCECF",
"<	c #C8C9CA",
"[	c #F1F2F2",
"}	c #DBDCDC",
"|	c #AAACAE",
"1	c #65696D",
"2	c #C8CACB",
"3	c #4C5054",
"4	c #ECECED",
"5	c #F2F3F3",
"6	c #5F3941",
"7	c #983E49",
"8	c #C0424F",
"9	c #D34352",
"0	c #C0414F",
"a	c #973E49",
"b	c #5E3A41",
"c	c #4A383E",
"d	c #B1404D",
"e	c #DA4453",
"f	c #B0404D",
"g	c #5A3A41",
"h	c #CE4351",
"i	c #593941",
"j	c #49383F",
"k	c #C54350",
"l	c #AF414D",
"m	c #C54250",
"n	c #40373D",
"o	c #5D3A41",
"p	c #983F4A",
"q	c #B3414D",
"r	c #AF404D",
"s	c #973F4A",
"t	c #D14452",
"u	c #BF424F",
"v	c #963F49",
"w	c #5C3A41",
"x	c #AE414D",
"y	c #47383E",
"z	c #CD4351",
"A	c #D24452",
"           .+@##$%&         ",
"         *=--------;>       ",
"        ,'----------')      ",
"       *'------------!~     ",
"       =---{------{---]     ",
"      .---^/;----;/^---(    ",
"      _----:/<--:/<----%    ",
"      @-----]/]]/]-----$    ",
"      [------]//]------[    ",
"      [------]//]------[    ",
"      @-----]/]]/]-----}    ",
"      +----:/<--:/<----|    ",
"      &---^/]----]/^---1    ",
"       ;---^------^---2     ",
"       34------------!~     ",
"        )!----------!)      ",
"         >]--------2~       ",
"           (%}55}%1         ",
"                            ",
"                            ",
"                            ",
"           678990ab         ",
"         cdeeeeeeeefc       ",
"        gheeeeeeeeeehi      ",
"       cheeeeeeeeeeeehj     ",
"       deeekeeeeeekeeel     ",
"      6eeemnfeeeefnmeeeo    ",
"      peeeeqnreeqnreeees    ",
"      8eeeeelnllnleeeee0    ",
"      teeeeeelnnleeeeeet    ",
"      teeeeeelnnleeeeeet    ",
"      8eeeeelnllnleeeeeu    ",
"      7eeeeqnreeqnreeeev    ",
"      beeemnleeeelnmeeew    ",
"       feeemeeeeeemeeex     ",
"       yzeeeeeeeeeeeehj     ",
"        iheeeeeeeeeehi      ",
"         cleeeeeeeexj       ",
"           osuAAusw         ",
"                            ",
"                            ",
"                            "};
