/* XPM */
static char * closeI_xpm[] = {
"28 42 43 1",
" 	c #2A2E32",
".	c #4B5054",
"+	c #727980",
"@	c #8E969E",
"#	c #9CA4AB",
"$	c #8F959D",
"%	c #72787F",
"&	c #4A4F54",
"*	c #3C4045",
"=	c #848B92",
"-	c #A1A9B1",
";	c #838A91",
">	c #3B4045",
",	c #474C51",
"'	c #99A1A8",
")	c #474B50",
"!	c #99A0A9",
"~	c #3B3F44",
"{	c #929AA1",
"]	c #34393D",
"^	c #494E54",
"/	c #72797F",
"(	c #858C93",
"_	c #828990",
":	c #72777E",
"<	c #9BA2AB",
"[	c #8E959D",
"}	c #71787E",
"|	c #494E53",
"1	c #3A3E43",
"2	c #97A0A7",
"3	c #9BA3AB",
"4	c #DB4352",
"5	c #DC4453",
"6	c #DB4453",
"7	c #DB4353",
"8	c #DB4452",
"9	c #DC4353",
"0	c #DB4553",
"a	c #DA4452",
"b	c #DB4354",
"c	c #DA4453",
"d	c #DC4552",
"           .+@##$%&         ",
"         *=--------;>       ",
"        ,'----------')      ",
"       *'------------!~     ",
"       =---{------{---=     ",
"      .---{];----;]{---^    ",
"      /----(]_--(]_----:    ",
"      @-----=]==]=-----$    ",
"      <------=]]=------<    ",
"      <------=]]=------<    ",
"      @-----=]==]=-----[    ",
"      +----(]_--(]_----}    ",
"      &---{]=----=]{---|    ",
"       ;---{------{---;     ",
"       12------------!~     ",
"        )!----------!)      ",
"         >=--------;~       ",
"           ^:[33[:|         ",
"                            ",
"                            ",
"                            ",
"            456666          ",
"          7666666668        ",
"         666666666666       ",
"        66666666666666      ",
"       7666666666666666     ",
"       6669 866668 9666     ",
"      06666a b66a b6666c    ",
"      5666666 66 6666666    ",
"      66666666  66666666    ",
"      66666666  66666666    ",
"      5666666 66 6666666    ",
"      46666a b66a b6666d    ",
"       6669 666666 9666     ",
"       8666966666696666     ",
"        86666666666666      ",
"         666666666666       ",
"          6666666666        ",
"            c6666c          ",
"                            ",
"                            ",
"                            "};
