/* XPM */
static char * restoreI_xpm[] = {
"20 42 33 1",
" 	c #2A2E32",
".	c #2D3134",
"+	c #636466",
"@	c #646567",
"#	c #2E3235",
"$	c #626465",
"%	c #2B2F33",
"&	c #393C40",
"*	c #515356",
"=	c #646667",
"-	c #6D6F70",
";	c #505355",
">	c #383C40",
",	c #32363A",
"'	c #5D5F61",
")	c #717274",
"!	c #5D5E61",
"~	c #323539",
"{	c #373B3E",
"]	c #6B6D6E",
"^	c #373A3E",
"/	c #6F7071",
"(	c #313539",
"_	c #5C5E60",
":	c #3B3F42",
"<	c #383C3F",
"[	c #6F7172",
"}	c #3A3D41",
"|	c #6D6E6F",
"1	c #636567",
"2	c #505255",
"3	c #383B3F",
"4	c #6A6C6D",
"                    ",
"                    ",
"                    ",
"          ..        ",
"         .+@#       ",
"        .++++.      ",
"       .+@#.$@#     ",
"      .+@#  .$@#    ",
"     .+@#    .$@#   ",
"     .$@#    .+@#   ",
"      .$@#  .+@#    ",
"       .$@#.+@#     ",
"        .++++.      ",
"         .$@#       ",
"          ..        ",
"                    ",
"                    ",
"                    ",
"                    ",
"                    ",
"                    ",
"  %%%%%&*=--@;>%%%%%",
"  %%%,'))))))))!~%%%",
"  %%{]))))))))))]^%%",
"  %,])))))//)))))](%",
"  %_)))))/::/)))))'%",
"  &)))))/::::/)))))<",
"  *))))[:}/[:}/))));",
"  =)))[:}/))[:}/)))@",
"  -))/::/))))/::/))-",
"  -))/::/))))/::/))|",
"  =)))[:}/))[:}/)))1",
"  *))))[:}/[:}/))))2",
"  >)))))/::::/)))))3",
"  %_)))))/::/)))))!%",
"  %(4)))))//)))))](%",
"  %%^]))))))))))]^%%",
"  %%%~_))))))))_(%%%",
"  %%%%%<;1--1;3%%%%%",
"                    ",
"                    ",
"                    "};
