/* XPM */
static char * restoreA_xpm[] = {
"20 42 34 1",
" 	c #2A2E32",
".	c #3A3D40",
"+	c #D9D9D9",
"@	c #DCDCDC",
"#	c #3F4244",
"$	c #D8D9D9",
"%	c #2B2F33",
"&	c #393C40",
"*	c #515356",
"=	c #646667",
"-	c #6D6F70",
";	c #646567",
">	c #505355",
",	c #383C40",
"'	c #32363A",
")	c #5D5F61",
"!	c #717274",
"~	c #5D5E61",
"{	c #323539",
"]	c #373B3E",
"^	c #6B6D6E",
"/	c #373A3E",
"(	c #6F7071",
"_	c #313539",
":	c #5C5E60",
"<	c #3B3F42",
"[	c #383C3F",
"}	c #6F7172",
"|	c #3A3D41",
"1	c #6D6E6F",
"2	c #636567",
"3	c #505255",
"4	c #383B3F",
"5	c #6A6C6D",
"                    ",
"                    ",
"                    ",
"          ..        ",
"         .+@#       ",
"        .++++.      ",
"       .+@#.$@#     ",
"      .+@#  .$@#    ",
"     .+@#    .$@#   ",
"     .$@#    .+@#   ",
"      .$@#  .+@#    ",
"       .$@#.+@#     ",
"        .++++.      ",
"         .$@#       ",
"          ..        ",
"                    ",
"                    ",
"                    ",
"                    ",
"                    ",
"                    ",
"  %%%%%&*=--;>,%%%%%",
"  %%%')!!!!!!!!~{%%%",
"  %%]^!!!!!!!!!!^/%%",
"  %'^!!!!!((!!!!!^_%",
"  %:!!!!!(<<(!!!!!)%",
"  &!!!!!(<<<<(!!!!![",
"  *!!!!}<|(}<|(!!!!>",
"  =!!!}<|(!!}<|(!!!;",
"  -!!(<<(!!!!(<<(!!-",
"  -!!(<<(!!!!(<<(!!1",
"  =!!!}<|(!!}<|(!!!2",
"  *!!!!}<|(}<|(!!!!3",
"  ,!!!!!(<<<<(!!!!!4",
"  %:!!!!!(<<(!!!!!~%",
"  %_5!!!!!((!!!!!^_%",
"  %%/^!!!!!!!!!!^/%%",
"  %%%{:!!!!!!!!:_%%%",
"  %%%%%[>2--2>4%%%%%",
"                    ",
"                    ",
"                    "};
