/* XPM */
static char * closeA_xpm[] = {
"28 42 114 2",
"  	c #FFFFFF",
". 	c #FDE8EE",
"+ 	c #F46D8D",
"@ 	c #F34D6C",
"# 	c #F3415E",
"$ 	c #F3415C",
"% 	c #F34D68",
"& 	c #F4708A",
"* 	c #FDE9EF",
"= 	c #F79EB4",
"- 	c #F33B61",
"; 	c #FE4150",
"> 	c #FF464B",
", 	c #FF4744",
"' 	c #FF483E",
") 	c #FF4938",
"! 	c #FE4633",
"~ 	c #F33E52",
"{ 	c #F7A0B2",
"] 	c #F79EB5",
"^ 	c #F73B5F",
"/ 	c #FF4457",
"( 	c #FF4551",
"_ 	c #FF4745",
": 	c #FF4A32",
"< 	c #FF4B2C",
"[ 	c #F73F41",
"} 	c #F7A2B3",
"| 	c #F33B65",
"1 	c #FF435D",
"2 	c #FF4B2B",
"3 	c #F33E51",
"4 	c #FDEAEF",
"5 	c #F46F91",
"6 	c #FE3E62",
"7 	c #FF435E",
"8 	c #FF483F",
"9 	c #FD462C",
"0 	c #F4728A",
"a 	c #F34B74",
"b 	c #FF4264",
"c 	c #FF4458",
"d 	c #FF4939",
"e 	c #F34F64",
"f 	c #F33E6B",
"g 	c #FF4552",
"h 	c #FF4A33",
"i 	c #F34255",
"j 	c #F33E6C",
"k 	c #FF464C",
"l 	c #FF4B2D",
"m 	c #F34256",
"n 	c #FF4265",
"o 	c #FF4746",
"p 	c #F34E64",
"q 	c #F46F92",
"r 	c #FE3E63",
"s 	c #FF435F",
"t 	c #FF4840",
"u 	c #F33B66",
"v 	c #FF4459",
"w 	c #FF493A",
"x 	c #F33F52",
"y 	c #FDEBF0",
"z 	c #F7A0B6",
"A 	c #F73A60",
"B 	c #FF4A34",
"C 	c #F63E42",
"D 	c #F7A3B3",
"E 	c #F7A1B7",
"F 	c #F33B62",
"G 	c #FD4152",
"H 	c #FD4535",
"I 	c #F33F53",
"J 	c #F4708F",
"K 	c #F34D6E",
"L 	c #F34F69",
"M 	c #F4728C",
"N 	c #FBECEE",
"O 	c #E98C93",
"P 	c #E35059",
"Q 	c #E33F48",
"R 	c #E33E49",
"S 	c #E3505A",
"T 	c #E98D94",
"U 	c #F1B6BB",
"V 	c #E33F4A",
"W 	c #F04D54",
"X 	c #F25056",
"Y 	c #E33F49",
"Z 	c #F1B7BB",
"` 	c #E8414A",
" .	c #E3474E",
"..	c #DB414A",
"+.	c #DB424A",
"@.	c #E4484E",
"#.	c #E3404A",
"$.	c #FCEDEE",
"%.	c #A21E2C",
"&.	c #D53E47",
"*.	c #F04E54",
"=.	c #EB8F96",
"-.	c #E34F59",
";.	c #D63F47",
">.	c #D43D47",
",.	c #E3515A",
"'.	c #E34049",
").	c #A11E2C",
"!.	c #EB9097",
"~.	c #E2414A",
"{.	c #FCEEEF",
"].	c #E8424A",
"^.	c #F1B9BD",
"/.	c #E3515B",
"                                                        ",
"                                                        ",
"                                                        ",
"                        . + @ # $ % & *                 ",
"                      = - ; > , ' ) ! ~ {               ",
"                    ] ^ / ( > _ ' ) : < [ }             ",
"                  . | 1 / ( > _ ' ) : < 2 3 4           ",
"                  5 6 7 / ( > _ 8 ) : < 2 9 0           ",
"                  a b 7 c ( > _ 8 d : < 2 2 e           ",
"                  f b 7 c g > _ 8 d h < 2 2 i           ",
"                  j b 7 c g k _ 8 d h l 2 2 m           ",
"                  a n 7 c g k o 8 d h l 2 2 p           ",
"                  q r s c g k o t d h l 2 9 0           ",
"                  * u s v g k o t w h l 2 x y           ",
"                    z A v g k o t w B l C D             ",
"                      E F G k o t w H I D               ",
"                        4 J K # $ L M y                 ",
"                                                        ",
"                                                        ",
"                                                        ",
"                                                        ",
"                                                        ",
"                                                        ",
"                                                        ",
"                        N O P Q R S T N                 ",
"                      U V W X X X X W Y Z               ",
"                    U ` X X X X X X X X ` Z             ",
"                  N V X  ...X X X X +.@.X #.$.          ",
"                  O W X +.%.&.X X &.%.+.X *.=.          ",
"                  -.X X X ;.%.>.;.%.>.X X X ,.          ",
"                  Y X X X X &.%.%.&.X X X X '.          ",
"                  V X X X X &.).).&.X X X X V           ",
"                  S X X X ;.%.>.;.%.>.X X X ,.          ",
"                  T W X +.).&.X X &.%.+.X W !.          ",
"                  N Y X @.+.X X X X +.@.X ~.{.          ",
"                    Z ` X X X X X X X X ].^.            ",
"                      Z V *.X X X X W ~.^.              ",
"                        $.=./.R R /.!.{.                ",
"                                                        ",
"                                                        ",
"                                                        ",
"                                                        "};
