/* XPM */
static char * closeI_xpm[] = {
"28 42 50 1",
" 	c #FFFFFF",
".	c #F9F9F9",
"+	c #D8D8D8",
"@	c #C6C6C6",
"#	c #C1C1C1",
"$	c #C5C5C5",
"%	c #E6E6E6",
"&	c #D0D0D0",
"*	c #D4D4D4",
"=	c #C2C2C2",
"-	c #C4C4C4",
";	c #D9D9D9",
">	c #E7E7E7",
",	c #C7C7C7",
"'	c #FBECEE",
")	c #E98C93",
"!	c #E35059",
"~	c #E33F48",
"{	c #E33E49",
"]	c #E3505A",
"^	c #E98D94",
"/	c #F1B6BB",
"(	c #E33F4A",
"_	c #F04D54",
":	c #F25056",
"<	c #E33F49",
"[	c #F1B7BB",
"}	c #E8414A",
"|	c #E3474E",
"1	c #DB414A",
"2	c #DB424A",
"3	c #E4484E",
"4	c #E3404A",
"5	c #FCEDEE",
"6	c #A21E2C",
"7	c #D53E47",
"8	c #F04E54",
"9	c #EB8F96",
"0	c #E34F59",
"a	c #D63F47",
"b	c #D43D47",
"c	c #E3515A",
"d	c #E34049",
"e	c #A11E2C",
"f	c #EB9097",
"g	c #E2414A",
"h	c #FCEEEF",
"i	c #E8424A",
"j	c #F1B9BD",
"k	c #E3515B",
"                            ",
"                            ",
"                            ",
"            .+@##$+.        ",
"           %#&****&=%       ",
"          %$********-%      ",
"         .#**********#.     ",
"         +&**********&;     ",
"         @************$     ",
"         =************=     ",
"         =************=     ",
"         @************$     ",
"         +&**********&;     ",
"         .=**********#.     ",
"          %-********->      ",
"           %#&****&#>       ",
"            .;,==,;.        ",
"                            ",
"                            ",
"                            ",
"                            ",
"                            ",
"                            ",
"                            ",
"            ')!~{]^'        ",
"           /(_::::_<[       ",
"          /}::::::::}[      ",
"         '(:|1::::23:45     ",
"         )_:267::762:89     ",
"         0:::a6ba6b:::c     ",
"         <::::7667::::d     ",
"         (::::7ee7::::(     ",
"         ]:::a6ba6b:::c     ",
"         ^_:2e7::762:_f     ",
"         '<:32::::23:gh     ",
"          [}::::::::ij      ",
"           [(8::::_gj       ",
"            59k{{kfh        ",
"                            ",
"                            ",
"                            ",
"                            "};
