/* XPM */
static char * maximizeI_xpm[] = {
"20 42 109 2",
"  	c #FFFFFF",
". 	c #F9F9F9",
"+ 	c #D8D8D8",
"@ 	c #C6C6C6",
"# 	c #C1C1C1",
"$ 	c #C5C5C5",
"% 	c #E6E6E6",
"& 	c #D0D0D0",
"* 	c #D4D4D4",
"= 	c #C2C2C2",
"- 	c #C4C4C4",
"; 	c #D9D9D9",
"> 	c #E7E7E7",
", 	c #C7C7C7",
"' 	c #F9E9FB",
") 	c #D876E8",
"! 	c #C021DF",
"~ 	c #B606DF",
"{ 	c #B306E0",
"] 	c #BB22E2",
"^ 	c #D877E9",
"/ 	c #E7A9F0",
"( 	c #BE07DB",
"_ 	c #BB00E6",
": 	c #B500EA",
"< 	c #B000EC",
"[ 	c #AA00EF",
"} 	c #A400F2",
"| 	c #A000F2",
"1 	c #AC07E3",
"2 	c #E8AAF0",
"3 	c #C200DC",
"4 	c #C100E4",
"5 	c #BB00E7",
"6 	c #9E00F4",
"7 	c #9800F7",
"8 	c #9F00EC",
"9 	c #C307D9",
"0 	c #C700E1",
"a 	c #7C179E",
"b 	c #592671",
"c 	c #582672",
"d 	c #572672",
"e 	c #592479",
"f 	c #8A08DA",
"g 	c #9200FA",
"h 	c #A608E6",
"i 	c #F9EAFB",
"j 	c #D976E8",
"k 	c #CC00DE",
"l 	c #C000E3",
"m 	c #B301E6",
"n 	c #642180",
"o 	c #432F52",
"p 	c #6E17A6",
"q 	c #8F00FA",
"r 	c #D879E9",
"s 	c #CA21DA",
"t 	c #CD00DF",
"u 	c #82189B",
"v 	c #B104DB",
"w 	c #AE01E8",
"x 	c #632083",
"y 	c #6E18A4",
"z 	c #8C00FD",
"A 	c #B423E6",
"B 	c #C607D8",
"C 	c #6B2080",
"D 	c #59266E",
"E 	c #AD04DE",
"F 	c #A801EB",
"G 	c #612084",
"H 	c #A407E7",
"I 	c #C607D7",
"J 	c #A704DF",
"K 	c #A201EE",
"L 	c #5F2085",
"M 	c #A508E7",
"N 	c #CA22DA",
"O 	c #57266F",
"P 	c #A203E3",
"Q 	c #9C01F0",
"R 	c #840BD0",
"S 	c #DA77E8",
"T 	c #711E87",
"U 	c #562670",
"V 	c #9D03E6",
"W 	c #D87AE9",
"X 	c #C407D9",
"Y 	c #B405D5",
"Z 	c #8515A4",
"` 	c #8016A3",
" .	c #7D16A4",
"..	c #7A16A5",
"+.	c #870EC4",
"@.	c #A709E6",
"#.	c #F9EBFB",
"$.	c #C100DC",
"%.	c #B600EA",
"&.	c #A000EB",
"*.	c #E8ACF1",
"=.	c #BF08DB",
"-.	c #AD09E4",
";.	c #DA79E8",
">.	c #C123E0",
",.	c #B607DF",
"'.	c #B307E0",
").	c #BC23E2",
"!.	c #D97AE9",
"                                        ",
"                                        ",
"                                        ",
"                . + @ # # $ + .         ",
"              % # & * * * * & = %       ",
"            % $ * * * * * * * * - %     ",
"          . # * * * * * * * * * * # .   ",
"          + & * * * * * * * * * * & ;   ",
"          @ * * * * * * * * * * * * $   ",
"          = * * * * * * * * * * * * =   ",
"          = * * * * * * * * * * * * =   ",
"          @ * * * * * * * * * * * * $   ",
"          + & * * * * * * * * * * & ;   ",
"          . = * * * * * * * * * * # .   ",
"            % - * * * * * * * * - >     ",
"              % # & * * * * & # >       ",
"                . ; , = = , ; .         ",
"                                        ",
"                                        ",
"                                        ",
"                                        ",
"                                        ",
"                                        ",
"                                        ",
"                ' ) ! ~ { ] ^ '         ",
"              / ( _ : < [ } | 1 2       ",
"            / 3 4 5 : < [ } 6 7 8 2     ",
"          ' 9 0 4 5 a b c d e f g h i   ",
"          j k 0 l 5 m n o o o p g q r   ",
"          s t 0 u v : w x o o y g z A   ",
"          B t 0 C D E < F G o y g z H   ",
"          I t 0 C o D J [ K L y g z M   ",
"          N t 0 C o o O P } Q R g z A   ",
"          S k 0 T o o o U V 6 7 g q W   ",
"          ' X 0 Y Z `  ...+.6 7 g @.#.  ",
"            2 $.4 5 %.< [ } 6 7 &.*.    ",
"              2 =._ %.< [ } | -.*.      ",
"                i ;.>.,.'.).!.#.        ",
"                                        ",
"                                        ",
"                                        ",
"                                        "};
