/* XPM */
static char * minimizeI_xpm[] = {
"20 42 42 1",
" 	c #FFFFFF",
".	c #F9F9F9",
"+	c #D8D8D8",
"@	c #C6C6C6",
"#	c #C1C1C1",
"$	c #C5C5C5",
"%	c #E6E6E6",
"&	c #D0D0D0",
"*	c #D4D4D4",
"=	c #C2C2C2",
"-	c #C4C4C4",
";	c #D9D9D9",
">	c #E7E7E7",
",	c #C7C7C7",
"'	c #FCF7EA",
")	c #EDCD80",
"!	c #E8B63B",
"~	c #EAB226",
"{	c #EAB126",
"]	c #E8B73C",
"^	c #EDCD81",
"/	c #F3DFAE",
"(	c #EAB227",
"_	c #F8C334",
":	c #FAC536",
"<	c #EAB228",
"[	c #F3DFAF",
"}	c #EFB729",
"|	c #E9B228",
"1	c #FCF7EB",
"2	c #F8C333",
"3	c #EDCE82",
"4	c #E8B63A",
"5	c #E9B73C",
"6	c #EAB328",
"7	c #D9A12B",
"8	c #BF8422",
"9	c #F7C233",
"0	c #EDCE83",
"a	c #FCF7EC",
"b	c #EEB628",
"c	c #F3E0B1",
"                    ",
"                    ",
"                    ",
"      .+@##$+.      ",
"     %#&****&=%     ",
"    %$********-%    ",
"   .#**********#.   ",
"   +&**********&;   ",
"   @************$   ",
"   =************=   ",
"   =************=   ",
"   @************$   ",
"   +&**********&;   ",
"   .=**********#.   ",
"    %-********->    ",
"     %#&****&#>     ",
"      .;,==,;.      ",
"                    ",
"                    ",
"                    ",
"                    ",
"                    ",
"                    ",
"                    ",
"      ')!~{]^'      ",
"     /(_::::_<[     ",
"    /}::::::::}[    ",
"   '(::::::::::|1   ",
"   )_::::::::::23   ",
"   4::::::::::::5   ",
"   6:7888888887:(   ",
"   (:7888888887:<   ",
"   !::::::::::::5   ",
"   ^_::::::::::90   ",
"   '<::::::::::|a   ",
"    [}::::::::bc    ",
"     [<2::::9|c     ",
"      135((50a      ",
"                    ",
"                    ",
"                    ",
"                    "};
