/* XPM */
static char * minimizeA_xpm[] = {
"20 42 117 2",
"  	c #FFFFFF",
". 	c #FDFAEA",
"+ 	c #F3DF7A",
"@ 	c #EFCF2B",
"# 	c #F0CA14",
"$ 	c #F0C815",
"% 	c #EFCC2E",
"& 	c #F3DF7B",
"* 	c #F6EBAB",
"= 	c #EED111",
"- 	c #F8DA11",
"; 	c #FBD715",
"> 	c #FCD118",
", 	c #FCCC1B",
"' 	c #FDC71D",
") 	c #FCC21E",
"! 	c #F1C21B",
"~ 	c #F6EBAC",
"{ 	c #F2DA0A",
"] 	c #F9E10F",
"^ 	c #FADC12",
"/ 	c #FCD218",
"( 	c #FCCC1A",
"_ 	c #FEC220",
": 	c #FFBD23",
"< 	c #F6BE1A",
"[ 	c #EED60E",
"} 	c #F9E70C",
"| 	c #F9E20F",
"1 	c #FCCD1A",
"2 	c #FFBB24",
"3 	c #F1C01B",
"4 	c #F3DF79",
"5 	c #F6E908",
"6 	c #FADD12",
"7 	c #FCD217",
"8 	c #FDC81D",
"9 	c #FDBC22",
"0 	c #F2DF7C",
"a 	c #EED826",
"b 	c #F8EC09",
"c 	c #FBD814",
"d 	c #FEC320",
"e 	c #F0C831",
"f 	c #EDD90D",
"g 	c #F8ED09",
"h 	c #FADD11",
"i 	c #FCD317",
"j 	c #FFBE23",
"k 	c #F1C11B",
"l 	c #F9E80C",
"m 	c #F9E20E",
"n 	c #FCCE1A",
"o 	c #FFBE22",
"p 	c #EED827",
"q 	c #F8E80C",
"r 	c #F9E30E",
"s 	c #FDC91D",
"t 	c #FEC31F",
"u 	c #F3E07A",
"v 	c #F6EA08",
"w 	c #F8E80B",
"x 	c #FADE11",
"y 	c #FBD317",
"z 	c #FDC91C",
"A 	c #FEC41F",
"B 	c #FDBC21",
"C 	c #F2DF7D",
"D 	c #EED70F",
"E 	c #FBD914",
"F 	c #FEBF22",
"G 	c #F1C21C",
"H 	c #FDFAEB",
"I 	c #F2DB0A",
"J 	c #FBD417",
"K 	c #FCCE19",
"L 	c #F5BE1A",
"M 	c #F7EBAE",
"N 	c #EED311",
"O 	c #F8DC10",
"P 	c #FBD416",
"Q 	c #FCCF19",
"R 	c #FCC41D",
"S 	c #F1C31B",
"T 	c #F2E07C",
"U 	c #EFD22D",
"V 	c #EFCC14",
"W 	c #F0CA15",
"X 	c #EFCD2F",
"Y 	c #FCF7EA",
"Z 	c #EDCD80",
"` 	c #E8B63B",
" .	c #EAB226",
"..	c #EAB126",
"+.	c #E8B73C",
"@.	c #EDCD81",
"#.	c #F3DFAE",
"$.	c #EAB227",
"%.	c #F8C334",
"&.	c #FAC536",
"*.	c #EAB228",
"=.	c #F3DFAF",
"-.	c #EFB729",
";.	c #E9B228",
">.	c #FCF7EB",
",.	c #F8C333",
"'.	c #EDCE82",
").	c #E8B63A",
"!.	c #E9B73C",
"~.	c #EAB328",
"{.	c #D9A12B",
"].	c #BF8422",
"^.	c #F7C233",
"/.	c #EDCE83",
"(.	c #FCF7EC",
"_.	c #EEB628",
":.	c #F3E0B1",
"                                        ",
"                                        ",
"                                        ",
"            . + @ # $ % & .             ",
"          * = - ; > , ' ) ! ~           ",
"        * { ] ^ ; / ( ' _ : < ~         ",
"      . [ } | ^ ; / 1 ' _ : 2 3 .       ",
"      4 5 } | 6 ; 7 1 8 _ : 2 9 0       ",
"      a b } | 6 c 7 1 8 d : 2 2 e       ",
"      f g } | h c i 1 8 d j 2 2 k       ",
"      f g l m h c i n 8 d o 2 2 k       ",
"      p g q r h c i n s t o 2 2 e       ",
"      u v w r x c y n z A o 2 B C       ",
"      . D w r x E y n z A F 2 G H       ",
"        ~ I r x E J K z A F L M         ",
"          ~ N O E P Q z R S M           ",
"            . T U V W X C H             ",
"                                        ",
"                                        ",
"                                        ",
"                                        ",
"                                        ",
"                                        ",
"                                        ",
"            Y Z `  ...+.@.Y             ",
"          #.$.%.&.&.&.&.%.*.=.          ",
"        #.-.&.&.&.&.&.&.&.&.-.=.        ",
"      Y $.&.&.&.&.&.&.&.&.&.&.;.>.      ",
"      Z %.&.&.&.&.&.&.&.&.&.&.,.'.      ",
"      ).&.&.&.&.&.&.&.&.&.&.&.&.!.      ",
"      ~.&.{.].].].].].].].].{.&.$.      ",
"      $.&.{.].].].].].].].].{.&.*.      ",
"      ` &.&.&.&.&.&.&.&.&.&.&.&.!.      ",
"      @.%.&.&.&.&.&.&.&.&.&.&.^./.      ",
"      Y *.&.&.&.&.&.&.&.&.&.&.;.(.      ",
"        =.-.&.&.&.&.&.&.&.&._.:.        ",
"          =.*.,.&.&.&.&.^.;.:.          ",
"            >.'.!.$.$.!./.(.            ",
"                                        ",
"                                        ",
"                                        ",
"                                        "};
