/* XPM */
static char * closeI_xpm[] = {
"28 42 55 1",
" 	c #2F2F2F",
".	c #343434",
"+	c #4C4C4C",
"@	c #5C5C5C",
"#	c #646464",
"$	c #5B5B5B",
"%	c #4B4B4B",
"&	c #414141",
"*	c #636363",
"=	c #666666",
"-	c #424242",
";	c #303030",
">	c #454545",
",	c #656565",
"'	c #464646",
")	c #4A4A4A",
"!	c #434343",
"~	c #444444",
"{	c #484848",
"]	c #494949",
"^	c #4D4D4D",
"/	c #333333",
"(	c #373737",
"_	c #323635",
":	c #3F5B55",
"<	c #48736A",
"[	c #4D7F75",
"}	c #3F5A55",
"|	c #394B47",
"1	c #4C7E74",
"2	c #4E8378",
"3	c #3A4B48",
"4	c #4E8278",
"5	c #4D7F74",
"6	c #303130",
"7	c #3C504C",
"8	c #4D8277",
"9	c #3C514D",
"0	c #3F5A54",
"a	c #49746B",
"b	c #3F5953",
"c	c #3A4E4A",
"d	c #3B4F4B",
"e	c #3D5651",
"f	c #4C7F74",
"g	c #3E5752",
"h	c #3D5550",
"i	c #4E8277",
"j	c #3B504C",
"k	c #3F5954",
"l	c #405C56",
"m	c #3E5954",
"n	c #313534",
"o	c #394A47",
"p	c #487269",
"                            ",
"                            ",
"                            ",
"            .+@##$%.        ",
"           &*======*-       ",
"          &==========-      ",
"         .*==#====*==*.     ",
"         +===;>,,';===%     ",
"         @===) !~ {===$     ",
"         *====]  {====*     ",
"         *====!  &,===*     ",
"         @===> %% ~===$     ",
"         %===.^==^.===%     ",
"         .*==========*/     ",
"          -==========&      ",
"           -*======*&       ",
"            .%$**$%/        ",
"                            ",
"                            ",
"                            ",
"    ((((((((((((((((((((((((",
"                            ",
"                            ",
"                            ",
"                            ",
"            _:<[[<}_        ",
"           |122222213       ",
"          |42222222243      ",
"         _122[22225225_     ",
"         :22267889;2220     ",
"         a222b cd e222<     ",
"         f2222g  h22221     ",
"         12224c  |i2225     ",
"         <222j kk d222<     ",
"         }222_l22l_222m     ",
"         _122222222221n     ",
"          34222222224o      ",
"           352222221o       ",
"            _0pffpmn        ",
"                            ",
"                            ",
"                            "};
