/* XPM */
static char * closeA_xpm[] = {
"28 42 69 1",
" 	c #2F2F2F",
".	c #333A38",
"+	c #466F67",
"@	c #529386",
"#	c #58A595",
"$	c #529285",
"%	c #456E66",
"&	c #3D5853",
"*	c #57A394",
"=	c #5AAA9A",
"-	c #3E5853",
";	c #5AA999",
">	c #59A495",
",	c #58A495",
"'	c #333938",
")	c #303131",
"!	c #406059",
"~	c #59A999",
"{	c #41615B",
"]	c #303030",
"^	c #529487",
"/	c #446C64",
"(	c #3F5D57",
"_	c #3F5E58",
":	c #436860",
"<	c #446A62",
"[	c #43675F",
"}	c #3F5C56",
"|	c #5AA899",
"1	c #405F59",
"2	c #456D65",
"3	c #405E58",
"4	c #467068",
"5	c #58A394",
"6	c #323837",
"7	c #3D5752",
"8	c #519285",
"9	c #323635",
"0	c #3F5B55",
"a	c #48736A",
"b	c #4D7F75",
"c	c #3F5A55",
"d	c #394B47",
"e	c #4C7E74",
"f	c #4E8378",
"g	c #3A4B48",
"h	c #4E8278",
"i	c #4D7F74",
"j	c #303130",
"k	c #3C504C",
"l	c #4D8277",
"m	c #3C514D",
"n	c #3F5A54",
"o	c #49746B",
"p	c #3F5953",
"q	c #3A4E4A",
"r	c #3B4F4B",
"s	c #3D5651",
"t	c #4C7F74",
"u	c #3E5752",
"v	c #3D5550",
"w	c #4E8277",
"x	c #3B504C",
"y	c #3F5954",
"z	c #405C56",
"A	c #3E5954",
"B	c #313534",
"C	c #394A47",
"D	c #487269",
"                            ",
"                            ",
"                            ",
"            .+@##$%.        ",
"           &*======*-       ",
"          &;========;-      ",
"         .*==>====,==,'     ",
"         +===)!~~{]===%     ",
"         ^===/ (_ :===$     ",
"         ,====<  [====*     ",
"         *===;}  &|===,     ",
"         @===1 22 3===$     ",
"         %===.4==4.===2     ",
"         .*==========56     ",
"          -;========;7      ",
"           -,======57       ",
"            '%8,,826        ",
"                            ",
"                            ",
"                            ",
"                            ",
"                            ",
"                            ",
"                            ",
"            90abbac9        ",
"           deffffffeg       ",
"          dhffffffffhg      ",
"         9effbffffiffi9     ",
"         0fffjkllm]fffn     ",
"         offfp qr sfffa     ",
"         tffffu  vffffe     ",
"         efffhq  dwfffi     ",
"         afffx yy rfffa     ",
"         cfff9zffz9fffA     ",
"         9effffffffffeB     ",
"          ghffffffffhC      ",
"           giffffffeC       ",
"            9nDttDAB        ",
"                            ",
"                            ",
"                            ",
"                            "};
