/* XPM */
static char * maximizeI_xpm[] = {
"20 42 2 1",
" 	c #0F0F0F",
".	c #767676",
"                    ",
"                    ",
"                    ",
"                    ",
"                    ",
"       ........     ",
"       ........     ",
"       ..    ..     ",
"       ..    ..     ",
"       ..    ..     ",
"       ..    ..     ",
"       ........     ",
"       ........     ",
"                    ",
"                    ",
"                    ",
"                    ",
"                    ",
"                    ",
"                    ",
"                    ",
"                    ",
"                    ",
"                    ",
"                    ",
"                    ",
"                    ",
"                    ",
"                    ",
"                    ",
"                    ",
"                    ",
"                    ",
"                    ",
"                    ",
"                    ",
"                    ",
"                    ",
"                    ",
"                    ",
"                    ",
"                    "};
