/* XPM */
static char * max_pressed_xpm[] = {
"16 16 22 1",
" 	c #1A1A1A",
".	c #5C5C5C",
"+	c #989899",
"@	c #BFBFBF",
"#	c #D4D5D5",
"$	c #999999",
"%	c #5A5A5A",
"&	c #C3C3C3",
"*	c #DDDDDD",
"=	c #C2C2C2",
"-	c #575757",
";	c #C4C4C4",
">	c #505050",
",	c #5B5B5B",
"'	c #989898",
")	c #C0C0C0",
"!	c #BFBFC0",
"~	c #D4D4D4",
"{	c #D2D2D2",
"]	c #C1C1C1",
"^	c #BEBEBE",
"/	c #BEBEBF",
"                ",
"     .+@#@$.    ",
"   %&*******=   ",
"  %***********- ",
"  =***********; ",
" .*****    >***,",
" +******    ***'",
" )*** ***   ***!",
" ~***  ***  ***{",
" )***   *** ***!",
" $***    ******'",
" .***>    *****%",
"  ]***********& ",
"   **********   ",
"   -]*******]   ",
"     ,'^~/'%    "};
