/* XPM */
static char * min_pressed_xpm[] = {
"16 16 20 1",
" 	c #1A1A1A",
".	c #5C5C5C",
"+	c #999999",
"@	c #C0C0C0",
"#	c #D5D5D5",
"$	c #989898",
"%	c #595959",
"&	c #C2C2C2",
"*	c #DDDDDD",
"=	c #C1C1C1",
"-	c #575757",
";	c #C4C4C4",
">	c #5B5B5B",
",	c #979797",
"'	c #D4D4D4",
")	c #D2D2D2",
"!	c #969696",
"~	c #5A5A5A",
"{	c #BFBFBF",
"]	c #BEBEBE",
"                ",
"     .+@#@$.    ",
"   %&*******=   ",
"  %***********- ",
"  &***********; ",
" .*************>",
" +*************,",
" =*************@",
" '***       ***)",
" =***       ***@",
" $*************!",
" .*************~",
"  =***********= ",
"   **********   ",
"   -=*******=   ",
"     >${#],~    "};
