/* XPM */
static char * closeI_xpm[] = {
"28 42 53 1",
" 	c #2F2F2F",
".	c #343434",
"+	c #4C4C4C",
"@	c #5C5C5C",
"#	c #646464",
"$	c #5B5B5B",
"%	c #4B4B4B",
"&	c #414141",
"*	c #636363",
"=	c #666666",
"-	c #424242",
";	c #303030",
">	c #454545",
",	c #656565",
"'	c #464646",
")	c #4A4A4A",
"!	c #434343",
"~	c #444444",
"{	c #484848",
"]	c #494949",
"^	c #4D4D4D",
"/	c #333333",
"(	c #363833",
"_	c #576648",
":	c #6D8455",
"<	c #78935C",
"[	c #6C8455",
"}	c #566547",
"|	c #48523F",
"1	c #77925B",
"2	c #7B985E",
"3	c #49523F",
"4	c #7B975E",
"5	c #77935C",
"6	c #303130",
"7	c #4D5942",
"8	c #7A975D",
"9	c #4E5A42",
"0	c #566447",
"a	c #6D8556",
"b	c #556346",
"c	c #4B5640",
"d	c #4C5741",
"e	c #525F44",
"f	c #536146",
"g	c #515F44",
"h	c #7A975E",
"i	c #4D5841",
"j	c #556447",
"k	c #586748",
"l	c #353732",
"m	c #48513E",
"n	c #6C8355",
"                            ",
"                            ",
"                            ",
"            .+@##$%.        ",
"           &*======*-       ",
"          &==========-      ",
"         .*==#====*==*.     ",
"         +===;>,,';===%     ",
"         @===) !~ {===$     ",
"         *====]  {====*     ",
"         *====!  &,===*     ",
"         @===> %% ~===$     ",
"         %===.^==^.===%     ",
"         .*==========*/     ",
"          -==========&      ",
"           -*======*&       ",
"            .%$**$%/        ",
"                            ",
"                            ",
"                            ",
"                            ",
"                            ",
"                            ",
"                            ",
"                            ",
"            (_:<<[}(        ",
"           |122222213       ",
"          |42222222243      ",
"         (122<22225225(     ",
"         _22267889;2220     ",
"         a222b cd e222[     ",
"         52222f  g22221     ",
"         12224c  |h2225     ",
"         :222i jj d222[     ",
"         }222(k22k(222j     ",
"         (122222222221l     ",
"          34222222224m      ",
"           352222221m       ",
"            (0n55njl        ",
"                            ",
"                            ",
"                            "};
