/* XPM */
static char * desktop_xpm[] = {
"20 20 252 2",
"  	c None",
". 	c #8B8A8F",
"+ 	c #A6A6A9",
"@ 	c #ADADAD",
"# 	c #ACACAD",
"$ 	c #ABACAD",
"% 	c #AAABAC",
"& 	c #AAAAAB",
"* 	c #A9AAAB",
"= 	c #A8A9AA",
"- 	c #A2A1A6",
"; 	c #8A898E",
"> 	c #8A898D",
", 	c #ECEBF1",
"' 	c #998FB9",
") 	c #9B93BB",
"! 	c #9E94BC",
"~ 	c #9C93BB",
"{ 	c #9B92BA",
"] 	c #9B91BA",
"^ 	c #9A90B9",
"/ 	c #9A91BA",
"( 	c #988EB7",
"_ 	c #978DB7",
": 	c #958AB6",
"< 	c #E2E0E8",
"[ 	c #89888D",
"} 	c #89898D",
"| 	c #DBD9E4",
"1 	c #1F0767",
"2 	c #372177",
"3 	c #2C1570",
"4 	c #2F1972",
"5 	c #341F76",
"6 	c #3C277A",
"7 	c #4C3986",
"8 	c #493684",
"9 	c #3B277A",
"0 	c #331D75",
"a 	c #382278",
"b 	c #513F89",
"c 	c #55438C",
"d 	c #54418B",
"e 	c #55438B",
"f 	c #230D6B",
"g 	c #D1CDDB",
"h 	c #D9D8E3",
"i 	c #2A136E",
"j 	c #7466A0",
"k 	c #C9C5D7",
"l 	c #9E95BC",
"m 	c #59478E",
"n 	c #5B498F",
"o 	c #7364A1",
"p 	c #6E5F9D",
"q 	c #4C3A86",
"r 	c #473383",
"s 	c #57458D",
"t 	c #8174A9",
"u 	c #7F71A8",
"v 	c #7C6EA6",
"w 	c #7E71A7",
"x 	c #362076",
"y 	c #D0CCDB",
"z 	c #D7D6E2",
"A 	c #29126E",
"B 	c #8478AB",
"C 	c #FEF8F6",
"D 	c #F0EFEE",
"E 	c #786AA4",
"F 	c #5F4E95",
"G 	c #7162A1",
"H 	c #665599",
"I 	c #4A3788",
"J 	c #4E3989",
"K 	c #6A5A9C",
"L 	c #7A6BA7",
"M 	c #7667A4",
"N 	c #7465A2",
"O 	c #7667A3",
"P 	c #341E76",
"Q 	c #CFCBDA",
"R 	c #D7D5E1",
"S 	c #2A136F",
"T 	c #8477AB",
"U 	c #F0ECEA",
"V 	c #F0ECEB",
"W 	c #7E71A8",
"X 	c #67559D",
"Y 	c #7161A3",
"Z 	c #5C4A96",
"` 	c #503C8E",
" .	c #554391",
"..	c #7767A7",
"+.	c #7465A5",
"@.	c #7262A4",
"#.	c #6F60A1",
"$.	c #7262A2",
"%.	c #321D75",
"&.	c #CECAD9",
"*.	c #D7D4E1",
"=.	c #2A1371",
"-.	c #8578AD",
";.	c #ECE7E4",
">.	c #ECE6E4",
",.	c #8375AC",
"'.	c #6A59A1",
").	c #715FA5",
"!.	c #584396",
"~.	c #564194",
"{.	c #68569F",
"].	c #7363A6",
"^.	c #7160A5",
"/.	c #6F5EA3",
"(.	c #6C5CA1",
"_.	c #6D5DA2",
":.	c #321C76",
"<.	c #CDC9D7",
"[.	c #D6D3E0",
"}.	c #301874",
"|.	c #5E4A9B",
"1.	c #5D489A",
"2.	c #594698",
"3.	c #5E4B9C",
"4.	c #6D5BA6",
"5.	c #6855A2",
"6.	c #5B469A",
"7.	c #5C489A",
"8.	c #7260A8",
"9.	c #705DA7",
"0.	c #705CA6",
"a.	c #6B59A3",
"b.	c #6956A2",
"c.	c #6957A1",
"d.	c #311B75",
"e.	c #CCC8D6",
"f.	c #D6D2DF",
"g.	c #2A1472",
"h.	c #9184BA",
"i.	c #FFFFFD",
"j.	c #CFCADD",
"k.	c #7867AD",
"l.	c #6C58A7",
"m.	c #6550A3",
"n.	c #604AA0",
"o.	c #6854A5",
"p.	c #705CAA",
"q.	c #6D5AA7",
"r.	c #6B57A6",
"s.	c #6A55A4",
"t.	c #6652A2",
"u.	c #6552A1",
"v.	c #301A75",
"w.	c #CBC7D5",
"x.	c #D5D1DE",
"y.	c #2D1674",
"z.	c #9082BB",
"A.	c #F3EFEE",
"B.	c #F7F2EF",
"C.	c #9587BE",
"D.	c #6853A7",
"E.	c #6650A6",
"F.	c #664FA7",
"G.	c #6D59AB",
"H.	c #6C58AA",
"I.	c #6B56A9",
"J.	c #6854A7",
"K.	c #6651A5",
"L.	c #644EA2",
"M.	c #624DA2",
"N.	c #2F1976",
"O.	c #CAC6D4",
"P.	c #D4D0DD",
"Q.	c #2D1675",
"R.	c #9283BB",
"S.	c #F1E9E7",
"T.	c #F0EAE7",
"U.	c #8F82BC",
"V.	c #6750AA",
"W.	c #6953AC",
"X.	c #6A55AD",
"Y.	c #6D57AD",
"Z.	c #6A54AD",
"`.	c #6953AB",
" +	c #654FA8",
".+	c #624DA5",
"++	c #5F49A2",
"@+	c #5E48A2",
"#+	c #2F1876",
"$+	c #C9C5D4",
"%+	c #D3CFDC",
"&+	c #301977",
"*+	c #8371B8",
"=+	c #B2A9CC",
"-+	c #B3AACD",
";+	c #8471BB",
">+	c #7059B4",
",+	c #735BB6",
"'+	c #735BB7",
")+	c #725AB6",
"!+	c #7058B5",
"~+	c #6C55B2",
"{+	c #6851AE",
"]+	c #654EAB",
"^+	c #624BA7",
"/+	c #634BA8",
"(+	c #C7C3D3",
"_+	c #D0CCDA",
":+	c #1F076A",
"<+	c #3E2785",
"[+	c #392082",
"}+	c #392184",
"|+	c #3F2887",
"1+	c #432B8A",
"2+	c #432C8A",
"3+	c #442C8B",
"4+	c #422B8A",
"5+	c #412989",
"6+	c #402887",
"7+	c #3D2685",
"8+	c #3D2584",
"9+	c #20086A",
"0+	c #C6C1D2",
"a+	c #E1DFE7",
"b+	c #A9A1C2",
"c+	c #ABA3C2",
"d+	c #A9A2C1",
"e+	c #A9A1C0",
"f+	c #A7A0BF",
"g+	c #A8A0BF",
"h+	c #A69FBE",
"i+	c #A69EBE",
"j+	c #A79EBE",
"k+	c #A59DBD",
"l+	c #A59DBC",
"m+	c #A49CBC",
"n+	c #A59CBC",
"o+	c #A39BBC",
"p+	c #A29ABB",
"q+	c #A098BA",
"r+	c #D5D1DC",
"s+	c #86858A",
"t+	c #99989D",
"u+	c #9B9B9E",
"v+	c #9C9B9F",
"w+	c #9B9A9E",
"x+	c #9A999D",
"y+	c #99999C",
"z+	c #9A999C",
"A+	c #99989C",
"B+	c #97959B",
"C+	c #858589",
"                                        ",
"                                        ",
"                                        ",
". + @ # # # $ % % & & & * * * * = = - ; ",
"> , ' ) ! ~ ~ { ] ^ / { ] ( _ _ _ : < [ ",
"} | 1 2 3 4 5 6 7 8 9 0 a b c d e f g [ ",
"} h i j k l m n o p q r s t u v w x y [ ",
"} z A B C D E F G H I J K L M N O P Q [ ",
"> R S T U V W X Y Z `  ...+.@.#.$.%.&.[ ",
"> *.=.-.;.>.,.'.).!.~.{.].^./.(._.:.<.[ ",
"[ [.}.|.1.2.3.4.5.6.7.8.9.0.a.b.c.d.e.[ ",
"[ f.g.h.i.j.k.l.m.n.o.p.q.r.s.t.u.v.w.[ ",
"[ x.y.z.A.B.C.D.E.F.G.H.I.J.K.L.M.N.O.[ ",
"[ P.Q.R.S.T.U.V.W.X.Y.Z.`. +.+++@+#+$+[ ",
"[ %+&+*+=+-+;+>+,+'+)+!+~+{+]+^+/+&+(+[ ",
"[ _+:+<+[+}+|+1+2+3+4+1+5+6+7+8+8+9+0+[ ",
"[ a+b+c+d+e+f+g+h+i+j+k+l+m+n+o+p+q+r+[ ",
"s+t+u+u+v+u+u+w+w+w+w+w+x+y+z+A+A+x+B+C+",
"                                        ",
"                                        "};
