/* XPM */
static char * close_pressed_xpm[] = {
"16 15 34 1",
" 	c #2F2F2F",
".	c #313337",
"+	c #3E4660",
"@	c #46527B",
"#	c #4A5889",
"$	c #3E455F",
"%	c #383D4E",
"&	c #495788",
"*	c #4B5A8D",
"=	c #393E4E",
"-	c #4B5A8C",
";	c #4B5989",
">	c #4A5888",
",	c #323337",
"'	c #2F3031",
")	c #3A4054",
"!	c #4A598C",
"~	c #3B4156",
"{	c #303030",
"]	c #3D455F",
"^	c #46527C",
"/	c #3D445E",
"(	c #393F52",
"_	c #3A3F53",
":	c #3C435A",
"<	c #495888",
"[	c #3D445C",
"}	c #383D4F",
"|	c #3D455E",
"1	c #3A4053",
"2	c #3E4661",
"3	c #313236",
"4	c #383D4D",
"5	c #45517A",
"                ",
"     .+@##@$.   ",
"    %&******&=  ",
"   %-********-= ",
"  .&**;****>**>,",
"  +***')!!~{***]",
"  ^***/ (_ :***@",
"  <****[  :****&",
"  &***-(  }-***>",
"  @***) || 1***@",
"  $***.2**2.***|",
"  .&**********>3",
"   =-********-4 ",
"    =>******>4  ",
"     ,]5<<5|3   "};
