/* XPM */
static char * close_xpm[] = {
"16 15 38 1",
" 	c #2F2F2F",
".	c #33343B",
"+	c #455075",
"@	c #51629C",
"#	c #576BAF",
"$	c #51629B",
"%	c #455074",
"&	c #3D445B",
"*	c #566AAE",
"=	c #596EB5",
"-	c #3D445C",
";	c #596EB4",
">	c #586CAE",
",	c #576BAE",
"'	c #33353A",
")	c #303032",
"!	c #404864",
"~	c #586DB4",
"{	c #404966",
"]	c #303030",
"^	c #444F73",
"/	c #52639D",
"(	c #444E71",
"_	c #3F4661",
":	c #3F4762",
"<	c #424C6D",
"[	c #434D6F",
"}	c #424C6C",
"|	c #3E4660",
"1	c #596DB3",
"2	c #404863",
"3	c #444F72",
"4	c #3F4763",
"5	c #465176",
"6	c #576BAD",
"7	c #323439",
"8	c #3D435A",
"9	c #51619B",
"                ",
"     .+@##$%.   ",
"    &*======*-  ",
"   &;========;- ",
"  .*==>====,==,'",
"  +===)!~~{]===^",
"  /===( _: <===$",
"  ,====[  }====*",
"  *===;|  -1===,",
"  @===2 33 4===$",
"  %===.5==5.===^",
"  .*==========67",
"   -;========;8 ",
"    -,======68  ",
"     '^9,,9^7   "};
