/* XPM */
static char * frameABR_xpm[] = {
"5 5 2 1",
" 	c None",
".	c #2C2C2C",
".... ",
".... ",
"...  ",
"..   ",
"     "};
