/* XPM */
static char * closeA_xpm[] = {
"28 42 74 1",
" 	c #2F2F2F",
".	c #3B3337",
"+	c #764862",
"@	c #9E567E",
"#	c #B25D8C",
"$	c #9E567D",
"%	c #764861",
"&	c #5C3F4F",
"*	c #B15C8B",
"=	c #B85F90",
"-	c #5D3F4F",
";	c #B75F8F",
">	c #B15D8C",
",	c #B15D8B",
"'	c #3A3337",
")	c #323031",
"!	c #654255",
"~	c #B75E8F",
"{	c #674357",
"]	c #303030",
"^	c #754760",
"/	c #9F567E",
"(	c #73475F",
"_	c #624153",
":	c #634154",
"<	c #6E455C",
"[	c #70465D",
"}	c #6D455B",
"|	c #624053",
"1	c #5D3F50",
"2	c #B65F8F",
"3	c #644255",
"4	c #744760",
"5	c #644254",
"6	c #784963",
"7	c #B05C8B",
"8	c #393236",
"9	c #5B3F4E",
"0	c #9D557D",
"a	c #373737",
"b	c #383235",
"c	c #633F53",
"d	c #804866",
"e	c #8E4C70",
"f	c #7F4766",
"g	c #623F52",
"h	c #503946",
"i	c #8D4B6F",
"j	c #924D73",
"k	c #914D73",
"l	c #8D4C70",
"m	c #373235",
"n	c #313030",
"o	c #563B4A",
"p	c #914C72",
"q	c #583B4B",
"r	c #613E52",
"s	c #804867",
"t	c #603E51",
"u	c #543A48",
"v	c #553A49",
"w	c #5D3D4E",
"x	c #8D4B70",
"y	c #5E3E50",
"z	c #5C3D4E",
"A	c #533A48",
"B	c #914D72",
"C	c #613E51",
"D	c #553B49",
"E	c #643F53",
"F	c #8C4B6F",
"G	c #363134",
"H	c #4F3945",
"I	c #7E4765",
"                            ",
"                            ",
"                            ",
"            .+@##$%.        ",
"           &*======*-       ",
"          &;========;-      ",
"         .*==>====,==,'     ",
"         +===)!~~{]===^     ",
"         /===( _: <===$     ",
"         ,====[  }====*     ",
"         *===;|  12===,     ",
"         @===3 44 5===$     ",
"         %===.6==6.===4     ",
"         .*==========78     ",
"          -;========;9      ",
"           -,======79       ",
"            '^0,,048        ",
"                            ",
"                            ",
"    aaaaaaaaaaaaaaaaaaaaaaaa",
"                            ",
"                            ",
"                            ",
"                            ",
"            bcdeefgb        ",
"           hijjjjjjih       ",
"          hkjjjjjjjjkh      ",
"         bijjljjjjljjlm     ",
"         cjjjnoppq]jjjr     ",
"         sjjjt uv wjjjf     ",
"         xjjjjy  zjjjji     ",
"         ijjjkA  hBjjjl     ",
"         djjjo CC Djjjf     ",
"         gjjjbEjjEbjjjC     ",
"         bijjjjjjjjjjFG     ",
"          hkjjjjjjjjkH      ",
"           hljjjjjjFH       ",
"            mrIxxICG        ",
"                            ",
"                            ",
"                            ",
"                            "};
