/* XPM */
static char * closeI_xpm[] = {
"28 42 57 1",
" 	c #2F2F2F",
".	c #343434",
"+	c #4C4C4C",
"@	c #5C5C5C",
"#	c #646464",
"$	c #5B5B5B",
"%	c #4B4B4B",
"&	c #414141",
"*	c #636363",
"=	c #666666",
"-	c #424242",
";	c #303030",
">	c #454545",
",	c #656565",
"'	c #464646",
")	c #4A4A4A",
"!	c #434343",
"~	c #444444",
"{	c #484848",
"]	c #494949",
"^	c #4D4D4D",
"/	c #333333",
"(	c #373737",
"_	c #383235",
":	c #633F53",
"<	c #804866",
"[	c #8E4C70",
"}	c #7F4766",
"|	c #623F52",
"1	c #503946",
"2	c #8D4B6F",
"3	c #924D73",
"4	c #914D73",
"5	c #8D4C70",
"6	c #373235",
"7	c #313030",
"8	c #563B4A",
"9	c #914C72",
"0	c #583B4B",
"a	c #613E52",
"b	c #804867",
"c	c #603E51",
"d	c #543A48",
"e	c #553A49",
"f	c #5D3D4E",
"g	c #8D4B70",
"h	c #5E3E50",
"i	c #5C3D4E",
"j	c #533A48",
"k	c #914D72",
"l	c #613E51",
"m	c #553B49",
"n	c #643F53",
"o	c #8C4B6F",
"p	c #363134",
"q	c #4F3945",
"r	c #7E4765",
"                            ",
"                            ",
"                            ",
"            .+@##$%.        ",
"           &*======*-       ",
"          &==========-      ",
"         .*==#====*==*.     ",
"         +===;>,,';===%     ",
"         @===) !~ {===$     ",
"         *====]  {====*     ",
"         *====!  &,===*     ",
"         @===> %% ~===$     ",
"         %===.^==^.===%     ",
"         .*==========*/     ",
"          -==========&      ",
"           -*======*&       ",
"            .%$**$%/        ",
"                            ",
"                            ",
"                            ",
"    ((((((((((((((((((((((((",
"                            ",
"                            ",
"                            ",
"                            ",
"            _:<[[}|_        ",
"           1233333321       ",
"          143333333341      ",
"         _2335333353356     ",
"         :33378990;333a     ",
"         b333c de f333}     ",
"         g3333h  i33332     ",
"         23334j  1k3335     ",
"         <3338 ll m333}     ",
"         |333_n33n_333l     ",
"         _23333333333op     ",
"          14333333334q      ",
"           15333333oq       ",
"            6arggrlp        ",
"                            ",
"                            ",
"                            "};
