/* XPM */
static char * closeO_xpm[] = {
"28 42 51 1",
" 	c #2B2B2B",
".	c #4B4B4B",
"+	c #747474",
"@	c #919191",
"#	c #9E9E9E",
"$	c #909090",
"%	c #737373",
"&	c #3D3D3D",
"*	c #858585",
"=	c #A3A3A3",
"-	c #868686",
";	c #494949",
">	c #9B9B9B",
",	c #484848",
"'	c #9A9A9A",
")	c #3C3C3C",
"!	c #848484",
"~	c #E5E5E5",
"{	c #B5B5B5",
"]	c #757575",
"^	c #B4B4B4",
"/	c #F1F1F1",
"(	c #B6B6B6",
"_	c #9D9D9D",
":	c #9C9C9C",
"<	c #727272",
"[	c #4A4A4A",
"}	c #3A3A3A",
"|	c #999999",
"1	c #3E3E3E",
"2	c #565656",
"3	c #686868",
"4	c #6F6F6F",
"5	c #676767",
"6	c #363636",
"7	c #606060",
"8	c #616161",
"9	c #6D6D6D",
"0	c #353535",
"a	c #D7D7D7",
"b	c #8E8E8E",
"c	c #8D8D8D",
"d	c #575757",
"e	c #EBEBEB",
"f	c #8F8F8F",
"g	c #555555",
"h	c #EAEAEA",
"i	c #6E6E6E",
"j	c #5F5F5F",
"k	c #343434",
"l	c #6C6C6C",
"                            ",
"            .+@##$%.        ",
"          &*========-&      ",
"         ;>==========>,     ",
"        &>============')    ",
"        !==============*    ",
"       .====~{===={~====.   ",
"       ]====^/(==^/(====%   ",
"       @=====^/(^/(=====$   ",
"       _======{//{======_   ",
"       _======{//{======:   ",
"       @=====^/(^/(=====$   ",
"       +====^/(==^/(====<   ",
"       .====~{===={~====[   ",
"        !==============-    ",
"        }|============')    ",
"         ,'==========',     ",
"          &*========!)      ",
"            .%$__$%[        ",
"                            ",
"                            ",
"                            ",
"            12344521        ",
"          67<<<<<<<<86      ",
"         &9<<<<<<<<<<9)     ",
"        69<<<<<<<<<<<<90    ",
"        7<<<%<<<<<<%<<<7    ",
"       1<<<%ab<<<<ca%<<<1   ",
"       d<<<<cef<<cef<<<<g   ",
"       3<<<<<cefcef<<<<<5   ",
"       4<<<<<<chhb<<<<<<4   ",
"       4<<<<<<chhb<<<<<<i   ",
"       3<<<<<cefcef<<<<<5   ",
"       2<<<<cef<<cef<<<<g   ",
"       1<<<%ab<<<<ca%<<<1   ",
"        j<<<%<<<<<<%<<<8    ",
"        kl<<<<<<<<<<<<90    ",
"         )9<<<<<<<<<<9)     ",
"          67<<<<<<<<70      ",
"            1g5445g1        ",
"                            ",
"                            "};
