/* XPM */
static char * closeI_xpm[] = {
"28 42 41 1",
" 	c #2B2B2B",
".	c #353535",
"+	c #434343",
"@	c #4C4C4C",
"#	c #505050",
"$	c #363636",
"%	c #313131",
"&	c #484848",
"*	c #525252",
"=	c #494949",
"-	c #4F4F4F",
";	c #535353",
">	c #A0A0A0",
",	c #676767",
"'	c #A1A1A1",
")	c #AFAFAF",
"!	c #686868",
"~	c #424242",
"{	c #303030",
"]	c #3E3E3E",
"^	c #565656",
"/	c #6F6F6F",
"(	c #606060",
"_	c #727272",
":	c #616161",
"<	c #3D3D3D",
"[	c #6D6D6D",
"}	c #3C3C3C",
"|	c #737373",
"1	c #D7D7D7",
"2	c #8E8E8E",
"3	c #8D8D8D",
"4	c #575757",
"5	c #EBEBEB",
"6	c #8F8F8F",
"7	c #555555",
"8	c #EAEAEA",
"9	c #6E6E6E",
"0	c #5F5F5F",
"a	c #343434",
"b	c #6C6C6C",
"                            ",
"            .+@##@+$        ",
"          %&********=%      ",
"         .#**********#.     ",
"        %#************-%    ",
"        &***;******;***&    ",
"       .***;>,****,';***$   ",
"       +****,)!**,)!****~   ",
"       @*****,)!,)!*****@   ",
"       #******,)),******#   ",
"       #******,)),******-   ",
"       @*****,)!,)!*****@   ",
"       +****,)!**,)!****~   ",
"       $***;>,****,>;***.   ",
"        &***;******;***=    ",
"        {-************-%    ",
"         .-**********-.     ",
"          %&********&%      ",
"            $~@##@~.        ",
"                            ",
"                            ",
"                            ",
"            ]^!//,^]        ",
"          $(________:$      ",
"         <[__________[}     ",
"        $[____________[.    ",
"        (___|______|___(    ",
"       ]___|12____31|___]   ",
"       4____356__356____7   ",
"       !_____356356_____,   ",
"       /______3882______/   ",
"       /______3882______9   ",
"       !_____356356_____,   ",
"       ^____356__356____7   ",
"       ]___|12____31|___]   ",
"        0___|______|___:    ",
"        ab____________[.    ",
"         }[__________[}     ",
"          $(________(.      ",
"            ]7,//,7]        ",
"                            ",
"                            "};
