/* XPM */
static char * closeA_xpm[] = {
"28 42 51 1",
" 	c #2B2B2B",
".	c #464646",
"+	c #686868",
"@	c #808080",
"#	c #8B8B8B",
"$	c #676767",
"%	c #3A3A3A",
"&	c #767676",
"*	c #8F8F8F",
"=	c #777777",
"-	c #444444",
";	c #888888",
">	c #434343",
",	c #393939",
"'	c #DFDFDF",
")	c #A5A5A5",
"!	c #A4A4A4",
"~	c #EFEFEF",
"{	c #A6A6A6",
"]	c #8A8A8A",
"^	c #EEEEEE",
"/	c #898989",
"(	c #7F7F7F",
"_	c #666666",
":	c #454545",
"<	c #757575",
"[	c #383838",
"}	c #878787",
"|	c #3E3E3E",
"1	c #565656",
"2	c #6F6F6F",
"3	c #363636",
"4	c #606060",
"5	c #727272",
"6	c #616161",
"7	c #3D3D3D",
"8	c #6D6D6D",
"9	c #3C3C3C",
"0	c #353535",
"a	c #737373",
"b	c #D7D7D7",
"c	c #8E8E8E",
"d	c #8D8D8D",
"e	c #575757",
"f	c #EBEBEB",
"g	c #555555",
"h	c #EAEAEA",
"i	c #6E6E6E",
"j	c #5F5F5F",
"k	c #343434",
"l	c #6C6C6C",
"                            ",
"            .+@##@$.        ",
"          %&********=%      ",
"         -;**********;>     ",
"        %;************;,    ",
"        &**************&    ",
"       .****')****)'****.   ",
"       +****!~{**!~{****$   ",
"       @*****!~{!~{*****@   ",
"       ]******)~~)******]   ",
"       ]******)^^)******/   ",
"       @*****!~{!~{*****(   ",
"       +****!~{**!~{****_   ",
"       .****')****)'****:   ",
"        <**************=    ",
"        [}************;,    ",
"         >;**********;>     ",
"          %&********&,      ",
"            .$(]]($:        ",
"                            ",
"                            ",
"                            ",
"            |1+22$1|        ",
"          345555555563      ",
"         78555555555589     ",
"        3855555555555580    ",
"        4555a555555a5554    ",
"       |555abc5555dba555|   ",
"       e5555df*55df*5555g   ",
"       +55555df*df*55555$   ",
"       2555555dhhc5555552   ",
"       2555555dhhc555555i   ",
"       +55555df*df*55555$   ",
"       15555df*55df*5555g   ",
"       |555abc5555dba555|   ",
"        j555a555555a5556    ",
"        kl55555555555580    ",
"         98555555555589     ",
"          345555555540      ",
"            |g$22$g|        ",
"                            ",
"                            "};
