/* XPM */
static char * restoreI_xpm[] = {
"20 42 21 1",
" 	c #2F2F2F",
".	c #5C5C5C",
"+	c #303030",
"@	c #666666",
"#	c #323232",
"$	c #373737",
"%	c #424242",
"&	c #2A2A2A",
"*	c #383838",
"=	c #565656",
"-	c #7B7B7B",
";	c #8E8E8E",
">	c #949494",
",	c #7F7F7F",
"'	c #DDDDDD",
")	c #FFFFFF",
"!	c #DADADA",
"~	c #979797",
"{	c #EAEAEA",
"]	c #555555",
"^	c #E0E0E0",
"                    ",
"                    ",
"                    ",
"                    ",
"                    ",
"                    ",
"           .+       ",
"           @.       ",
"           @@.+     ",
"           .@@.     ",
"                    ",
"      .@@.          ",
"      +.@@          ",
"       +.@          ",
"      +++.          ",
"                    ",
"                    ",
"                    ",
"                    ",
"                    ",
"                    ",
"                    ",
"                    ",
"         #          ",
"        $%$&&*%$    ",
"       % =-;>-= %   ",
"      %#,>>>>>>,#%  ",
"     $ ,>>>>>'>>, # ",
"     %=>>>>>>)!>>=% ",
"     $,>>>>>>))'~-$ ",
"     &;>>>>>>{))'>& ",
"     &;>>>>>>>>>>;& ",
"    #*,>')){>>>>>-$ ",
"     *];~!))>>>>>=% ",
"     $ ;>>^)>>>>, $ ",
"      %#,>~'>>>,#%  ",
"       % =-;;-= %   ",
"        $%*&&$%$    ",
"          #   #     ",
"                    ",
"                    ",
"                    "};
