/* XPM */
static char * close_unfocus_xpm[] = {
"16 16 23 1",
" 	c #F2F2F2",
".	c #ECECEC",
"+	c #D0D0D0",
"@	c #BCBCBC",
"#	c #B2B2B2",
"$	c #D1D1D1",
"%	c #DCDCDC",
"&	c #B3B3B3",
"*	c #AFAFAF",
"=	c #B4B4B4",
"-	c #F0F0F0",
";	c #D8D8D8",
">	c #B0B0B0",
",	c #D6D6D6",
"'	c #F1F1F1",
")	c #D2D2D2",
"!	c #DADADA",
"~	c #D9D9D9",
"{	c #D3D3D3",
"]	c #D4D4D4",
"^	c #B1B1B1",
"/	c #CFCFCF",
"(	c #DDDDDD",
"                ",
"                ",
"     .+@##@$.   ",
"    %&******&%  ",
"   %**********% ",
"  .&**=****=**=.",
"  +***-;>>,'***$",
"  @***) !~ {***@",
"  &****)  ]****&",
"  &***>~  %^***=",
"  @***; $$ ~***@",
"  $***./**/.***+",
"  .&**********=.",
"   %**********( ",
"    %=******=(  ",
"     .$@&&@+.   "};
