/* XPM */
static char * closeA_xpm[] = {
"28 42 44 1",
" 	c None",
".	c #2F2F2F",
"+	c #373737",
"@	c #616161",
"#	c #7D7D7D",
"$	c #8B8B8B",
"%	c #606060",
"&	c #4F4F4F",
"*	c #8A8A8A",
"=	c #8F8F8F",
"-	c #8E8E8E",
";	c #313131",
">	c #555555",
",	c #565656",
"'	c #303030",
")	c #7E7E7E",
"!	c #5F5F5F",
"~	c #535353",
"{	c #5B5B5B",
"]	c #5D5D5D",
"^	c #5A5A5A",
"/	c #525252",
"(	c #545454",
"_	c #626262",
":	c #363636",
"<	c #4E4E4E",
"[	c #7C7C7C",
"}	c #353535",
"|	c #666666",
"1	c #6F6F6F",
"2	c #656565",
"3	c #464646",
"4	c #6E6E6E",
"5	c #727272",
"6	c #4A4A4A",
"7	c #717171",
"8	c #515151",
"9	c #505050",
"0	c #484848",
"a	c #4D4D4D",
"b	c #474747",
"c	c #454545",
"d	c #494949",
"e	c #343434",
"............................",
"............................",
"............................",
"............+@#$$#%+........",
"...........&*======*&.......",
"..........&-========-&......",
".........+*==$====*==*+.....",
".........@===;>--,'===%.....",
".........)===!.~~.{===#.....",
".........*====]..^====*.....",
".........*===-/..&-===*.....",
".........#===>.!!.(===#.....",
".........%===+_==_+===!.....",
".........+*==========*:.....",
"..........&-========-<......",
"...........&*======*<.......",
"............+%[**[!:........",
"............................",
"............................",
"............................",
"............................",
"............................",
"............................",
"............................",
"............}/|112/}........",
"...........3455555543.......",
"..........355555555553......",
".........}455155551551}.....",
"........./555'6776'5558.....",
".........|5559.00.<5552.....",
".........15555&..a55554.....",
".........45555b..c75551.....",
".........|555d.88.d5552.....",
"........./555}~55~}5558.....",
".........}455555555554e.....",
"..........35555555555c......",
"...........315555554c.......",
"............}821128e........",
"............................",
"............................",
"............................",
"                            "};
