/* XPM */
static char * close_pressed_xpm_xpm[] = {
"16 15 36 1",
" 	c #2F2F2F",
".	c #343238",
"+	c #4E4265",
"@	c #5F4D84",
"#	c #675292",
"$	c #5F4D83",
"%	c #4D4265",
"&	c #433B52",
"*	c #675291",
"=	c #6A5497",
"-	c #433C52",
";	c #6A5496",
">	c #685392",
",	c #343338",
"'	c #303031",
")	c #473E58",
"!	c #695396",
"~	c #473E5A",
"{	c #303030",
"]	c #4D4264",
"^	c #5F4E84",
"/	c #4C4263",
"(	c #453D56",
"_	c #4A405F",
":	c #4B4161",
"<	c #4A405E",
"[	c #443C55",
"}	c #695496",
"|	c #463E58",
"1	c #4D4263",
"2	c #463D57",
"3	c #4F4366",
"4	c #4D4163",
"5	c #333237",
"6	c #423B51",
"7	c #5E4D82",
"                ",
"     .+@##$%.   ",
"    &*======*-  ",
"   &;========;- ",
"  .*==>====#==#,",
"  +===')!!~{===]",
"  ^===/ (( _===$",
"  #====:  <====*",
"  *===;[  &}===#",
"  @===| 11 2===$",
"  %===.3==3.===4",
"  .*==========*5",
"   -;========;6 ",
"    -#======*6  ",
"     ,]7##745   "};
