/* XPM */
static char * desktop_xpm[] = {
"20 20 244 2",
"  	c None",
". 	c #8E8D8B",
"+ 	c #A9A7A6",
"@ 	c #ADADAD",
"# 	c #ADACAC",
"$ 	c #ACACAD",
"% 	c #ABACAD",
"& 	c #AAABAC",
"* 	c #ABAAAA",
"= 	c #A9AAAB",
"- 	c #A8A9AA",
"; 	c #A5A4A2",
"> 	c #8D8C8A",
", 	c #8C8B8A",
"' 	c #F0EEEC",
") 	c #B3A695",
"! 	c #B5A899",
"~ 	c #B6AA9A",
"{ 	c #B5A999",
"] 	c #B4A898",
"^ 	c #B4A897",
"/ 	c #B3A796",
"( 	c #B4A797",
"_ 	c #B1A594",
": 	c #B1A493",
"< 	c #AFA391",
"[ 	c #E7E4E1",
"} 	c #8C8B89",
"| 	c #E2DFDB",
"1 	c #593D15",
"2 	c #6A512E",
"3 	c #634822",
"4 	c #654B26",
"5 	c #694F2C",
"6 	c #6E5633",
"7 	c #7B6444",
"8 	c #786142",
"9 	c #6E5533",
"0 	c #684E2A",
"a 	c #6B522F",
"b 	c #7E684A",
"c 	c #816C4E",
"d 	c #806B4C",
"e 	c #806B4E",
"f 	c #5D401B",
"g 	c #D9D5CF",
"h 	c #E1DDDA",
"i 	c #614620",
"j 	c #97866F",
"k 	c #D4CFC8",
"l 	c #B6AA9B",
"m 	c #836F52",
"n 	c #857053",
"o 	c #98866D",
"p 	c #948168",
"q 	c #7B6445",
"r 	c #77603F",
"s 	c #826D50",
"t 	c #A1917C",
"u 	c #A09079",
"v 	c #9E8D76",
"w 	c #9F8F79",
"x 	c #69502D",
"y 	c #D9D5CE",
"z 	c #E0DBD8",
"A 	c #604520",
"B 	c #A39480",
"C 	c #FEF8F6",
"D 	c #F0EFEE",
"E 	c #9B8A73",
"F 	c #8A7559",
"G 	c #98856B",
"H 	c #8F7B5F",
"I 	c #7C6343",
"J 	c #7D6645",
"K 	c #927F64",
"L 	c #9E8D74",
"M 	c #9B8970",
"N 	c #99876E",
"O 	c #9A8970",
"P 	c #694F2B",
"Q 	c #D8D4CD",
"R 	c #DFDBD7",
"S 	c #614621",
"T 	c #A3947F",
"U 	c #F0ECEA",
"V 	c #F0ECEB",
"W 	c #A08F79",
"X 	c #927D60",
"Y 	c #99866B",
"Z 	c #8B7455",
"` 	c #826948",
" .	c #856E4F",
"..	c #9E8B70",
"+.	c #9C886E",
"@.	c #9A876C",
"#.	c #97836A",
"$.	c #684D2A",
"%.	c #D7D3CC",
"&.	c #DFDBD6",
"*.	c #634721",
"=.	c #A59580",
"-.	c #ECE7E4",
";.	c #ECE6E4",
">.	c #A4947D",
",.	c #968164",
"'.	c #9B8669",
").	c #8A724F",
"!.	c #88704D",
"~.	c #947F61",
"{.	c #9C886D",
"].	c #9B866A",
"^.	c #998468",
"/.	c #978266",
"(.	c #988367",
"_.	c #694E29",
":.	c #D5D1CB",
"<.	c #DEDAD5",
"[.	c #664C26",
"}.	c #8F7756",
"|.	c #8E7654",
"1.	c #8C7352",
"2.	c #907757",
"3.	c #9B8466",
"4.	c #978060",
"5.	c #8E7552",
"6.	c #8E7554",
"7.	c #9D886B",
"8.	c #9C8768",
"9.	c #9B8667",
"0.	c #988264",
"a.	c #978061",
"b.	c #968062",
"c.	c #684D28",
"d.	c #D4D0CA",
"e.	c #DDDAD4",
"f.	c #644722",
"g.	c #B2A28C",
"h.	c #FFFFFD",
"i.	c #DAD5CD",
"j.	c #A38E71",
"k.	c #9B8464",
"l.	c #977F5C",
"m.	c #937A57",
"n.	c #998160",
"o.	c #9E8868",
"p.	c #9C8565",
"q.	c #9A8363",
"r.	c #988261",
"s.	c #967F5E",
"t.	c #957E5E",
"u.	c #684C27",
"v.	c #D3CFC9",
"w.	c #DCD9D3",
"x.	c #664A24",
"y.	c #B3A28A",
"z.	c #F3EFEE",
"A.	c #F7F2EF",
"B.	c #B6A68F",
"C.	c #9B825F",
"D.	c #99805D",
"E.	c #9A815C",
"F.	c #9F8665",
"G.	c #9E8564",
"H.	c #9D8562",
"I.	c #9B8260",
"J.	c #967E5A",
"K.	c #957C5A",
"L.	c #D2CEC8",
"M.	c #DBD8D2",
"N.	c #674B24",
"O.	c #B3A38B",
"P.	c #F1E9E7",
"Q.	c #F0EAE7",
"R.	c #B3A18B",
"S.	c #9D835D",
"T.	c #9F8560",
"U.	c #A08562",
"V.	c #A08764",
"W.	c #A08661",
"X.	c #9E8460",
"Y.	c #9B815C",
"Z.	c #987D5A",
"`.	c #957B56",
" +	c #957A55",
".+	c #684C26",
"++	c #D2CEC7",
"@+	c #DAD7D1",
"#+	c #694D27",
"$+	c #AD997C",
"%+	c #C7BDAE",
"&+	c #C8BEAF",
"*+	c #B09B7C",
"=+	c #A78C66",
"-+	c #A98F68",
";+	c #A98F69",
">+	c #A88E68",
",+	c #A48963",
"'+	c #A0855F",
")+	c #9D825C",
"!+	c #997E59",
"~+	c #9A7F59",
"{+	c #D1CCC5",
"]+	c #D8D4CE",
"^+	c #5B3E16",
"/+	c #775B35",
"(+	c #73572F",
"_+	c #755830",
":+	c #795D36",
"<+	c #7C6039",
"[+	c #7C603A",
"}+	c #7D613A",
"|+	c #7B5F37",
"1+	c #775B34",
"2+	c #765A33",
"3+	c #5B3E17",
"4+	c #CFCBC4",
"5+	c #E6E3E0",
"6+	c #BDB3A6",
"7+	c #BDB4A8",
"8+	c #BCB3A7",
"9+	c #BBB2A6",
"0+	c #BAB1A5",
"a+	c #B9B0A4",
"b+	c #B9B0A3",
"c+	c #B9B1A3",
"d+	c #B8AFA2",
"e+	c #B7AEA2",
"f+	c #B7AEA1",
"g+	c #B7AFA1",
"h+	c #B7ADA0",
"i+	c #B6AC9F",
"j+	c #B5AB9D",
"k+	c #DAD8D3",
"l+	c #898886",
"m+	c #9C9B99",
"n+	c #9E9C9B",
"o+	c #9E9D9C",
"p+	c #9D9C9B",
"q+	c #9C9B9A",
"r+	c #9C9A99",
"s+	c #9B9A99",
"t+	c #9A9996",
"u+	c #888786",
"                                        ",
"                                        ",
"                                        ",
". + @ # # $ % & & * * * = = = = - - ; > ",
", ' ) ! ~ { { ] ^ / ( ] ^ _ : : : < [ } ",
", | 1 2 3 4 5 6 7 8 9 0 a b c d e f g } ",
", h i j k l m n o p q r s t u v w x y } ",
", z A B C D E F G H I J K L M N O P Q } ",
", R S T U V W X Y Z `  ...+.@.#.Y $.%.} ",
", &.*.=.-.;.>.,.'.).!.~.{.].^./.(._.:.} ",
"} <.[.}.|.1.2.3.4.5.6.7.8.9.0.a.b.c.d.} ",
"} e.f.g.h.i.j.k.l.m.n.o.p.q.r.s.t.u.v.} ",
"} w.x.y.z.A.B.C.D.E.F.G.H.I.D.J.K.u.L.} ",
"} M.N.O.P.Q.R.S.T.U.V.W.X.Y.Z.`. +.+++} ",
"} @+#+$+%+&+*+=+-+;+>+=+,+'+)+!+~+#+{+} ",
"} ]+^+/+(+_+:+<+[+}+<+<+|+:+1+2+2+3+4+} ",
"} 5+6+7+8+9+0+0+a+b+c+d+e+f+g+h+i+j+k+} ",
"l+m+n+n+o+n+n+p+p+p+p+p+q+r+m+s+s+q+t+u+",
"                                        ",
"                                        "};
