/* XPM */
static char * desktop_xpm[] = {
"20 20 252 2",
"  	c None",
". 	c #908892",
"+ 	c #A9A5AB",
"@ 	c #ADADAD",
"# 	c #ADACAE",
"$ 	c #ACADAC",
"% 	c #ACADAB",
"& 	c #ABACAA",
"* 	c #ABAAAC",
"= 	c #AAABA9",
"- 	c #A9AAA8",
"; 	c #A79FA9",
"> 	c #8F8791",
", 	c #8B8D89",
"' 	c #F2E8F4",
") 	c #C47ACE",
"! 	c #C37FCF",
"~ 	c #C880D0",
"{ 	c #C57FCF",
"] 	c #C47ECE",
"^ 	c #C67DCF",
"/ 	c #C57CCE",
"( 	c #C47DCF",
"_ 	c #C37ACC",
": 	c #C278CC",
"< 	c #C274CC",
"[ 	c #EADCEC",
"} 	c #8E8690",
"| 	c #8C878F",
"1 	c #E6D4EA",
"2 	c #63006E",
"3 	c #880098",
"4 	c #770085",
"5 	c #7C008B",
"6 	c #840095",
"7 	c #9000A1",
"8 	c #9C13AD",
"9 	c #9A0FAB",
"0 	c #8E00A1",
"a 	c #830092",
"b 	c #8A009A",
"c 	c #9C1AAE",
"d 	c #A11FB1",
"e 	c #A01CB0",
"f 	c #A01FAF",
"g 	c #6A0078",
"h 	c #E0C6E2",
"i 	c #E3D3E9",
"j 	c #730081",
"k 	c #B049BD",
"l 	c #DBBCE0",
"m 	c #C682D0",
"n 	c #A324B2",
"o 	c #A526B2",
"p 	c #B246C0",
"q 	c #AD40BC",
"r 	c #9A14AC",
"s 	c #990BAB",
"t 	c #A221B1",
"u 	c #B85AC4",
"v 	c #B856C4",
"w 	c #B552C2",
"x 	c #B656C2",
"y 	c #860096",
"z 	c #E1C5E3",
"A 	c #E1D0E8",
"B 	c #720080",
"C 	c #B95FC5",
"D 	c #F9F6FE",
"E 	c #EFEEF0",
"F 	c #B44DC1",
"G 	c #A82BB9",
"H 	c #B243C1",
"I 	c #AB33BB",
"J 	c #9D0FB1",
"K 	c #A111B1",
"L 	c #AE39BD",
"M 	c #B84DC5",
"N 	c #B549C3",
"O 	c #B347C1",
"P 	c #B449C1",
"Q 	c #840094",
"R 	c #E0C4E2",
"S 	c #E2CFE7",
"T 	c #740082",
"U 	c #BA5DC5",
"V 	c #EDEAF0",
"W 	c #EDEBF0",
"X 	c #B656C4",
"Y 	c #B231C1",
"Z 	c #B540C4",
"` 	c #AA24BC",
" .	c #A513B7",
"..	c #A51CB8",
"+.	c #BA47C7",
"@.	c #B645C5",
"#.	c #B641C5",
"$.	c #B240C2",
"%.	c #B542C2",
"&.	c #820092",
"*.	c #DFC3E1",
"=.	c #E4CEE8",
"-.	c #760084",
";.	c #BC5EC8",
">.	c #E8E4EC",
",.	c #E7E4EC",
"'.	c #BC5AC8",
").	c #B435C5",
"!.	c #BB3CC8",
"~.	c #AF1AC0",
"{.	c #AD18BE",
"].	c #B432C4",
"^.	c #B842C8",
"/.	c #B93EC8",
"(.	c #B73CC6",
"_.	c #B33AC4",
":.	c #B43BC5",
"<.	c #DCC2DE",
"[.	c #E3CDE7",
"}.	c #7E008C",
"|.	c #B222C4",
"1.	c #B31FC3",
"2.	c #AD1DC1",
"3.	c #B123C5",
"4.	c #BB36CC",
"5.	c #B82FC9",
"6.	c #B21CC4",
"7.	c #B11FC3",
"8.	c #BD3CCC",
"9.	c #BC38CC",
"0.	c #BD37CB",
"a.	c #B634C8",
"b.	c #B830C8",
"c.	c #B432C6",
"d.	c #800090",
"e.	c #DBC1DD",
"f.	c #E5CCE6",
"g.	c #760086",
"h.	c #C969D5",
"i.	c #FFFDFF",
"j.	c #E3C1E7",
"k.	c #C144D0",
"l.	c #BE31CF",
"m.	c #BC27CD",
"n.	c #B91FCB",
"o.	c #BC2CCE",
"p.	c #C235D1",
"q.	c #BD34CE",
"r.	c #BD30CE",
"s.	c #BD2ECC",
"t.	c #B82ACA",
"u.	c #B62BC9",
"v.	c #7E008F",
"w.	c #DAC0DC",
"x.	c #E4CBE5",
"y.	c #7B008A",
"z.	c #CC66D8",
"A.	c #F0EEF3",
"B.	c #F3EFF7",
"C.	c #CE6CDA",
"D.	c #BF29D1",
"E.	c #BF25D1",
"F.	c #C323D3",
"G.	c #C230D4",
"H.	c #C12FD3",
"I.	c #C22DD3",
"J.	c #BE2BD1",
"K.	c #BD27CF",
"L.	c #BC24CC",
"M.	c #BA23CD",
"N.	c #7F008F",
"O.	c #D9BFDB",
"P.	c #E3CAE4",
"Q.	c #7B008B",
"R.	c #CC67D7",
"S.	c #EBE7F1",
"T.	c #EBE7F0",
"U.	c #CA65D9",
"V.	c #C523D7",
"W.	c #C527D9",
"X.	c #C529D9",
"Y.	c #C62CD8",
"Z.	c #C628DA",
"`.	c #C527D7",
" +	c #C123D5",
".+	c #BD21D1",
"++	c #BB1DCF",
"@+	c #BB1BCF",
"#+	c #7F008E",
"$+	c #DABEDC",
"%+	c #E2C9E3",
"&+	c #810090",
"*+	c #CD4EDC",
"=+	c #D798DE",
"-+	c #D899DF",
";+	c #D04CE0",
">+	c #CF2CE2",
",+	c #D32EE4",
"'+	c #D22DE5",
")+	c #D12CE4",
"!+	c #D22AE4",
"~+	c #CD27E1",
"{+	c #C923DD",
"]+	c #C620DA",
"^+	c #C01DD5",
"/+	c #C51DD7",
"(+	c #D8BBDB",
"_+	c #DFC5E1",
":+	c #640071",
"<+	c #9900AC",
"[+	c #9100A2",
"}+	c #9300A5",
"|+	c #9B00AF",
"1+	c #A300B5",
"2+	c #A300B6",
"3+	c #A400B7",
"4+	c #A100B5",
"5+	c #9F00B2",
"6+	c #9D00AF",
"7+	c #9700AB",
"8+	c #9800A9",
"9+	c #650072",
"0+	c #DAB9DB",
"a+	c #E9DBEB",
"b+	c #CC91D3",
"c+	c #CB94D2",
"d+	c #C893D1",
"e+	c #C992D0",
"f+	c #C691CF",
"g+	c #C891CF",
"h+	c #C590CE",
"i+	c #C78ECE",
"j+	c #C98ECE",
"k+	c #C68DCD",
"l+	c #C58ECC",
"m+	c #C58CCC",
"n+	c #C78CCC",
"o+	c #C68BCD",
"p+	c #C58ACC",
"q+	c #C387CB",
"r+	c #D6DCD1",
"s+	c #8B838D",
"t+	c #9E96A0",
"u+	c #9E9AA0",
"v+	c #9D9F9B",
"w+	c #9C9E9A",
"x+	c #9B9D99",
"y+	c #9C989E",
"z+	c #9A9C99",
"A+	c #9A9C98",
"B+	c #989B95",
"C+	c #88838B",
"                                        ",
"                                        ",
"                                        ",
". + @ # # $ % & & * * * = = = = - - ; > ",
", ' ) ! ~ { { ] ^ / ( ] ^ _ : : : < [ } ",
"| 1 2 3 4 5 6 7 8 9 0 a b c d e f g h } ",
"| i j k l m n o p q r s t u v w x y z } ",
"| A B C D E F G H I J K L M N O P Q R } ",
", S T U V W X Y Z `  ...+.@.#.$.%.&.*.} ",
", =.-.;.>.,.'.).!.~.{.].^./.(._.:.&.<.} ",
"} [.}.|.1.2.3.4.5.6.7.8.9.0.a.b.c.d.e.} ",
"} f.g.h.i.j.k.l.m.n.o.p.q.r.s.t.u.v.w.} ",
"} x.y.z.A.B.C.D.E.F.G.H.I.J.K.L.M.N.O.} ",
"} P.Q.R.S.T.U.V.W.X.Y.Z.`. +.+++@+#+$+} ",
"} %+&+*+=+-+;+>+,+'+)+!+~+{+]+^+/+&+(+} ",
"} _+:+<+[+}+|+1+2+3+4+1+5+6+7+8+8+9+0+} ",
"} a+b+c+d+e+f+g+h+i+j+k+l+m+n+o+p+q+r+} ",
"s+t+u+u+v+u+u+w+w+w+w+w+x+y+z+A+A+x+B+C+",
"                                        ",
"                                        "};
