/* XPM */
static char * close_xpm[] = {
"16 15 37 1",
" 	c #2F2F2F",
".	c #333A38",
"+	c #466F67",
"@	c #529386",
"#	c #58A595",
"$	c #529285",
"%	c #456E66",
"&	c #3D5853",
"*	c #57A394",
"=	c #5AAA9A",
"-	c #3E5853",
";	c #5AA999",
">	c #59A495",
",	c #58A495",
"'	c #333938",
")	c #303131",
"!	c #406059",
"~	c #59A999",
"{	c #41615B",
"]	c #303030",
"^	c #529487",
"/	c #446C64",
"(	c #3F5D57",
"_	c #3F5E58",
":	c #436860",
"<	c #446A62",
"[	c #43675F",
"}	c #3F5C56",
"|	c #5AA899",
"1	c #405F59",
"2	c #456D65",
"3	c #405E58",
"4	c #467068",
"5	c #58A394",
"6	c #323837",
"7	c #3D5752",
"8	c #519285",
"                ",
"     .+@##$%.   ",
"    &*======*-  ",
"   &;========;- ",
"  .*==>====,==,'",
"  +===)!~~{]===%",
"  ^===/ (_ :===$",
"  ,====<  [====*",
"  *===;}  &|===,",
"  @===1 22 3===$",
"  %===.4==4.===2",
"  .*==========56",
"   -;========;7 ",
"    -,======57  ",
"     '%8,,826   "};
