/* XPM */
static char * close_pressed_xpm[] = {
"16 15 34 1",
" 	c #2F2F2F",
".	c #323635",
"+	c #3F5B55",
"@	c #48736A",
"#	c #4D7F75",
"$	c #3F5A55",
"%	c #394B47",
"&	c #4C7E74",
"*	c #4E8378",
"=	c #3A4B48",
"-	c #4E8278",
";	c #4D7F74",
">	c #303130",
",	c #3C504C",
"'	c #4D8277",
")	c #3C514D",
"!	c #303030",
"~	c #3F5A54",
"{	c #49746B",
"]	c #3F5953",
"^	c #3A4E4A",
"/	c #3B4F4B",
"(	c #3D5651",
"_	c #4C7F74",
":	c #3E5752",
"<	c #3D5550",
"[	c #4E8277",
"}	c #3B504C",
"|	c #3F5954",
"1	c #405C56",
"2	c #3E5954",
"3	c #313534",
"4	c #394A47",
"5	c #487269",
"                ",
"     .+@##@$.   ",
"    %&******&=  ",
"   %-********-= ",
"  .&**#****;**;.",
"  +***>,'')!***~",
"  {***] ^/ (***@",
"  _****:  <****&",
"  &***-^  %[***;",
"  @***} || /***@",
"  $***.1**1.***2",
"  .&**********&3",
"   =-********-4 ",
"    =;******&4  ",
"     .~5__523   "};
