/* XPM */
static char * max_pressed_xpm[] = {
"16 16 30 1",
" 	c #141A1B",
".	c #151D1E",
"+	c #1D4E46",
"@	c #257E6C",
"#	c #2A9C85",
"$	c #2DAC92",
"%	c #1D4D45",
"&	c #1C4C43",
"*	c #2B9E88",
"=	c #2EB398",
"-	c #2B9E87",
";	c #1C4A43",
">	c #2B9F87",
",	c #FFFFFF",
"'	c #C4EAE2",
")	c #1C4D45",
"!	c #257E6D",
"~	c #EEF9F7",
"{	c #257C6C",
"]	c #2A9D86",
"^	c #F2FAF9",
"/	c #EBF8F5",
"(	c #2CAA91",
"_	c #EFF9F7",
":	c #2A9B84",
"<	c #247B6B",
"[	c #C5EAE2",
"}	c #1C4C44",
"|	c #151D1D",
"1	c #141B1C",
"                ",
"    .+@#$#@%.   ",
"   &*=======-   ",
"  &===========; ",
" .-===========>.",
" +=====,,,,'===)",
" !======~,,,==={",
" ]===,===~,,===#",
" $===,^===,/===(",
" #===,,_===,===:",
" @===,,,,======<",
" %===[,,_,=====}",
" |-===========*.",
"   ==========1  ",
"   ;-=======-   ",
"    |){:$:{}|   "};
