/* XPM */
static char * min_xpm[] = {
"16 15 2 1",
" 	c #141A1B",
".	c #888C90",
"                ",
"                ",
"                ",
"                ",
"                ",
"                ",
"                ",
"      ......    ",
"      ......    ",
"                ",
"                ",
"                ",
"                ",
"                ",
"                "};
