/* XPM */
static char * closeA_xpm[] = {
"28 42 62 1",
" 	c #2F2F2F",
".	c #383634",
"+	c #68584B",
"@	c #886F5B",
"#	c #977B63",
"$	c #876F5B",
"%	c #67584B",
"&	c #534941",
"*	c #967A62",
"=	c #9C7E65",
"-	c #534A41",
";	c #9B7E65",
">	c #313030",
",	c #5A4E45",
"'	c #9B7D64",
")	c #5C4F45",
"!	c #303030",
"~	c #67574A",
"{	c #88705B",
"]	c #65564A",
"^	c #584C43",
"/	c #584D43",
"(	c #615348",
"_	c #977A62",
":	c #635549",
"<	c #605348",
"[	c #574C43",
"}	c #544941",
"|	c #5A4E44",
"1	c #66574A",
"2	c #594D44",
"3	c #69594C",
"4	c #373533",
"5	c #524940",
"6	c #866E5A",
"7	c #373737",
"8	c #353432",
"9	c #564B43",
"0	c #6B5B4E",
"a	c #766353",
"b	c #554B43",
"c	c #48413C",
"d	c #756253",
"e	c #796555",
"f	c #766354",
"g	c #353433",
"h	c #4C453E",
"i	c #786454",
"j	c #4D453F",
"k	c #554A42",
"l	c #6C5B4E",
"m	c #544A42",
"n	c #4B433D",
"o	c #514840",
"p	c #524941",
"q	c #4A433D",
"r	c #786455",
"s	c #4C443E",
"t	c #574C44",
"u	c #343332",
"v	c #47403B",
"w	c #6A5A4D",
"                            ",
"                            ",
"                            ",
"            .+@##$%.        ",
"           &*======*-       ",
"          &;========;-      ",
"         .*==#====*==*.     ",
"         +===>,'')!===~     ",
"         {===] ^/ (===$     ",
"         _====:  <====*     ",
"         *===;[  }'===*     ",
"         @===| 11 2===$     ",
"         %===.3==3.===1     ",
"         .*==========*4     ",
"          -;========;5      ",
"           -*======*5       ",
"            .~6__614        ",
"                            ",
"                            ",
"    777777777777777777777777",
"                            ",
"                            ",
"                            ",
"                            ",
"            890aa0b8        ",
"           cdeeeeeedc       ",
"          ceeeeeeeeeec      ",
"         8deefeeeedeedg     ",
"         9eee!hiij!eeek     ",
"         leeem nn oeee0     ",
"         deeeep  oeeeed     ",
"         deeeeq  creeed     ",
"         0eees mm seee0     ",
"         beee8teet8eeem     ",
"         8deeeeeeeeeedu     ",
"          ceeeeeeeeeev      ",
"           cdeeeeeedv       ",
"            gkwddwmu        ",
"                            ",
"                            ",
"                            ",
"                            "};
