/* XPM */
static char * closeI_xpm[] = {
"28 42 49 1",
" 	c #2F2F2F",
".	c #343434",
"+	c #4C4C4C",
"@	c #5C5C5C",
"#	c #646464",
"$	c #5B5B5B",
"%	c #4B4B4B",
"&	c #414141",
"*	c #636363",
"=	c #666666",
"-	c #424242",
";	c #303030",
">	c #454545",
",	c #656565",
"'	c #464646",
")	c #4A4A4A",
"!	c #434343",
"~	c #444444",
"{	c #484848",
"]	c #494949",
"^	c #4D4D4D",
"/	c #333333",
"(	c #373737",
"_	c #353432",
":	c #564B43",
"<	c #6B5B4E",
"[	c #766353",
"}	c #554B43",
"|	c #48413C",
"1	c #756253",
"2	c #796555",
"3	c #766354",
"4	c #353433",
"5	c #4C453E",
"6	c #786454",
"7	c #4D453F",
"8	c #554A42",
"9	c #6C5B4E",
"0	c #544A42",
"a	c #4B433D",
"b	c #514840",
"c	c #524941",
"d	c #4A433D",
"e	c #786455",
"f	c #4C443E",
"g	c #574C44",
"h	c #343332",
"i	c #47403B",
"j	c #6A5A4D",
"                            ",
"                            ",
"                            ",
"            .+@##$%.        ",
"           &*======*-       ",
"          &==========-      ",
"         .*==#====*==*.     ",
"         +===;>,,';===%     ",
"         @===) !~ {===$     ",
"         *====]  {====*     ",
"         *====!  &,===*     ",
"         @===> %% ~===$     ",
"         %===.^==^.===%     ",
"         .*==========*/     ",
"          -==========&      ",
"           -*======*&       ",
"            .%$**$%/        ",
"                            ",
"                            ",
"                            ",
"    ((((((((((((((((((((((((",
"                            ",
"                            ",
"                            ",
"                            ",
"            _:<[[<}_        ",
"           |12222221|       ",
"          |2222222222|      ",
"         _1223222212214     ",
"         :222;5667;2228     ",
"         92220 aa b222<     ",
"         12222c  b22221     ",
"         12222d  |e2221     ",
"         <222f 00 f222<     ",
"         }222_g22g_2220     ",
"         _122222222221h     ",
"          |2222222222i      ",
"           |12222221i       ",
"            48j11j0h        ",
"                            ",
"                            ",
"                            "};
