/* XPM */
static char * closeO_xpm[] = {
"28 42 69 1",
" 	c #2B2B2B",
".	c #4E463F",
"+	c #7A695A",
"@	c #9A816D",
"#	c #A88C75",
"$	c #99806C",
"%	c #796859",
"&	c #4E4640",
"*	c #3F3A37",
"=	c #8D7765",
"-	c #AD9078",
";	c #3E3A36",
">	c #4B443E",
",	c #A48973",
"'	c #4A433E",
")	c #3D3936",
"!	c #8C7664",
"~	c #AD9079",
"{	c #E7E0D9",
"]	c #BDA692",
"^	c #4D4640",
"/	c #7B695A",
"(	c #BCA591",
"_	c #F3EFEB",
":	c #BEA794",
"<	c #796759",
"[	c #A78B74",
"}	c #F2EEEB",
"|	c #A58A73",
"1	c #98806C",
"2	c #786759",
"3	c #4D453F",
"4	c #8B7664",
"5	c #3B3835",
"6	c #A28872",
"7	c #403A36",
"8	c #5B4E45",
"9	c #6D5D4F",
"0	c #766353",
"a	c #6D5C4F",
"b	c #5A4E44",
"c	c #403B37",
"d	c #373432",
"e	c #66564A",
"f	c #796555",
"g	c #66574B",
"h	c #373431",
"i	c #746152",
"j	c #3E3935",
"k	c #736152",
"l	c #363331",
"m	c #65564A",
"n	c #7A6656",
"o	c #D9D3CF",
"p	c #938376",
"q	c #403B36",
"r	c #5B4F45",
"s	c #928275",
"t	c #ECE9E7",
"u	c #958578",
"v	c #756253",
"w	c #EBE8E6",
"x	c #948478",
"y	c #6D5C4E",
"z	c #594D44",
"A	c #D9D4CF",
"B	c #3F3A36",
"C	c #353230",
"D	c #736051",
"                            ",
"            .+@##$%&        ",
"          *=--------=;      ",
"         >,----------,'     ",
"        *,------------,)    ",
"        !---~------~---=    ",
"       .---~{]----]{~---^   ",
"       /----(_:--(_:----<   ",
"       @-----(_:(_:-----$   ",
"       [------]__]------[   ",
"       [------]}}]------|   ",
"       @-----(_:(_:-----1   ",
"       +----(_:--(_:----2   ",
"       &---~{]----]{~---3   ",
"        4---~------~---=    ",
"        56------------,)    ",
"         ',----------,'     ",
"          ;=--------!)      ",
"            ^<1[[1<3        ",
"                            ",
"                            ",
"                            ",
"            78900abc        ",
"          deffffffffgh      ",
"         ;iffffffffffij     ",
"        diffffffffffffkl    ",
"        mfffnffffffnfffe    ",
"       7fffnopffffponfffq   ",
"       rffffstuffstuffffb   ",
"       9fffffstustufffffa   ",
"       vffffffpwwpffffffv   ",
"       vffffffpwwpffffffi   ",
"       9fffffstxstufffffy   ",
"       8ffffstxffstuffffz   ",
"       cfffnApffffponfffB   ",
"        mfffnffffffnfffg    ",
"        CDffffffffffffkl    ",
"         jkffffffffffkj     ",
"          hgffffffffml      ",
"            qbyvvybB        ",
"                            ",
"                            "};
