/* XPM */
static char * closeA_xpm[] = {
"28 42 72 1",
" 	c #2B2B2B",
".	c #49413A",
"+	c #705E4E",
"@	c #8B725D",
"#	c #977B63",
"$	c #8B715C",
"%	c #6F5D4E",
"&	c #4A423B",
"*	c #3C3834",
"=	c #806956",
"-	c #9C7E65",
";	c #806A57",
">	c #3C3734",
",	c #47403A",
"'	c #957961",
")	c #463F39",
"!	c #947861",
"~	c #3B3733",
"{	c #7F6956",
"]	c #9C7F66",
"^	c #E3DBD4",
"/	c #AF9783",
"(	c #49413B",
"_	c #705E4F",
":	c #AF9682",
"<	c #F0ECE9",
"[	c #B19985",
"}	c #977A62",
"|	c #F0ECE8",
"1	c #B09884",
"2	c #8A715C",
"3	c #6E5C4D",
"4	c #48413A",
"5	c #7F6856",
"6	c #393532",
"7	c #937760",
"8	c #806957",
"9	c #403A36",
"0	c #5B4E45",
"a	c #6D5D4F",
"b	c #766353",
"c	c #6D5C4F",
"d	c #5A4E44",
"e	c #403B37",
"f	c #373432",
"g	c #66564A",
"h	c #796555",
"i	c #66574B",
"j	c #373431",
"k	c #3E3A36",
"l	c #746152",
"m	c #3E3935",
"n	c #736152",
"o	c #363331",
"p	c #65564A",
"q	c #7A6656",
"r	c #D9D3CF",
"s	c #938376",
"t	c #403B36",
"u	c #5B4F45",
"v	c #928275",
"w	c #ECE9E7",
"x	c #958578",
"y	c #756253",
"z	c #EBE8E6",
"A	c #948478",
"B	c #6D5C4E",
"C	c #594D44",
"D	c #D9D4CF",
"E	c #3F3A36",
"F	c #353230",
"G	c #736051",
"                            ",
"            .+@##$%&        ",
"          *=--------;>      ",
"         ,'----------')     ",
"        *'------------!~    ",
"        {---]------]---=    ",
"       .---]^/----/^]---(   ",
"       _----:<[--:<[----%   ",
"       @-----:<[:<[-----$   ",
"       }------/<</------}   ",
"       }------/||/------'   ",
"       @-----:<1:<[-----2   ",
"       +----:<1--:<[----3   ",
"       &---]^/----/^]---4   ",
"        5---]------]---;    ",
"        67------------!~    ",
"         )!----------!)     ",
"          >8--------{~      ",
"            (%2}}2%4        ",
"                            ",
"                            ",
"                            ",
"            90abbcde        ",
"          fghhhhhhhhij      ",
"         klhhhhhhhhhhlm     ",
"        flhhhhhhhhhhhhno    ",
"        phhhqhhhhhhqhhhg    ",
"       9hhhqrshhhhsrqhhht   ",
"       uhhhhvwxhhvwxhhhhd   ",
"       ahhhhhvwxvwxhhhhhc   ",
"       yhhhhhhszzshhhhhhy   ",
"       yhhhhhhszzshhhhhhl   ",
"       ahhhhhvwAvwxhhhhhB   ",
"       0hhhhvwAhhvwxhhhhC   ",
"       ehhhqDshhhhsrqhhhE   ",
"        phhhqhhhhhhqhhhi    ",
"        FGhhhhhhhhhhhhno    ",
"         mnhhhhhhhhhhnm     ",
"          jihhhhhhhhpo      ",
"            tdByyBdE        ",
"                            ",
"                            "};
