/* XPM */
static char * close_xpm[] = {
"16 15 37 1",
" 	c #2F2F2F",
".	c #34393B",
"+	c #4E6A79",
"@	c #5F8BA2",
"#	c #679BB7",
"$	c #5F8AA2",
"%	c #4D6978",
"&	c #43555E",
"*	c #679AB5",
"=	c #6AA0BD",
"-	c #6A9FBC",
";	c #689BB6",
">	c #679AB6",
",	c #303132",
"'	c #475C67",
")	c #699FBC",
"!	c #475D69",
"~	c #303030",
"{	c #4D6977",
"]	c #5F8CA3",
"^	c #4C6775",
"/	c #455964",
"(	c #455A65",
"_	c #4A6370",
":	c #4B6573",
"<	c #4A626F",
"[	c #445963",
"}	c #43555F",
"|	c #699EBB",
"1	c #465B66",
"2	c #4D6876",
"3	c #465A66",
"4	c #4F6B7A",
"5	c #4D6877",
"6	c #33383A",
"7	c #42535D",
"8	c #5E8AA1",
"                ",
"     .+@##$%.   ",
"    &*======*&  ",
"   &-========-& ",
"  .*==;====>==>.",
"  +===,'))!~==={",
"  ]===^ /( _===$",
"  >====:  <====*",
"  *===-[  }|===>",
"  @===1 22 3===$",
"  %===.4==4.===5",
"  .*==========*6",
"   &-========-7 ",
"    &>======*7  ",
"     .{8>>856   "};
