/* XPM */
static char * closeA_xpm[] = {
"28 42 5 1",
" 	c #0F0F0F",
".	c #CACACA",
"+	c #AFAFAF",
"@	c #AEAEAE",
"#	c #B1B1B1",
"                            ",
"                            ",
"                            ",
"                            ",
"           .+    +.         ",
"           @.#  @.#         ",
"            +.++.+          ",
"             @..#           ",
"             @..#           ",
"            +.++.+          ",
"           @.#  @.#         ",
"           .+    +.         ",
"                            ",
"                            ",
"                            ",
"                            ",
"                            ",
"                            ",
"                            ",
"                            ",
"                            ",
"                            ",
"                            ",
"                            ",
"                            ",
"                            ",
"                            ",
"                            ",
"                            ",
"                            ",
"                            ",
"                            ",
"                            ",
"                            ",
"                            ",
"                            ",
"                            ",
"                            ",
"                            ",
"                            ",
"                            ",
"                            "};
