/* XPM */
static char * closeO_xpm[] = {
"28 42 34 1",
" 	c #FFFFFF",
".	c #F4F4F4",
"+	c #D4D4D4",
"@	c #A9A9A9",
"#	c #9E9E9E",
"$	c #DFDFDF",
"%	c #999999",
"&	c #E0E0E0",
"*	c #D3D3D3",
"=	c #9A9A9A",
"-	c #FDFDFD",
";	c #DDDDDD",
">	c #B8B8B8",
",	c #A1A1A1",
"'	c #9C9C9C",
")	c #E2E2E2",
"!	c #E1E1E1",
"~	c #E9E9E9",
"{	c #535353",
"]	c #3D3D3D",
"^	c #BFBFBF",
"/	c #333333",
"(	c #C1C1C1",
"_	c #A6A6A6",
":	c #353535",
"<	c #A7A7A7",
"[	c #FAFAFA",
"}	c #BBBBBB",
"|	c #707070",
"1	c #434343",
"2	c #383838",
"3	c #C5C5C5",
"4	c #A8A8A8",
"5	c #C2C2C2",
"          .+@####@+.        ",
"         $%%%%%%%%%%&       ",
"        *=%%%%%%%%%%=*      ",
"       $=%%%%%%%%%%%%=&     ",
"       %%%%%%%%%%%%%%%%-    ",
"      ;%%%%  %%%%  %%%%;    ",
"      >%%%%   %%   %%%%>    ",
"      ,%%%%%      %%%%%,    ",
"      '%%%%%%    %%%%%%'    ",
"      '%%%%%%    %%%%%%'    ",
"      '%%%%%      %%%%%'    ",
"      ,%%%%   %%   %%%%,    ",
"      >%%%%  %%%%  %%%%>    ",
"      ;%%%%%%%%%%%%%%%%;    ",
"       )=%%%%%%%%%%%%=&-    ",
"        *=%%%%%%%%%%=+      ",
"         &%%%%%%%%%%!       ",
"          .+@####@+.        ",
"                            ",
"                            ",
"                            ",
"          ~@{]]]]{@~        ",
"         ^//////////(       ",
"        _://////////:<      ",
"       ^:////////////:(     ",
"       ////////////////[[   ",
"      }////  ////  ////}    ",
"      |////   //   ////|    ",
"      1/////      /////1    ",
"      2//////    //////2    ",
"      2//////    //////2    ",
"      2/////      /////2    ",
"      1////   //   ////1    ",
"      |////  ////  ////|    ",
"      }////////////////}    ",
"       3:////////////:([[   ",
"        <://////////:4      ",
"         (//////////5       ",
"          ~@{]]]]{@~        ",
"                            ",
"                            ",
"                            "};
