/* XPM */
static char * closeA_xpm[] = {
"28 42 73 1",
" 	c #2B2B2B",
".	c #433C51",
"+	c #625382",
"@	c #7962A5",
"#	c #8269B4",
"$	c #7862A4",
"%	c #625281",
"&	c #443D52",
"*	c #393541",
"=	c #6F5C97",
"-	c #866CBA",
";	c #705C97",
">	c #383540",
",	c #423B4E",
"'	c #8068B1",
")	c #413B4D",
"!	c #8067B0",
"~	c #38343F",
"{	c #6F5B96",
"]	c #866DBA",
"^	c #DDD6EB",
"/	c #9E89C8",
"(	c #635383",
"_	c #9D88C7",
":	c #EDEAF5",
"<	c #9F8BC8",
"[	c #615281",
"}	c #8269B3",
"|	c #EDE9F4",
"1	c #8168B2",
"2	c #9F8AC8",
"3	c #7762A3",
"4	c #615180",
"5	c #433C50",
"6	c #6E5B95",
"7	c #36333D",
"8	c #7E67AE",
"9	c #6F5C96",
"0	c #3C3648",
"a	c #51446D",
"b	c #614E87",
"c	c #675292",
"d	c #604E86",
"e	c #51446C",
"f	c #35323B",
"g	c #5A4A7C",
"h	c #6A5497",
"i	c #5B4A7D",
"j	c #34313B",
"k	c #3B3546",
"l	c #665190",
"m	c #3A3545",
"n	c #66518F",
"o	c #34313A",
"p	c #6B5597",
"q	c #D5CEE1",
"r	c #8776AB",
"s	c #8775AB",
"t	c #52446D",
"u	c #8674AB",
"v	c #EAE7F0",
"w	c #8978AD",
"x	c #51436C",
"y	c #E9E6EF",
"z	c #665191",
"A	c #8877AC",
"B	c #604D86",
"C	c #50436B",
"D	c #D5CFE1",
"E	c #3B3647",
"F	c #5A497B",
"G	c #333039",
"H	c #65508E",
"                            ",
"            .+@##$%&        ",
"          *=--------;>      ",
"         ,'----------')     ",
"        *'------------!~    ",
"        {---]------]---=    ",
"       .---]^/----/^]---.   ",
"       (----_:<--_:<----[   ",
"       @-----_:<_:<-----$   ",
"       }------/::/------}   ",
"       }------/||/------1   ",
"       @-----_:2_:<-----3   ",
"       +----_:2--_:<----4   ",
"       &---]^/----/^]---5   ",
"        6---]------]---;    ",
"        78------------!~    ",
"         )!----------!)     ",
"          >9--------{~      ",
"            .[3}}3[5        ",
"                            ",
"                            ",
"                            ",
"            0abccde0        ",
"          fghhhhhhhhij      ",
"         klhhhhhhhhhhlm     ",
"        flhhhhhhhhhhhhno    ",
"        ghhhphhhhhhphhhg    ",
"       0hhhpqrhhhhsqphhh0   ",
"       thhhhuvwhhuvwhhhhx   ",
"       bhhhhhuvwuvwhhhhhd   ",
"       chhhhhhsyyrhhhhhhc   ",
"       chhhhhhsyyrhhhhhhz   ",
"       bhhhhhuvAuvwhhhhhB   ",
"       ahhhhuvAhhuvwhhhhC   ",
"       0hhhpDrhhhhsqphhhE   ",
"        Fhhhphhhhhhphhhi    ",
"        GHhhhhhhhhhhhhno    ",
"         mnhhhhhhhhhhnm     ",
"          jghhhhhhhhgo      ",
"            0xBccBxE        ",
"                            ",
"                            "};
