/* XPM */
static char * closeI_xpm[] = {
"28 42 54 1",
" 	c #2B2B2B",
".	c #353535",
"+	c #434343",
"@	c #4C4C4C",
"#	c #505050",
"$	c #363636",
"%	c #313131",
"&	c #484848",
"*	c #525252",
"=	c #494949",
"-	c #4F4F4F",
";	c #535353",
">	c #A0A0A0",
",	c #676767",
"'	c #A1A1A1",
")	c #AFAFAF",
"!	c #686868",
"~	c #424242",
"{	c #303030",
"]	c #3C3648",
"^	c #51446D",
"/	c #614E87",
"(	c #675292",
"_	c #604E86",
":	c #51446C",
"<	c #35323B",
"[	c #5A4A7C",
"}	c #6A5497",
"|	c #5B4A7D",
"1	c #34313B",
"2	c #3B3546",
"3	c #665190",
"4	c #3A3545",
"5	c #66518F",
"6	c #34313A",
"7	c #6B5597",
"8	c #D5CEE1",
"9	c #8776AB",
"0	c #8775AB",
"a	c #52446D",
"b	c #8674AB",
"c	c #EAE7F0",
"d	c #8978AD",
"e	c #51436C",
"f	c #E9E6EF",
"g	c #665191",
"h	c #8877AC",
"i	c #604D86",
"j	c #50436B",
"k	c #D5CFE1",
"l	c #3B3647",
"m	c #5A497B",
"n	c #333039",
"o	c #65508E",
"                            ",
"            .+@##@+$        ",
"          %&********=%      ",
"         .#**********#.     ",
"        %#************-%    ",
"        &***;******;***&    ",
"       .***;>,****,';***$   ",
"       +****,)!**,)!****~   ",
"       @*****,)!,)!*****@   ",
"       #******,)),******#   ",
"       #******,)),******-   ",
"       @*****,)!,)!*****@   ",
"       +****,)!**,)!****~   ",
"       $***;>,****,>;***.   ",
"        &***;******;***=    ",
"        {-************-%    ",
"         .-**********-.     ",
"          %&********&%      ",
"            $~@##@~.        ",
"                            ",
"                            ",
"                            ",
"            ]^/((_:]        ",
"          <[}}}}}}}}|1      ",
"         23}}}}}}}}}}34     ",
"        <3}}}}}}}}}}}}56    ",
"        [}}}7}}}}}}7}}}[    ",
"       ]}}}789}}}}087}}}]   ",
"       a}}}}bcd}}bcd}}}}e   ",
"       /}}}}}bcdbcd}}}}}_   ",
"       (}}}}}}0ff9}}}}}}(   ",
"       (}}}}}}0ff9}}}}}}g   ",
"       /}}}}}bchbcd}}}}}i   ",
"       ^}}}}bch}}bcd}}}}j   ",
"       ]}}}7k9}}}}087}}}l   ",
"        m}}}7}}}}}}7}}}|    ",
"        no}}}}}}}}}}}}56    ",
"         45}}}}}}}}}}54     ",
"          1[}}}}}}}}[6      ",
"            ]ei((iel        ",
"                            ",
"                            "};
