/* XPM */
static char * closeO_xpm[] = {
"28 42 69 1",
" 	c #2B2B2B",
".	c #494356",
"+	c #6F618C",
"@	c #8A77B3",
"#	c #9680C4",
"$	c #8A76B2",
"%	c #3C3943",
"&	c #7F6EA4",
"*	c #9B84CB",
"=	c #806EA4",
"-	c #3B3842",
";	c #474152",
">	c #947EC0",
",	c #464152",
"'	c #937EC0",
")	c #7E6DA2",
"!	c #E3DCF0",
"~	c #AF9CD5",
"{	c #494355",
"]	c #70628D",
"^	c #AE9BD5",
"/	c #F0EDF7",
"(	c #B09ED6",
"_	c #6E608B",
":	c #9680C3",
"<	c #947FC2",
"[	c #AF9DD6",
"}	c #8976B1",
"|	c #6D608A",
"1	c #484255",
"2	c #7E6DA1",
"3	c #39363F",
"4	c #927DBE",
"5	c #7F6EA3",
"6	c #3C3648",
"7	c #51446D",
"8	c #614E87",
"9	c #675292",
"0	c #604E86",
"a	c #51446C",
"b	c #35323B",
"c	c #5A4A7C",
"d	c #6A5497",
"e	c #5B4A7D",
"f	c #34313B",
"g	c #3B3546",
"h	c #665190",
"i	c #3A3545",
"j	c #66518F",
"k	c #34313A",
"l	c #6B5597",
"m	c #D5CEE1",
"n	c #8776AB",
"o	c #8775AB",
"p	c #52446D",
"q	c #8674AB",
"r	c #EAE7F0",
"s	c #8978AD",
"t	c #51436C",
"u	c #E9E6EF",
"v	c #665191",
"w	c #8877AC",
"x	c #604D86",
"y	c #50436B",
"z	c #D5CFE1",
"A	c #3B3647",
"B	c #5A497B",
"C	c #333039",
"D	c #65508E",
"                            ",
"            .+@##$+.        ",
"          %&********=-      ",
"         ;>**********>,     ",
"        %>************'-    ",
"        )**************&    ",
"       .****!~****~!****{   ",
"       ]****^/(**^/(****_   ",
"       @*****^/(^/(*****$   ",
"       :******~//~******:   ",
"       :******~//~******<   ",
"       @*****^/[^/(*****}   ",
"       +****^/[**^/(****|   ",
"       .****!~****~!****1   ",
"        2**************=    ",
"        34************'-    ",
"         ,'**********',     ",
"          -5********)-      ",
"            {_}::}_1        ",
"                            ",
"                            ",
"                            ",
"            678990a6        ",
"          bcddddddddef      ",
"         ghddddddddddhi     ",
"        bhddddddddddddjk    ",
"        cdddlddddddldddc    ",
"       6dddlmnddddomlddd6   ",
"       pddddqrsddqrsddddt   ",
"       8dddddqrsqrsddddd0   ",
"       9ddddddouundddddd9   ",
"       9ddddddouunddddddv   ",
"       8dddddqrwqrsdddddx   ",
"       7ddddqrwddqrsddddy   ",
"       6dddlznddddomldddA   ",
"        Bdddlddddddlddde    ",
"        CDddddddddddddjk    ",
"         ijddddddddddji     ",
"          fcddddddddck      ",
"            6tx99xtA        ",
"                            ",
"                            "};
