/* XPM */
static char * restoreO_xpm[] = {
"28 42 20 1",
" 	c None",
".	c #FFFFFF",
"+	c #F4F4F4",
"@	c #D4D4D4",
"#	c #D9D9D9",
"$	c #DFDFDF",
"%	c #E0E0E0",
"&	c #D3D3D3",
"*	c #FDFDFD",
"=	c #DDDDDD",
"-	c #595959",
";	c #E2E2E2",
">	c #E1E1E1",
",	c #9D9D9D",
"'	c #A1A1A1",
")	c #A5A5A5",
"!	c #A6A6A6",
"~	c #9C9C9C",
"{	c #A4A4A4",
"]	c #A7A7A7",
"......+@######@+........    ",
".....$##########%.......    ",
"....&############&......    ",
"...$##############%.....    ",
"...################*....    ",
"..=################=....    ",
"..######------######....    ",
"..######------######....    ",
"..######--##--######....    ",
"..######--##--######....    ",
"..######------######....    ",
"..######------######....    ",
"..##################....    ",
"..=################=....    ",
"...;##############%*....    ",
"....&############@......    ",
".....%##########>.......    ",
"......+@######@+........    ",
"........................    ",
"........................    ",
"........................    ",
".......,'''''',.........    ",
".....)''''''''''!.......    ",
"....~''''''''''''~......    ",
"...)''''''''''''''!.....    ",
"...''''''''''''''''.....    ",
"..{''''''''''''''''{....    ",
"..''''''------''''''....    ",
"..''''''------''''''....    ",
"..''''''--''--''''''....    ",
"..''''''--''--''''''....    ",
"..''''''------''''''....    ",
"..''''''------''''''....    ",
"..''''''''''''''''''....    ",
"..{''''''''''''''''{....    ",
"...]''''''''''''''!.....    ",
"....~'''''''''''',......    ",
".....!''''''''''].......    ",
".......,'''''',.........    ",
"........................    ",
"........................    ",
"........................    "};
