/* XPM */
static char * closeO_xpm[] = {
"28 42 95 2",
"  	c None",
". 	c #141A1B",
"+ 	c #602F35",
"@ 	c #A6464C",
"# 	c #D2545B",
"$ 	c #EA5D64",
"% 	c #5F2F35",
"& 	c #D6565D",
"* 	c #F46067",
"= 	c #8F3F45",
"- 	c #8E3E44",
"; 	c #8C3E43",
"> 	c #D7575D",
", 	c #15161B",
"' 	c #47272D",
") 	c #E25A61",
"! 	c #E45B62",
"~ 	c #4C282E",
"{ 	c #14161B",
"] 	c #5E2F34",
"^ 	c #3B2328",
"/ 	c #E35A61",
"( 	c #3E2429",
"_ 	c #372227",
": 	c #A4464C",
"< 	c #D3555C",
"[ 	c #DB575F",
"} 	c #332126",
"| 	c #3C2329",
"1 	c #301F25",
"2 	c #D8575D",
"3 	c #EA5C63",
"4 	c #DF5960",
"5 	c #382128",
"6 	c #2F1E24",
"7 	c #E15A60",
"8 	c #352126",
"9 	c #DD585F",
"0 	c #E85C62",
"a 	c #E05960",
"b 	c #3A2227",
"c 	c #40252A",
"d 	c #5D2F34",
"e 	c #5C2E33",
"f 	c #5A2D33",
"g 	c #8B3D44",
"h 	c #8D3E44",
"i 	c #D5555C",
"j 	c #D1545B",
"k 	c #5F2125",
"l 	c #A4282E",
"m 	c #CF2D34",
"n 	c #E82F38",
"o 	c #5E2125",
"p 	c #5B2225",
"q 	c #D42D35",
"r 	c #F13039",
"s 	c #D32D35",
"t 	c #5B2124",
"u 	c #8A262B",
"v 	c #5A2125",
"w 	c #D52D35",
"x 	c #1A1A1A",
"y 	c #471F22",
"z 	c #DF2E36",
"A 	c #E12F37",
"B 	c #4B1F22",
"C 	c #5D2125",
"D 	c #3B1E20",
"E 	c #E02E37",
"F 	c #3D1E21",
"G 	c #371E20",
"H 	c #A2282F",
"I 	c #D02D35",
"J 	c #D92E36",
"K 	c #331D1F",
"L 	c #2F1D1F",
"M 	c #D62D35",
"N 	c #E72F37",
"O 	c #DC2D37",
"P 	c #381E20",
"Q 	c #2E1D1F",
"R 	c #DE2E36",
"S 	c #3B1D20",
"T 	c #351D1F",
"U 	c #DA2E36",
"V 	c #E52E37",
"W 	c #DD2E36",
"X 	c #3A1E20",
"Y 	c #3F1E21",
"Z 	c #5C2125",
"` 	c #D22D35",
" .	c #592125",
"..	c #8B262B",
"+.	c #CE2C34",
". . . . . . . . . . . + @ # $ $ # @ % . . . . . . . . . ",
". . . . . . . . . . & * * * * * * * * & . . . . . . . . ",
". . . . . . . . . = * * * * * * * * * * - . . . . . . . ",
". . . . . . . . = * * * * * * * * * * * * ; . . . . . . ",
". . . . . . . & * * * * * * * * * * * * * * > . . . . . ",
". . . . . . + * * * * , ' ) * * ! ~ { * * * * ] . . . . ",
". . . . . . @ * * * * ^ { ^ ) / ( { _ * * * * : . . . . ",
". . . . . . < * * * * [ } { ^ | { 1 2 * * * * # . . . . ",
". . . . . . 3 * * * * * 4 5 { { 6 & * * * * * 3 . . . . ",
". . . . . . 3 * * * * * 7 ^ { { 8 9 * * * * * 0 . . . . ",
". . . . . . < * * * * a b { _ _ { _ 4 * * * * # . . . . ",
". . . . . . @ * * * * c { _ 4 4 _ { ( * * * * : . . . . ",
". . . . . . % * * * * , ( 4 * * 4 ( { * * * * d . . . . ",
". . . . . . . e * * * * * * * * * * * * * * f . . . . . ",
". . . . . . . . - * * * * * * * * * * * * g . . . . . . ",
". . . . . . . . . h * * * * * * * * * * ; . . . . . . . ",
". . . . . . . . . . i * * * * * * * * i . . . . . . . . ",
". . . . . . . . . . . ] : j 3 3 j : d . . . . . . . . . ",
". . . . . . . . . . . . . . . . . . . . . . . . . . . . ",
". . . . . . . . . . . . . . . . . . . . . . . . . . . . ",
". . . . . . . . . . . . . . . . . . . . . . . . . . . . ",
". . . . . . . . . . . k l m n n m l o . . . . . . . . . ",
". . . . . . . . . p q r r r r r r r r s t . . . . . . . ",
". . . . . . . . r r r r r r r r r r r r r u . . . . . . ",
". . . . . . . p r r r r r r r r r r r r r r v . . . . . ",
". . . . . . . s r r r r r r r r r r r r r r w . . . . . ",
". . . . . . k r r r r x y z r r A B x r r r r C . . . . ",
". . . . . . l r r r r D x D z E F x G r r r r H . . . . ",
". . . . . . I r r r r J K x D D x L M r r r r m . . . . ",
". . . . . . N r r r r r O P x x Q q r r r r r N . . . . ",
". . . . . . N r r r r r R S x x T U r r r r r V . . . . ",
". . . . . . I r r r r W X x G G x G O r r r r m . . . . ",
". . . . . . l r r r r Y x G O O G x F r r r r H . . . . ",
". . . . . . o r r r r x F O r r O F x r r r r Z . . . . ",
". . . . . . . ` r r r r r r r r r r r r r r q . . . . . ",
". . . . . . . t r r r r r r r r r r r r r r  .. . . . . ",
". . . . . . . . ..r r r r r r r r r r r r . . . . . . . ",
". . . . . . . . . v ` r r r r r r r r `  .. . . . . . . ",
". . . . . . . . . . . C H +.N N +.H Z . . . . . . . . . ",
". . . . . . . . . . . . . . . . . . . . . . . . . . . . ",
"    . . . . . . . . . . . . . . . . . . . . . . . . . . ",
"    . . . . . . . . . . . . . . . . . . . . . . . . . . "};
