/* XPM */
static char * closeA_xpm[] = {
"28 42 90 1",
" 	c None",
".	c #141A1B",
"+	c #242021",
"@	c #743A3D",
"#	c #AA4C50",
"$	c #C4545A",
"%	c #A94B50",
"&	c #733A3D",
"*	c #512E31",
"=	c #C35459",
"-	c #CC575D",
";	c #502E31",
">	c #CB575D",
",	c #C1545A",
"'	c #C25359",
")	c #231F21",
"!	c #181B1C",
"~	c #5C3234",
"{	c #CA565C",
"]	c #5F3236",
"^	c #161B1C",
"/	c #72393C",
"(	c #AA4C51",
"_	c #6F383C",
":	c #593134",
"<	c #5A3134",
"[	c #69363A",
"}	c #6C373A",
"|	c #673539",
"1	c #593034",
"2	c #522E31",
"3	c #C9565C",
"4	c #5B3235",
"5	c #70393C",
"6	c #5A3135",
"7	c #743A3E",
"8	c #71393C",
"9	c #221F20",
"0	c #502E30",
"a	c #A84B50",
"b	c #C3545A",
"c	c #1A1A1B",
"d	c #5F2125",
"e	c #A4282E",
"f	c #CF2D34",
"g	c #E82F38",
"h	c #5E2125",
"i	c #5B2225",
"j	c #D42D35",
"k	c #F13039",
"l	c #D32D35",
"m	c #5B2124",
"n	c #8A262B",
"o	c #5A2125",
"p	c #D52D35",
"q	c #151A1B",
"r	c #471F22",
"s	c #DF2E36",
"t	c #E12F37",
"u	c #4B1F22",
"v	c #5D2125",
"w	c #3B1E20",
"x	c #E02E37",
"y	c #3D1E21",
"z	c #371E20",
"A	c #A2282F",
"B	c #D02D35",
"C	c #D92E36",
"D	c #331D1F",
"E	c #2F1D1F",
"F	c #D62D35",
"G	c #E72F37",
"H	c #DC2D37",
"I	c #381E20",
"J	c #2E1D1F",
"K	c #DE2E36",
"L	c #3B1D20",
"M	c #351D1F",
"N	c #DA2E36",
"O	c #E52E37",
"P	c #DD2E36",
"Q	c #3A1E20",
"R	c #3F1E21",
"S	c #5C2125",
"T	c #191A1B",
"U	c #D22D35",
"V	c #592125",
"W	c #8B262B",
"X	c #161A1B",
"Y	c #CE2C34",
"............................",
"...........+@#$$%&+.........",
"..........*=------=;........",
".........*>-------->;.......",
"........+=--,----'--')......",
"........@---!~{{]^---/......",
"........(---_.:<.[---%......",
"........=----}..|----=......",
"........=---{1..23---'......",
"........#---4.55.6---%......",
"........&---+7--7+---8......",
"........+=----------,9......",
".........;>-------->0.......",
"..........;'------,0........",
"...........)/abba89.........",
"............................",
"............................",
"............................",
"............................",
"............................",
"............................",
"..........cdefggfehc........",
".........ijkkkkkkkklm.......",
"........kkkkkkkkkkkkkn......",
".......ikkkkkkkkkkkkkko.....",
"......clkkkkkkkkkkkkkkpc....",
"......dkkkkqrskktu.kkkkv....",
"......ekkkkw.wsxy.zkkkkA....",
"......BkkkkCD.ww.EFkkkkf....",
"......GkkkkkHI..JjkkkkkG....",
"......GkkkkkKL..MNkkkkkO....",
"......BkkkkPQ.zz.zHkkkkf....",
"......ekkkkR.zHHz.ykkkkA....",
"......hkkkkqyHkkHy.kkkkS....",
"......TUkkkkkkkkkkkkkkjc....",
".......mkkkkkkkkkkkkkkV.....",
"........WkkkkkkkkkkkkX......",
".........oUkkkkkkkkUV.......",
"..........TvAYGGYAST........",
"............................",
"  ..........................",
"  .........................."};
