/* XPM */
static char * closeI_xpm[] = {
"28 42 84 1",
" 	c None",
".	c #141A1B",
"+	c #192021",
"@	c #363D3D",
"#	c #495151",
"$	c #535A5B",
"%	c #4A5051",
"&	c #2A3131",
"*	c #52595B",
"=	c #565D5E",
"-	c #293131",
";	c #565D5D",
">	c #52595A",
",	c #191F20",
"'	c #161C1D",
")	c #2E3435",
"!	c #565C5D",
"~	c #2F3637",
"{	c #141B1C",
"]	c #363C3D",
"^	c #343B3C",
"/	c #2D3334",
"(	c #2D3335",
"_	c #32393A",
":	c #333A3B",
"<	c #313839",
"[	c #555C5D",
"}	c #555C5C",
"|	c #353C3D",
"1	c #2D3435",
"2	c #373C3E",
"3	c #363C3C",
"4	c #293031",
"5	c #4A5050",
"6	c #525A5B",
"7	c #1A1A1B",
"8	c #5F2125",
"9	c #A4282E",
"0	c #CF2D34",
"a	c #E82F38",
"b	c #5E2125",
"c	c #5B2225",
"d	c #D42D35",
"e	c #F13039",
"f	c #D32D35",
"g	c #5B2124",
"h	c #8A262B",
"i	c #5A2125",
"j	c #D52D35",
"k	c #151A1B",
"l	c #471F22",
"m	c #DF2E36",
"n	c #E12F37",
"o	c #4B1F22",
"p	c #5D2125",
"q	c #3B1E20",
"r	c #E02E37",
"s	c #3D1E21",
"t	c #371E20",
"u	c #A2282F",
"v	c #D02D35",
"w	c #D92E36",
"x	c #331D1F",
"y	c #2F1D1F",
"z	c #D62D35",
"A	c #E72F37",
"B	c #DC2D37",
"C	c #381E20",
"D	c #2E1D1F",
"E	c #DE2E36",
"F	c #3B1D20",
"G	c #351D1F",
"H	c #DA2E36",
"I	c #E52E37",
"J	c #DD2E36",
"K	c #3A1E20",
"L	c #3F1E21",
"M	c #5C2125",
"N	c #191A1B",
"O	c #D22D35",
"P	c #592125",
"Q	c #8B262B",
"R	c #161A1B",
"S	c #CE2C34",
"............................",
"...........+@#$$%@+.........",
"..........&*======*-........",
".........&;========;-.......",
"........+*==>====>==>,......",
"........@===')!!~{===]......",
"........#===^./(._===%......",
"........*====:..<====*......",
"........*===[/..&}===>......",
"........#===).||.1===%......",
"........@===+2==2+===3......",
"........+*==========>,......",
".........-;========;4.......",
"..........->======>4........",
"...........,]56653,.........",
"............................",
"............................",
"............................",
"............................",
"............................",
"............................",
"..........7890aa09b7........",
".........cdeeeeeeeefg.......",
"........eeeeeeeeeeeeeh......",
".......ceeeeeeeeeeeeeei.....",
"......7feeeeeeeeeeeeeej7....",
"......8eeeeklmeeno.eeeep....",
"......9eeeeq.qmrs.teeeeu....",
"......veeeewx.qq.yzeeee0....",
"......AeeeeeBC..DdeeeeeA....",
"......AeeeeeEF..GHeeeeeI....",
"......veeeeJK.tt.tBeeee0....",
"......9eeeeL.tBBt.seeeeu....",
"......beeeeksBeeBs.eeeeM....",
"......NOeeeeeeeeeeeeeed7....",
".......geeeeeeeeeeeeeeP.....",
"........QeeeeeeeeeeeeR......",
".........iOeeeeeeeeOP.......",
"..........NpuSAASuMN........",
"............................",
"  ..........................",
"  .........................."};
