/* XPM */
static char * minimizeI_xpm[] = {
"20 42 30 1",
" 	c None",
".	c #141A1B",
"+	c #565D5E",
"@	c #151D1E",
"#	c #1D4E46",
"$	c #257E6C",
"%	c #2A9C85",
"&	c #2DAC92",
"*	c #1D4D45",
"=	c #1C4C43",
"-	c #2B9E88",
";	c #2EB398",
">	c #2B9E87",
",	c #1D4C43",
"'	c #226C5E",
")	c #1C4A43",
"!	c #2B9F87",
"~	c #1C4D45",
"{	c #257E6D",
"]	c #257C6C",
"^	c #2A9D86",
"/	c #FFFFFF",
"(	c #2CAA91",
"_	c #2A9B84",
":	c #247B6B",
"<	c #1C4C44",
"[	c #151D1D",
"}	c #1C4942",
"|	c #226D5E",
"1	c #141B1C",
"....................",
"....................",
"....................",
"....................",
"....................",
"....................",
"....................",
"....................",
"....................",
".......++++++.......",
".......++++++.......",
"....................",
"....................",
"....................",
"....................",
"....................",
"....................",
"....................",
"....................",
"....................",
"....................",
"....................",
".....@#$%&&%$*@.....",
"....=-;;;;;;;;>,....",
"...;;;;;;;;;;;;;'...",
"..=;;;;;;;;;;;;;;)..",
".@>;;;;;;;;;;;;;;!@.",
".#;;;;;;;;;;;;;;;;~.",
".{;;;;;;;;;;;;;;;;].",
".^;;;;;;;;;;;;;;;;%.",
".&;;;;////////;;;;&.",
".&;;;;////////;;;;(.",
".%;;;;;;;;;;;;;;;;_.",
".$;;;;;;;;;;;;;;;;:.",
".*;;;;;;;;;;;;;;;;<.",
".[>;;;;;;;;;;;;;;-@.",
"..,;;;;;;;;;;;;;;}..",
"...|;;;;;;;;;;;;1...",
"....)>;;;;;;;;>}....",
".....[~]_&&_]<[.....",
"....................",
"                    "};
