/* XPM */
static char * restoreI_xpm[] = {
"20 42 20 1",
" 	c #141A1B",
".	c #4B4B4D",
"+	c #606060",
"@	c #515152",
"#	c #494A4B",
"$	c #48494A",
"%	c #1B433D",
"&	c #247867",
"*	c #2A9C85",
"=	c #2DAC92",
"-	c #2EB398",
";	c #237566",
">	c #9DDCCF",
",	c #FFFFFF",
"'	c #FEFFFF",
")	c #97D9CC",
"!	c #BDE7DF",
"~	c #2CAA91",
"{	c #2A9B84",
"]	c #90D6C8",
"                    ",
"                    ",
"                    ",
"                    ",
"                    ",
"           .        ",
"           +.       ",
"           ++.      ",
"           @++#     ",
"       #++@         ",
"        $++         ",
"         $+         ",
"          $         ",
"                    ",
"                    ",
"                    ",
"                    ",
"                    ",
"                    ",
"                    ",
"                    ",
"       %&*==*&%     ",
"     %*--------*%   ",
"    -------------;  ",
"   %------->------% ",
"   *-------,>-----* ",
"  %--------,,>-----%",
"  &--------,,,>----&",
"  *--------',,,)---*",
"  =--------!,,,,)--=",
"  =--),,,,!--------~",
"  *---),,,'--------{",
"  &----],,,--------&",
"  %-----],,--------%",
"   *-----],-------* ",
"   %------)-------% ",
"    ;------------   ",
"     %*--------*%   ",
"       %&{=={&%     ",
"                    ",
"                    ",
"                    "};
