/* XPM */
static char * restoreA_xpm[] = {
"20 42 22 1",
" 	c #141A1B",
".	c #6A6C70",
"+	c #171D1E",
"@	c #8C8E92",
"#	c #75777A",
"$	c #676B6D",
"%	c #171C1D",
"&	c #66696C",
"*	c #1B433D",
"=	c #247867",
"-	c #2A9C85",
";	c #2DAC92",
">	c #2EB398",
",	c #237566",
"'	c #9DDCCF",
")	c #FFFFFF",
"!	c #FEFFFF",
"~	c #97D9CC",
"{	c #BDE7DF",
"]	c #2CAA91",
"^	c #2A9B84",
"/	c #90D6C8",
"                    ",
"                    ",
"                    ",
"                    ",
"                    ",
"           .+       ",
"           @.+      ",
"           @@.+     ",
"           #@@$     ",
"       $@@#         ",
"       %&@@         ",
"        %&@         ",
"         %&         ",
"                    ",
"                    ",
"                    ",
"                    ",
"                    ",
"                    ",
"                    ",
"                    ",
"       *=-;;-=*     ",
"     *->>>>>>>>-*   ",
"    >>>>>>>>>>>>>,  ",
"   *>>>>>>>'>>>>>>* ",
"   ->>>>>>>)'>>>>>- ",
"  *>>>>>>>>))'>>>>>*",
"  =>>>>>>>>)))'>>>>=",
"  ->>>>>>>>!)))~>>>-",
"  ;>>>>>>>>{))))~>>;",
"  ;>>~)))){>>>>>>>>]",
"  ->>>~)))!>>>>>>>>^",
"  =>>>>/)))>>>>>>>>=",
"  *>>>>>/))>>>>>>>>*",
"   ->>>>>/)>>>>>>>- ",
"   *>>>>>>~>>>>>>>* ",
"    ,>>>>>>>>>>>>   ",
"     *->>>>>>>>-*   ",
"       *=^;;^=*     ",
"                    ",
"                    ",
"                    "};
