/* XPM */
static char * close_pressed_xpm[] = {
"16 15 39 1",
" 	c #2F2F2F",
".	c #383B36",
"+	c #677657",
"@	c #869E6E",
"#	c #95B279",
"$	c #859E6D",
"%	c #667657",
"&	c #535C49",
"*	c #94B178",
"=	c #92B372",
"-	c #525D49",
";	c #99B77C",
">	c #95B179",
",	c #95B178",
"'	c #383A36",
")	c #313230",
"!	c #59654E",
"~	c #99B77B",
"{	c #5B674F",
"]	c #303030",
"^	c #667556",
"/	c #879F6E",
"(	c #647355",
"_	c #57624C",
":	c #58634C",
"<	c #606E52",
"[	c #627054",
"}	c #5F6D52",
"|	c #56624B",
"1	c #535D49",
"2	c #99B67B",
"3	c #59644D",
"4	c #657456",
"5	c #58644D",
"6	c #687858",
"7	c #94B078",
"8	c #373935",
"9	c #525B48",
"0	c #859D6D",
"                ",
"     .+@##$%.   ",
"    &*======*-  ",
"   &;========;- ",
"  .*==>====,==,'",
"  +===)!~~{]===^",
"  /===( _: <===$",
"  ,====[  }====*",
"  *===;|  12===,",
"  @===3 44 5===$",
"  %===.6==6.===4",
"  .*==========78",
"   -;========;9 ",
"    -,======79  ",
"     '^0,,048   "};
