/* XPM */
static char * closeA_xpm[] = {
"28 42 62 1",
" 	c #2B2B2B",
".	c #373D50",
"+	c #47547F",
"@	c #5264A0",
"#	c #576BAF",
"$	c #47537E",
"%	c #383D50",
"&	c #323540",
"*	c #4D5D93",
"=	c #596EB5",
"-	c #4E5E93",
";	c #32353F",
">	c #373C4D",
",	c #566AAC",
"'	c #363B4C",
")	c #5669AB",
"!	c #4D5D92",
"~	c #5A6FB5",
"{	c #D0D6EA",
"]	c #7A8AC4",
"^	c #475480",
"/	c #7889C3",
"(	c #E7EAF4",
"_	c #7B8CC4",
":	c #46537E",
"<	c #576BAE",
"[	c #566AAD",
"}	c #52639F",
"|	c #46537D",
"1	c #373C4F",
"2	c #4D5D91",
"3	c #31333C",
"4	c #5568AA",
"5	c #4E5D93",
"6	c #333745",
"7	c #3F4867",
"8	c #4A5889",
"9	c #3E4766",
"0	c #343846",
"a	c #30323A",
"b	c #434E75",
"c	c #4B5A8D",
"d	c #434F75",
"e	c #303239",
"f	c #333743",
"g	c #495787",
"h	c #495786",
"i	c #434E74",
"j	c #4C5B8D",
"k	c #CCD0DE",
"l	c #6E7AA3",
"m	c #343845",
"n	c #6D79A2",
"o	c #E5E7EE",
"p	c #707CA5",
"q	c #495888",
"r	c #707CA4",
"s	c #3E4765",
"t	c #CDD1DF",
"u	c #333744",
"v	c #2F3137",
"w	c #485685",
"                            ",
"            .+@##@$%        ",
"          &*========-;      ",
"         >,==========,'     ",
"        &,============);    ",
"        !===~======~===*    ",
"       .===~{]====]{~===.   ",
"       ^====/(_==/(_====:   ",
"       @=====/(_/(_=====@   ",
"       <======]((]======<   ",
"       <======]((]======[   ",
"       @=====/(_/(_=====}   ",
"       +====/(_==/(_====|   ",
"       %===~{]====]{~===1   ",
"        2===~======~===-    ",
"        34============);    ",
"         ')==========)'     ",
"          ;5========!;      ",
"            .:}<<}:1        ",
"                            ",
"                            ",
"                            ",
"            67$88:90        ",
"          abccccccccde      ",
"         fgccccccccccgf     ",
"        agcccccccccccche    ",
"        icccjccccccjcccb    ",
"       6cccjklcccclkjcccm   ",
"       7ccccnopccnopcccc9   ",
"       $cccccnopnopccccc:   ",
"       qccccccloolccccccq   ",
"       qccccccloolccccccg   ",
"       $cccccnornopccccc|   ",
"       7ccccnorccnopccccs   ",
"       0cccjtlcccclkjcccu   ",
"        icccjccccccjcccd    ",
"        vwcccccccccccche    ",
"         fhcccccccccchf     ",
"          ebccccccccie      ",
"            m9|qq|9u        ",
"                            ",
"                            "};
