/* XPM */
static char * closeO_xpm[] = {
"28 42 68 1",
" 	c #2B2B2B",
".	c #3D4255",
"+	c #546089",
"@	c #6475AF",
"#	c #6B7EBF",
"$	c #6475AE",
"%	c #536089",
"&	c #3D4355",
"*	c #353843",
"=	c #5D6CA0",
"-	c #6E82C6",
";	c #5E6DA0",
">	c #353842",
",	c #3C4151",
"'	c #6A7CBC",
")	c #3B4050",
"!	c #697CBB",
"~	c #353741",
"{	c #5D6C9F",
"]	c #6F82C6",
"^	c #D6DCEE",
"/	c #8A9BD1",
"(	c #3D4254",
"_	c #54618A",
":	c #899AD1",
"<	c #EAEDF6",
"[	c #8C9CD2",
"}	c #535F88",
"|	c #EAECF6",
"1	c #6A7DBD",
"2	c #8C9BD2",
"3	c #6374AD",
"4	c #535E87",
"5	c #3C4253",
"6	c #5D6B9E",
"7	c #33363F",
"8	c #687BB9",
"9	c #333745",
"0	c #3F4867",
"a	c #47537E",
"b	c #4A5889",
"c	c #46537E",
"d	c #3E4766",
"e	c #343846",
"f	c #30323A",
"g	c #434E75",
"h	c #4B5A8D",
"i	c #434F75",
"j	c #303239",
"k	c #333743",
"l	c #495787",
"m	c #495786",
"n	c #434E74",
"o	c #4C5B8D",
"p	c #CCD0DE",
"q	c #6E7AA3",
"r	c #343845",
"s	c #6D79A2",
"t	c #E5E7EE",
"u	c #707CA5",
"v	c #495888",
"w	c #707CA4",
"x	c #46537D",
"y	c #3E4765",
"z	c #CDD1DF",
"A	c #333744",
"B	c #2F3137",
"C	c #485685",
"                            ",
"            .+@##$%&        ",
"          *=--------;>      ",
"         ,'----------')     ",
"        *'------------!~    ",
"        {---]------]---=    ",
"       .---]^/----/^]---(   ",
"       _----:<[--:<[----}   ",
"       @-----:<[:<[-----$   ",
"       #------/<</------#   ",
"       #------/||/------1   ",
"       @-----:<2:<[-----3   ",
"       +----:<2--:<[----4   ",
"       &---]^/----/^]---5   ",
"        6---]------]---;    ",
"        78------------!~    ",
"         )!----------!)     ",
"          >{--------{~      ",
"            (}3##3}5        ",
"                            ",
"                            ",
"                            ",
"            90abbcde        ",
"          fghhhhhhhhij      ",
"         klhhhhhhhhhhlk     ",
"        flhhhhhhhhhhhhmj    ",
"        nhhhohhhhhhohhhg    ",
"       9hhhopqhhhhqpohhhr   ",
"       0hhhhstuhhstuhhhhd   ",
"       ahhhhhstustuhhhhhc   ",
"       vhhhhhhqttqhhhhhhv   ",
"       vhhhhhhqttqhhhhhhl   ",
"       ahhhhhstwstuhhhhhx   ",
"       0hhhhstwhhstuhhhhy   ",
"       ehhhozqhhhhqpohhhA   ",
"        nhhhohhhhhhohhhi    ",
"        BChhhhhhhhhhhhmj    ",
"         kmhhhhhhhhhhmk     ",
"          jghhhhhhhhnj      ",
"            rdxvvxdA        ",
"                            ",
"                            "};
