/* XPM */
static char * closeI_xpm[] = {
"28 42 50 1",
" 	c #2B2B2B",
".	c #353535",
"+	c #434343",
"@	c #4C4C4C",
"#	c #505050",
"$	c #363636",
"%	c #313131",
"&	c #484848",
"*	c #525252",
"=	c #494949",
"-	c #4F4F4F",
";	c #535353",
">	c #A0A0A0",
",	c #676767",
"'	c #A1A1A1",
")	c #AFAFAF",
"!	c #686868",
"~	c #424242",
"{	c #303030",
"]	c #333745",
"^	c #3F4867",
"/	c #47537E",
"(	c #4A5889",
"_	c #46537E",
":	c #3E4766",
"<	c #343846",
"[	c #30323A",
"}	c #434E75",
"|	c #4B5A8D",
"1	c #434F75",
"2	c #303239",
"3	c #333743",
"4	c #495787",
"5	c #495786",
"6	c #434E74",
"7	c #4C5B8D",
"8	c #CCD0DE",
"9	c #6E7AA3",
"0	c #343845",
"a	c #6D79A2",
"b	c #E5E7EE",
"c	c #707CA5",
"d	c #495888",
"e	c #707CA4",
"f	c #46537D",
"g	c #3E4765",
"h	c #CDD1DF",
"i	c #333744",
"j	c #2F3137",
"k	c #485685",
"                            ",
"            .+@##@+$        ",
"          %&********=%      ",
"         .#**********#.     ",
"        %#************-%    ",
"        &***;******;***&    ",
"       .***;>,****,';***$   ",
"       +****,)!**,)!****~   ",
"       @*****,)!,)!*****@   ",
"       #******,)),******#   ",
"       #******,)),******-   ",
"       @*****,)!,)!*****@   ",
"       +****,)!**,)!****~   ",
"       $***;>,****,>;***.   ",
"        &***;******;***=    ",
"        {-************-%    ",
"         .-**********-.     ",
"          %&********&%      ",
"            $~@##@~.        ",
"                            ",
"                            ",
"                            ",
"            ]^/((_:<        ",
"          [}||||||||12      ",
"         34||||||||||43     ",
"        [4||||||||||||52    ",
"        6|||7||||||7|||}    ",
"       ]|||789||||987|||0   ",
"       ^||||abc||abc||||:   ",
"       /|||||abcabc|||||_   ",
"       d||||||9bb9||||||d   ",
"       d||||||9bb9||||||4   ",
"       /|||||abeabc|||||f   ",
"       ^||||abe||abc||||g   ",
"       <|||7h9||||987|||i   ",
"        6|||7||||||7|||1    ",
"        jk||||||||||||52    ",
"         35||||||||||53     ",
"          2}||||||||62      ",
"            0:fddf:i        ",
"                            ",
"                            "};
