/* XPM */
static char * closeA_xpm[] = {
"28 42 88 1",
" 	c None",
".	c #1A1A1A",
"+	c #252924",
"@	c #5D7456",
"#	c #83A777",
"$	c #95BF88",
"%	c #82A677",
"&	c #5D7355",
"*	c #455340",
"=	c #94BE87",
"-	c #9BC78D",
";	c #44533F",
">	c #9AC68C",
",	c #94BD87",
"'	c #93BD86",
")	c #252824",
"!	c #1C1D1C",
"~	c #4D5E47",
"{	c #9AC58C",
"]	c #4E6049",
"^	c #1B1C1B",
"/	c #5C7255",
"(	c #83A778",
"_	c #5A6F53",
":	c #4A5B45",
"<	c #4B5C46",
"[	c #566A4F",
"}	c #586C51",
"|	c #54684E",
"1	c #99C58B",
"2	c #4A5A45",
"3	c #455441",
"4	c #99C48B",
"5	c #4C5D47",
"6	c #5B7154",
"7	c #4C5C46",
"8	c #5D7556",
"9	c #5B7254",
"0	c #242823",
"a	c #44523F",
"b	c #82A576",
"c	c #95BF87",
"d	c #3D4E3B",
"e	c #5D7E58",
"f	c #719C6B",
"g	c #7CAD76",
"h	c #3D4E3A",
"i	c #739F6D",
"j	c #81B47A",
"k	c #1C1C1B",
"l	c #536F4F",
"m	c #526E4E",
"n	c #1B1B1B",
"o	c #516D4E",
"p	c #73A06D",
"q	c #1B1B1A",
"r	c #323E30",
"s	c #78A772",
"t	c #7AA973",
"u	c #334032",
"v	c #3C4D3A",
"w	c #2C352B",
"x	c #79A872",
"y	c #2D372C",
"z	c #2A3229",
"A	c #5C7D57",
"B	c #729D6C",
"C	c #76A370",
"D	c #282F27",
"E	c #272E26",
"F	c #74A06E",
"G	c #7CAD75",
"H	c #77A571",
"I	c #2B332A",
"J	c #262C25",
"K	c #78A671",
"L	c #293128",
"M	c #7EB078",
"N	c #77A671",
"O	c #2C342B",
"P	c #729E6C",
"Q	c #2E382D",
"R	c #5C7D58",
"S	c #3B4C39",
"T	c #394837",
"U	c #526D4E",
"V	c #53704F",
"W	c #1C1D1B",
"............................",
"...........+@#$$%&+.........",
"..........*=------=;........",
".........*>-------->;.......",
"........+=--,----'--')......",
"........@---!~{{]^---/......",
"........(---_.:<.[---%......",
"........=----}..|----=......",
"........=---12..34---'......",
"........#---5.66.7---%......",
"........&---+8--8+---9......",
"........+=----------,0......",
".........;>-------->a.......",
"..........;'------,a........",
"...........)/bccb90.........",
"............................",
"............................",
"............................",
"............................",
"............................",
"............................",
"..........!defggfeh!........",
"..........ijjjjjjjji........",
"........kljjjjjjjjjjmn......",
"........ljjjjjjjjjjjjo......",
"......!ijjjjjjjjjjjjjjp!....",
"......djjjjqrsjjtu.jjjjv....",
"......ejjjjw.wsxy.zjjjjA....",
"......BjjjjCD.ww.EFjjjjf....",
"......GjjjjjHI..JijjjjjG....",
"......GjjjjjKw..LHjjjjjM....",
"......BjjjjNO.zz.zHjjjjP....",
"......ejjjjQ.zHHz.yjjjjR....",
"......hjjjjqyHjjHy.jjjjv....",
".......SjjjjjjjjjjjjjjT.....",
"........mjjjjjjjjjjjjl......",
"........nUjjjjjjjjjjVq......",
"..........ijjjjjjjji........",
"..........WvAfGgBAh!........",
"............................",
"  ..........................",
"  .........................."};
