/* XPM */
static char * closeI_xpm[] = {
"28 42 78 1",
" 	c None",
".	c #1A1A1A",
"+	c #363D3D",
"@	c #495151",
"#	c #535A5B",
"$	c #4A5051",
"%	c #2A3131",
"&	c #52595B",
"*	c #565D5E",
"=	c #293131",
"-	c #565D5D",
";	c #52595A",
">	c #2E3435",
",	c #565C5D",
"'	c #2F3637",
")	c #363C3D",
"!	c #343B3C",
"~	c #2D3334",
"{	c #2D3335",
"]	c #32393A",
"^	c #333A3B",
"/	c #313839",
"(	c #555C5D",
"_	c #555C5C",
":	c #353C3D",
"<	c #2D3435",
"[	c #373C3E",
"}	c #363C3C",
"|	c #293031",
"1	c #4A5050",
"2	c #525A5B",
"3	c #1C1D1C",
"4	c #3D4E3B",
"5	c #5D7E58",
"6	c #719C6B",
"7	c #7CAD76",
"8	c #3D4E3A",
"9	c #739F6D",
"0	c #81B47A",
"a	c #1C1C1B",
"b	c #536F4F",
"c	c #526E4E",
"d	c #1B1B1B",
"e	c #516D4E",
"f	c #73A06D",
"g	c #1B1B1A",
"h	c #323E30",
"i	c #78A772",
"j	c #7AA973",
"k	c #334032",
"l	c #3C4D3A",
"m	c #2C352B",
"n	c #79A872",
"o	c #2D372C",
"p	c #2A3229",
"q	c #5C7D57",
"r	c #729D6C",
"s	c #76A370",
"t	c #282F27",
"u	c #272E26",
"v	c #74A06E",
"w	c #7CAD75",
"x	c #77A571",
"y	c #2B332A",
"z	c #262C25",
"A	c #78A671",
"B	c #293128",
"C	c #7EB078",
"D	c #77A671",
"E	c #2C342B",
"F	c #729E6C",
"G	c #2E382D",
"H	c #5C7D58",
"I	c #3B4C39",
"J	c #394837",
"K	c #526D4E",
"L	c #53704F",
"M	c #1C1D1B",
"............................",
"............+@##$+..........",
"..........%&******&=........",
".........%-********-=.......",
".........&**;****;**;.......",
"........+***.>,,'.***)......",
"........@***!.~{.]***$......",
"........&****^../****&......",
"........&***(~..%_***;......",
"........@***>.::.<***$......",
"........+***.[**[.***}......",
".........&**********;.......",
".........=-********-|.......",
"..........=;******;|........",
"............)1221}..........",
"............................",
"............................",
"............................",
"............................",
"............................",
"............................",
"..........3456776583........",
"..........9000000009........",
"........ab0000000000cd......",
"........b000000000000e......",
"......3900000000000000f3....",
"......40000ghi00jk.0000l....",
"......50000m.mino.p0000q....",
"......r0000st.mm.uv00006....",
"......w00000xy..z900000w....",
"......w00000Am..Bx00000C....",
"......r0000DE.pp.px0000F....",
"......50000G.pxxp.o0000H....",
"......80000gox00xo.0000l....",
".......I00000000000000J.....",
"........c000000000000b......",
"........dK0000000000Lg......",
"..........9000000009........",
"..........Mlq6w7rq83........",
"............................",
"  ..........................",
"  .........................."};
