/* XPM */
static char * maximizeO_xpm[] = {
"20 42 60 1",
" 	c #1A1A1A",
".	c #1B1B1B",
"+	c #252525",
"@	c #303030",
"#	c #373737",
"$	c #3B3B3B",
"%	c #383838",
"&	c #3D3D3D",
"*	c #242424",
"=	c #2C2C2C",
"-	c #4B4B4B",
";	c #949596",
">	c #A3A4A5",
",	c #9D9E9F",
"'	c #797979",
")	c #919191",
"!	c #4C4C4C",
"~	c #555759",
"{	c #939495",
"]	c #8C8C8C",
"^	c #6F7173",
"/	c #4A4A4A",
"(	c #929393",
"_	c #9FA0A1",
":	c #545657",
"<	c #888888",
"[	c #9D9FA0",
"}	c #6E7072",
"|	c #8A8A8A",
"1	c #5C5C5C",
"2	c #989899",
"3	c #BFBFBF",
"4	c #D4D5D5",
"5	c #999999",
"6	c #5A5A5A",
"7	c #C3C3C3",
"8	c #DDDDDD",
"9	c #C2C2C2",
"0	c #595959",
"a	c #838383",
"b	c #575757",
"c	c #C4C4C4",
"d	c #BBBBBB",
"e	c #2A2A2A",
"f	c #505050",
"g	c #5B5B5B",
"h	c #989898",
"i	c #C0C0C0",
"j	c #B9B9B9",
"k	c #BFBFC0",
"l	c #D4D4D4",
"m	c #272727",
"n	c #B5B5B5",
"o	c #BEBEBE",
"p	c #D2D2D2",
"q	c #282828",
"r	c #B8B8B8",
"s	c #C1C1C1",
"t	c #565656",
"u	c #BEBEBF",
"      .+@#$$#@+     ",
"      %&&&&&&&&*    ",
"    .=&&&&&&&&&&=   ",
"    =&&&&&&&&&&&&=  ",
"  .%&&&&&&&&&&&&&&%.",
"  +&&&&&&-;>>,'&&&&+",
"  @&&&&&&&-;>>)&&&&@",
"  %&&&&!~&&-{>)&&&&#",
"  $&&&&]^~&&/()&&&&$",
"  $&&&&)_^:&&/<&&&&$",
"  #&&&&),[}:&&-&&&&#",
"  @&&&&)))|!&&&&&&&@",
"  +&&&&')))|!&&&&&&*",
"   *&&&&&&&&&&&&&&* ",
"    =&&&&&&&&&&&&=  ",
"     =&&&&&&&&&&=   ",
"      %&&&&&&&&*    ",
"      .+@#$$#@*     ",
"                    ",
"                    ",
"                    ",
"       12344351     ",
"     678888888890   ",
"    8888888888888a  ",
"   688888888888888b ",
"   988888888888888c ",
"  1888888de   f8888g",
"  28888888de   8888h",
"  i8888j888de  8888k",
"  l8888mn888o= 8888l",
"  l8888 mn888o=8888p",
"  i8888  qr888d8888k",
"  58888   qr8888888h",
"  18888f   qr8888886",
"   s888888888888887 ",
"   088888888888888t ",
"    a888888888888   ",
"     bs88888888st   ",
"       gholluh6     ",
"                    ",
"                    ",
"                    "};
