/* XPM */
static char * restoreI_xpm[] = {
"20 42 30 1",
" 	c #1A1A1A",
".	c #4B4B4D",
"+	c #606060",
"@	c #515152",
"#	c #494A4B",
"$	c #48494A",
"%	c #5C5C5C",
"&	c #989899",
"*	c #BFBFBF",
"=	c #D4D5D5",
"-	c #999999",
";	c #5A5A5A",
">	c #C3C3C3",
",	c #DDDDDD",
"'	c #C2C2C2",
")	c #595959",
"!	c #838383",
"~	c #828282",
"{	c #575757",
"]	c #C4C4C4",
"^	c #5B5B5B",
"/	c #989898",
"(	c #C0C0C0",
"_	c #BFBFC0",
":	c #D4D4D4",
"<	c #D2D2D2",
"[	c #C1C1C1",
"}	c #565656",
"|	c #BEBEBE",
"1	c #BEBEBF",
"                    ",
"                    ",
"                    ",
"                    ",
"                    ",
"           .        ",
"           +.       ",
"           ++.      ",
"           @++#     ",
"       #++@         ",
"        $++         ",
"         $+         ",
"          $         ",
"                    ",
"                    ",
"                    ",
"                    ",
"                    ",
"                    ",
"                    ",
"                    ",
"       %&*==*-%     ",
"     ;>,,,,,,,,')   ",
"    ,,,,,,,,,,,,,!  ",
"   ;,,,,,,,~,,,,,,{ ",
"   ',,,,,,, ~,,,,,] ",
"  %,,,,,,,,  ~,,,,,^",
"  &,,,,,,,,   ~,,,,/",
"  (,,,,,,,,    ~,,,_",
"  :,,,,,,,,{    ~,,:",
"  :,,~    {,,,,,,,,<",
"  (,,,~    ,,,,,,,,_",
"  -,,,,~   ,,,,,,,,/",
"  %,,,,,~  ,,,,,,,,;",
"   [,,,,,~ ,,,,,,,> ",
"   ),,,,,,~,,,,,,,} ",
"    !,,,,,,,,,,,,   ",
"     {[,,,,,,,,[}   ",
"       ^/|::1/;     ",
"                    ",
"                    ",
"                    "};
