/* XPM */
static char * closeA_xpm[] = {
"28 42 71 1",
" 	c #2B2B2B",
".	c #4F3737",
"+	c #7E4846",
"@	c #9F5351",
"#	c #AD5855",
"$	c #9E5350",
"%	c #7D4746",
"&	c #503837",
"*	c #403232",
"=	c #914E4C",
"-	c #B35A57",
";	c #924F4D",
">	c #3F3232",
",	c #4D3736",
"'	c #AA5754",
")	c #4C3736",
"!	c #A95754",
"~	c #3E3231",
"{	c #904E4C",
"]	c #B35B58",
"^	c #E9D1D0",
"/	c #C27A78",
"(	c #4F3837",
"_	c #7F4846",
":	c #C17977",
"<	c #F4E7E7",
"[	c #C37C7A",
"}	c #7C4745",
"|	c #F3E7E6",
"1	c #AB5754",
"2	c #C27C79",
"3	c #9D5350",
"4	c #4E3737",
"5	c #904E4B",
"6	c #3C3130",
"7	c #A85653",
"8	c #493332",
"9	c #6F3E3C",
"0	c #894643",
"a	c #954946",
"b	c #894543",
"c	c #6E3E3C",
"d	c #493433",
"e	c #3C3030",
"f	c #7F4240",
"g	c #9A4A47",
"h	c #7F4340",
"i	c #3B302F",
"j	c #463332",
"k	c #934845",
"l	c #924845",
"m	c #3B2F2F",
"n	c #7E4240",
"o	c #9A4B48",
"p	c #E2CCCB",
"q	c #AE6D6B",
"r	c #AD6D6A",
"s	c #483333",
"t	c #AD6C6A",
"u	c #F0E5E5",
"v	c #AF706D",
"w	c #6D3D3C",
"x	c #F0E4E4",
"y	c #944845",
"z	c #AF6F6D",
"A	c #884543",
"B	c #6D3D3B",
"C	c #483332",
"D	c #7D4240",
"E	c #392F2E",
"F	c #914744",
"                            ",
"            .+@##$%&        ",
"          *=--------;>      ",
"         ,'----------')     ",
"        *'------------!~    ",
"        {---]------]---=    ",
"       .---]^/----/^]---(   ",
"       _----:<[--:<[----}   ",
"       @-----:<[:<[-----$   ",
"       #------/<</------#   ",
"       #------/||/------1   ",
"       @-----:<2:<[-----3   ",
"       +----:<2--:<[----}   ",
"       &---]^/----/^]---4   ",
"        5---]------]---;    ",
"        67------------!~    ",
"         )!----------!)     ",
"          >=--------{~      ",
"            (}3##3}4        ",
"                            ",
"                            ",
"                            ",
"            890aabcd        ",
"          efgggggggghi      ",
"         jkggggggggggkj     ",
"        ekgggggggggggglm    ",
"        ngggoggggggogggf    ",
"       8gggopqggggrpogggs   ",
"       9ggggtuvggtuvggggw   ",
"       0gggggtuvtuvgggggb   ",
"       aggggggrxxqgggggga   ",
"       aggggggrxxqggggggy   ",
"       0gggggtuztuvgggggA   ",
"       9ggggtuzggtuvggggB   ",
"       dgggopqggggrpogggC   ",
"        Dgggoggggggogggh    ",
"        EFgggggggggggglm    ",
"         jlgggggggggglj     ",
"          inggggggggnm      ",
"            swAaaAwC        ",
"                            ",
"                            "};
