/* XPM */
static char * closeO_xpm[] = {
"28 42 72 1",
" 	c #2B2B2B",
".	c #583E3D",
"+	c #905654",
"@	c #B86765",
"#	c #CA6E6C",
"$	c #B76665",
"%	c #8F5554",
"&	c #583E3E",
"*	c #443636",
"=	c #A8605E",
"-	c #D1716F",
";	c #A8605F",
">	c #433535",
",	c #543C3C",
"'	c #C66C6B",
")	c #533C3C",
"!	c #C56C6A",
"~	c #A75F5E",
"{	c #D17270",
"]	c #F1D7D6",
"^	c #DA8D8B",
"/	c #573E3D",
"(	c #915655",
"_	c #DA8C8A",
":	c #F8EBEA",
"<	c #DB8F8D",
"[	c #8E5554",
"}	c #C96E6C",
"|	c #F8EAEA",
"1	c #C86D6B",
"2	c #DA8E8C",
"3	c #B66664",
"4	c #8E5453",
"5	c #563D3D",
"6	c #A65F5D",
"7	c #403433",
"8	c #C46B69",
"9	c #493332",
"0	c #6F3E3C",
"a	c #894643",
"b	c #954946",
"c	c #894543",
"d	c #6E3E3C",
"e	c #493433",
"f	c #3C3030",
"g	c #7F4240",
"h	c #9A4A47",
"i	c #7F4340",
"j	c #3B302F",
"k	c #463332",
"l	c #934845",
"m	c #924845",
"n	c #3B2F2F",
"o	c #7E4240",
"p	c #9A4B48",
"q	c #E2CCCB",
"r	c #AE6D6B",
"s	c #AD6D6A",
"t	c #483333",
"u	c #AD6C6A",
"v	c #F0E5E5",
"w	c #AF706D",
"x	c #6D3D3C",
"y	c #F0E4E4",
"z	c #944845",
"A	c #AF6F6D",
"B	c #884543",
"C	c #6D3D3B",
"D	c #483332",
"E	c #7D4240",
"F	c #392F2E",
"G	c #914744",
"                            ",
"            .+@##$%&        ",
"          *=--------;>      ",
"         ,'----------')     ",
"        *'------------!>    ",
"        ~---{------{---=    ",
"       .---{]^----^]{---/   ",
"       (----_:<--_:<----[   ",
"       @-----_:<_:<-----$   ",
"       }------^::^------}   ",
"       }------^||^------1   ",
"       @-----_:2_:<-----3   ",
"       +----_:2--_:<----4   ",
"       &---{]^----^]{---5   ",
"        6---{------{---;    ",
"        78------------!>    ",
"         )!----------!)     ",
"          >=--------~>      ",
"            /[3}}3[5        ",
"                            ",
"                            ",
"                            ",
"            90abbcde        ",
"          fghhhhhhhhij      ",
"         klhhhhhhhhhhlk     ",
"        flhhhhhhhhhhhhmn    ",
"        ohhhphhhhhhphhhg    ",
"       9hhhpqrhhhhsqphhht   ",
"       0hhhhuvwhhuvwhhhhx   ",
"       ahhhhhuvwuvwhhhhhc   ",
"       bhhhhhhsyyrhhhhhhb   ",
"       bhhhhhhsyyrhhhhhhz   ",
"       ahhhhhuvAuvwhhhhhB   ",
"       0hhhhuvAhhuvwhhhhC   ",
"       ehhhpqrhhhhsqphhhD   ",
"        Ehhhphhhhhhphhhi    ",
"        FGhhhhhhhhhhhhmn    ",
"         kmhhhhhhhhhhmk     ",
"          johhhhhhhhon      ",
"            txBbbBxD        ",
"                            ",
"                            "};
