/* XPM */
static char * closeO_xpm[] = {
"28 42 71 1",
" 	c #2B2B2B",
".	c #553F4B",
"+	c #8B5874",
"@	c #B16A91",
"#	c #C2729E",
"$	c #B06A90",
"%	c #8A5873",
"&	c #563F4B",
"*	c #43363D",
"=	c #A26385",
"-	c #C975A3",
";	c #A26386",
">	c #42363D",
",	c #523D49",
"'	c #BF709B",
")	c #513D48",
"!	c #BE709A",
"~	c #41363C",
"{	c #A16284",
"]	c #C976A3",
"^	c #EFD8E5",
"/	c #D490B5",
"(	c #8C5975",
"_	c #D38FB4",
":	c #F7EBF1",
"<	c #D492B6",
"[	c #8A5773",
"}	c #C2719D",
"|	c #F6EBF1",
"1	c #C0719C",
"2	c #D491B6",
"3	c #B06990",
"4	c #895772",
"5	c #543E4A",
"6	c #A06284",
"7	c #3F343A",
"8	c #BC6F99",
"9	c #47343E",
"0	c #6A4057",
"a	c #834868",
"b	c #8E4C70",
"c	c #824868",
"d	c #693F56",
"e	c #47353F",
"f	c #3B3036",
"g	c #784461",
"h	c #924D73",
"i	c #794562",
"j	c #3A3036",
"k	c #44343D",
"l	c #8B4B6E",
"m	c #44333D",
"n	c #3A3035",
"o	c #924E74",
"p	c #E0CCD7",
"q	c #A7708E",
"r	c #A76F8E",
"s	c #46343E",
"t	c #A76F8D",
"u	c #EFE6EB",
"v	c #A97290",
"w	c #8D4B70",
"x	c #EFE5EA",
"y	c #8C4B6F",
"z	c #A87190",
"A	c #683F56",
"B	c #E0CDD8",
"C	c #774460",
"D	c #382F34",
"E	c #8A4A6D",
"F	c #784561",
"                            ",
"            .+@##$%&        ",
"          *=--------;>      ",
"         ,'----------')     ",
"        *'------------!~    ",
"        {---]------]---=    ",
"       .---]^/----/^]---.   ",
"       (----_:<--_:<----[   ",
"       @-----_:<_:<-----$   ",
"       }------/::/------}   ",
"       }------/||/------1   ",
"       @-----_:2_:<-----3   ",
"       +----_:2--_:<----4   ",
"       &---]^/----/^]---5   ",
"        6---]------]---;    ",
"        78------------!~    ",
"         )!----------!)     ",
"          >=--------{~      ",
"            .[3}}3[5        ",
"                            ",
"                            ",
"                            ",
"            90abbcde        ",
"          fghhhhhhhhij      ",
"         klhhhhhhhhhhlm     ",
"        flhhhhhhhhhhhhln    ",
"        ghhhohhhhhhohhhg    ",
"       9hhhopqhhhhrpohhhs   ",
"       0hhhhtuvhhtuvhhhhd   ",
"       ahhhhhtuvtuvhhhhhc   ",
"       whhhhhhrxxqhhhhhhw   ",
"       whhhhhhrxxqhhhhhhy   ",
"       ahhhhhtuztuvhhhhhc   ",
"       0hhhhtuzhhtuvhhhhA   ",
"       ehhhoBqhhhhrpohhhs   ",
"        Chhhohhhhhhohhhi    ",
"        DEhhhhhhhhhhhhln    ",
"         mlhhhhhhhhhhlm     ",
"          jFhhhhhhhhgn      ",
"            sdcwwcds        ",
"                            ",
"                            "};
