/* XPM */
static char * closeA_xpm[] = {
"28 42 69 1",
" 	c #2B2B2B",
".	c #513946",
"+	c #814B69",
"@	c #A35781",
"#	c #B25D8C",
"$	c #A25780",
"%	c #804A68",
"&	c #40333A",
"*	c #955277",
"=	c #B85F90",
"-	c #965377",
";	c #4E3844",
">	c #AF5C89",
",	c #4D3843",
"'	c #AE5B89",
")	c #3F3239",
"!	c #945276",
"~	c #B86090",
"{	c #EBD2E0",
"]	c #C67EA6",
"^	c #503946",
"/	c #824B69",
"(	c #C57DA5",
"_	c #F4E8EF",
":	c #C780A7",
"<	c #7F4A67",
"[	c #B15D8B",
"}	c #F4E7EE",
"|	c #B05C8A",
"1	c #C680A7",
"2	c #A15780",
"3	c #503945",
"4	c #935176",
"5	c #3D3138",
"6	c #AD5B88",
"7	c #47343E",
"8	c #6A4057",
"9	c #834868",
"0	c #8E4C70",
"a	c #824868",
"b	c #693F56",
"c	c #47353F",
"d	c #3B3036",
"e	c #784461",
"f	c #924D73",
"g	c #794562",
"h	c #3A3036",
"i	c #44343D",
"j	c #8B4B6E",
"k	c #44333D",
"l	c #3A3035",
"m	c #924E74",
"n	c #E0CCD7",
"o	c #A7708E",
"p	c #A76F8E",
"q	c #46343E",
"r	c #A76F8D",
"s	c #EFE6EB",
"t	c #A97290",
"u	c #8D4B70",
"v	c #EFE5EA",
"w	c #8C4B6F",
"x	c #A87190",
"y	c #683F56",
"z	c #E0CDD8",
"A	c #774460",
"B	c #382F34",
"C	c #8A4A6D",
"D	c #784561",
"                            ",
"            .+@##$%.        ",
"          &*========-&      ",
"         ;>==========>,     ",
"        &>============')    ",
"        !===~======~===*    ",
"       .===~{]====]{~===^   ",
"       /====(_:==(_:====<   ",
"       @=====(_:(_:=====$   ",
"       [======]__]======[   ",
"       [======]}}]======|   ",
"       @=====(_1(_:=====2   ",
"       +====(_1==(_:====<   ",
"       .===~{]====]{~===3   ",
"        4===~======~===-    ",
"        56============')    ",
"         ,'==========',     ",
"          &*========!)      ",
"            ^<2[[2<3        ",
"                            ",
"                            ",
"                            ",
"            78900abc        ",
"          deffffffffgh      ",
"         ijffffffffffjk     ",
"        djffffffffffffjl    ",
"        efffmffffffmfffe    ",
"       7fffmnoffffpnmfffq   ",
"       8ffffrstffrstffffb   ",
"       9fffffrstrstfffffa   ",
"       uffffffpvvoffffffu   ",
"       uffffffpvvoffffffw   ",
"       9fffffrsxrstfffffa   ",
"       8ffffrsxffrstffffy   ",
"       cfffmzoffffpnmfffq   ",
"        Afffmffffffmfffg    ",
"        BCffffffffffffjl    ",
"         kjffffffffffjk     ",
"          hDffffffffel      ",
"            qbauuabq        ",
"                            ",
"                            "};
